<svg width="64" height="64" xmlns="http://www.w3.org/2000/svg"><g fill="none" fill-rule="nonzero"><circle fill="#232F3E" cx="32" cy="32" r="32"/><path d="M32.3 13c-5 0-10.6 1.9-11.7 8-.2.6.3 1 .7 1l5 .5c.6 0 1-.4 1-.9.5-2 2.3-3.1 4.3-3.1 1 0 2.3.4 2.9 1.3.7 1 .6 2.5.6 3.8v.7c-3 .3-7 .5-9.8 1.7a8.8 8.8 0 0 0-5.6 8.5c0 5.4 3.4 8.1 7.8 8.1 3.8 0 5.8-.9 8.6-3.8 1 1.4 1.3 2 3 3.5.5.2 1 .1 1.3-.2l4-3.4c.5-.3.4-.9 0-1.3-1-1.3-1.9-2.4-1.9-4.9v-8c0-3.4.2-6.6-2.3-9-2-1.8-5.4-2.5-8-2.5zm1.4 15.4H35v1.2c0 2 0 3.6-1 5.4-.8 1.5-2.1 2.4-3.6 2.4-2 0-3.2-1.5-3.2-3.8 0-3.8 3-5 6.4-5.2z" fill="#FFF"/><path d="M13.3 43.2c-.3 0-.4.4-.1.7a28 28 0 0 0 34.1 2.4c.7-.5.1-1.3-.6-1a37.9 37.9 0 0 1-33.4-2z" fill="#EC912D"/><path d="M48.2 42.5c-1.3 0-2.9.3-4 1.1-.5.3-.4.6 0 .6 1.3-.2 4.3-.5 4.8.1.6.7-.6 3.5-1 4.7-.2.4.1.5.5.2 2.2-1.8 2.8-5.6 2.3-6.2-.2-.3-1.3-.5-2.6-.5z" fill="#EC912D"/></g></svg>