<svg xmlns="http://www.w3.org/2000/svg" width="453" height="1044" fill="none"><g clip-path="url(#a)"><g filter="url(#b)"><ellipse cx="227.5" cy="700" fill="#FA1E4E" fill-opacity=".4" rx="556" ry="171.5" transform="rotate(-90 227.5 700)"/></g><g opacity=".6"><mask id="d" width="558" height="818" x="1" y="291" maskUnits="userSpaceOnUse" style="mask-type:alpha"><ellipse cx="279.998" cy="700.001" fill="url(#c)" rx="408.964" ry="278.342" transform="rotate(-90 279.998 700.001)"/></mask><g fill="#FA1E4E" mask="url(#d)"><path d="M152.485 687.477c0-.707-.488-1.279-1.09-1.279-.602 0-1.09.572-1.09 1.279 0 .706.488 1.279 1.09 1.279.602 0 1.09-.573 1.09-1.279ZM222.807 409.837c0-.714-.493-1.292-1.101-1.292s-1.101.578-1.101 1.292c0 .713.493 1.292 1.101 1.292s1.101-.579 1.101-1.292ZM287.675 441.059c0-.727-.502-1.317-1.123-1.317-.62 0-1.122.59-1.122 1.317 0 .728.502 1.318 1.122 1.318.621 0 1.123-.59 1.123-1.318ZM352.182 451.073c0-.713-.493-1.291-1.101-1.291s-1.101.578-1.101 1.291c0 .714.493 1.292 1.101 1.292s1.101-.578 1.101-1.292ZM435.618 430.289c0-.706-.488-1.279-1.09-1.279-.602 0-1.09.573-1.09 1.279 0 .707.488 1.279 1.09 1.279.602 0 1.09-.572 1.09-1.279ZM277.494 385.355c0-.734-.508-1.33-1.134-1.33-.626 0-1.133.596-1.133 1.33 0 .735.507 1.331 1.133 1.331s1.134-.596 1.134-1.331ZM268.454 513.098c0-.707-.488-1.279-1.091-1.279-.602 0-1.09.572-1.09 1.279 0 .706.488 1.279 1.09 1.279.603 0 1.091-.573 1.091-1.279ZM292.445 544.948c0-.742-.512-1.343-1.144-1.343-.632 0-1.145.601-1.145 1.343s.513 1.343 1.145 1.343 1.144-.601 1.144-1.343ZM307.886 421.091c0-.728-.503-1.318-1.123-1.318s-1.122.59-1.122 1.318c0 .727.502 1.317 1.122 1.317.62 0 1.123-.59 1.123-1.317ZM225.289 293.656c0-.706-.488-1.279-1.09-1.279-.602 0-1.09.573-1.09 1.279 0 .707.488 1.28 1.09 1.28.602 0 1.09-.573 1.09-1.28ZM177.262 351.09c0-.706-.488-1.279-1.09-1.279-.602 0-1.09.573-1.09 1.279s.488 1.279 1.09 1.279c.602 0 1.09-.573 1.09-1.279ZM150.032 321.49c0-.706-.488-1.279-1.09-1.279-.602 0-1.09.573-1.09 1.279 0 .707.488 1.28 1.09 1.28.602 0 1.09-.573 1.09-1.28ZM147.516 311.026c0-.707-.488-1.279-1.09-1.279-.602 0-1.09.572-1.09 1.279 0 .706.488 1.279 1.09 1.279.602 0 1.09-.573 1.09-1.279ZM132.844 494.028c0-.707-.488-1.28-1.09-1.28-.602 0-1.09.573-1.09 1.28 0 .706.488 1.279 1.09 1.279.602 0 1.09-.573 1.09-1.279ZM147.602 507.879c0-.706-.488-1.279-1.09-1.279-.602 0-1.09.573-1.09 1.279 0 .707.488 1.279 1.09 1.279.602 0 1.09-.572 1.09-1.279ZM193.637 601.969c0-.706-.488-1.279-1.09-1.279-.602 0-1.09.573-1.09 1.279s.488 1.279 1.09 1.279c.602 0 1.09-.573 1.09-1.279ZM223.11 553.619c0-.706-.488-1.279-1.09-1.279-.602 0-1.09.573-1.09 1.279 0 .707.488 1.279 1.09 1.279.602 0 1.09-.572 1.09-1.279ZM235.082 514.403c0-.707-.488-1.28-1.09-1.28-.602 0-1.09.573-1.09 1.28 0 .706.488 1.279 1.09 1.279.602 0 1.09-.573 1.09-1.279ZM330.829 645.994c0-.939-.649-1.701-1.45-1.701-.8 0-1.449.762-1.449 1.701 0 .94.649 1.701 1.449 1.701.801 0 1.45-.761 1.45-1.701ZM370.073 672.038c0-.834-.576-1.51-1.287-1.51-.71 0-1.286.676-1.286 1.51 0 .833.576 1.509 1.286 1.509.711 0 1.287-.676 1.287-1.509ZM415.878 707.595c0-.714-.493-1.292-1.101-1.292s-1.101.578-1.101 1.292c0 .713.493 1.292 1.101 1.292s1.101-.579 1.101-1.292ZM267.901 475.388c0-.714-.493-1.292-1.101-1.292s-1.101.578-1.101 1.292c0 .713.493 1.292 1.101 1.292s1.101-.579 1.101-1.292ZM381.149 575.569c0-.756-.522-1.369-1.166-1.369-.644 0-1.167.613-1.167 1.369s.523 1.369 1.167 1.369 1.166-.613 1.166-1.369ZM393.911 731.961c0-.721-.498-1.305-1.112-1.305-.614 0-1.111.584-1.111 1.305 0 .72.497 1.305 1.111 1.305s1.112-.585 1.112-1.305ZM367.957 807.53c0-.707-.488-1.28-1.09-1.28-.602 0-1.09.573-1.09 1.28 0 .706.488 1.279 1.09 1.279.602 0 1.09-.573 1.09-1.279ZM355.117 809.909c0-.728-.503-1.317-1.123-1.317s-1.123.589-1.123 1.317.503 1.318 1.123 1.318 1.123-.59 1.123-1.318ZM314.176 877.19c0-.707-.488-1.279-1.09-1.279-.602 0-1.09.572-1.09 1.279 0 .706.488 1.279 1.09 1.279.602 0 1.09-.573 1.09-1.279ZM291.814 845.903c0-.77-.532-1.395-1.188-1.395-.657 0-1.188.625-1.188 1.395s.531 1.394 1.188 1.394c.656 0 1.188-.624 1.188-1.394ZM247.211 836.399c0-.791-.546-1.432-1.221-1.432-.674 0-1.22.641-1.22 1.432 0 .792.546 1.433 1.22 1.433.675 0 1.221-.641 1.221-1.433ZM241.96 664.53c0-.848-.586-1.535-1.308-1.535-.723 0-1.308.687-1.308 1.535 0 .847.585 1.534 1.308 1.534.722 0 1.308-.687 1.308-1.534ZM200.285 711.022c0-.791-.546-1.432-1.22-1.432-.675 0-1.221.641-1.221 1.432 0 .792.546 1.433 1.221 1.433.674 0 1.22-.641 1.22-1.433ZM181.493 720.219c0-.756-.522-1.368-1.166-1.368-.645 0-1.167.612-1.167 1.368 0 .756.522 1.369 1.167 1.369.644 0 1.166-.613 1.166-1.369ZM285.985 814.361c0-.841-.581-1.522-1.297-1.522-.717 0-1.297.681-1.297 1.522 0 .84.58 1.522 1.297 1.522.716 0 1.297-.682 1.297-1.522ZM348.774 862.762c0-.706-.488-1.279-1.09-1.279-.602 0-1.09.573-1.09 1.279s.488 1.279 1.09 1.279c.602 0 1.09-.573 1.09-1.279ZM204.873 927.356c0-.784-.542-1.42-1.21-1.42-.668 0-1.21.636-1.21 1.42 0 .784.542 1.419 1.21 1.419.668 0 1.21-.635 1.21-1.419ZM219.619 938.623c0-.784-.542-1.42-1.21-1.42-.668 0-1.21.636-1.21 1.42 0 .784.542 1.42 1.21 1.42.668 0 1.21-.636 1.21-1.42ZM267.267 870.782c0-.77-.532-1.395-1.188-1.395-.656 0-1.188.625-1.188 1.395s.532 1.394 1.188 1.394c.656 0 1.188-.624 1.188-1.394ZM265.307 535.187c0-.714-.493-1.292-1.101-1.292s-1.101.578-1.101 1.292c0 .713.493 1.292 1.101 1.292s1.101-.579 1.101-1.292ZM252.464 539.97c0-.714-.493-1.292-1.101-1.292s-1.101.578-1.101 1.292c0 .713.493 1.292 1.101 1.292s1.101-.579 1.101-1.292ZM215.761 920.001c0-.777-.536-1.407-1.199-1.407-.662 0-1.199.63-1.199 1.407s.537 1.407 1.199 1.407c.663 0 1.199-.63 1.199-1.407ZM320.704 1024.68c0-.71-.488-1.28-1.091-1.28-.602 0-1.09.57-1.09 1.28 0 .71.488 1.28 1.09 1.28.603 0 1.091-.57 1.091-1.28ZM426.036 922.494c0-.706-.488-1.279-1.09-1.279-.602 0-1.091.573-1.091 1.279 0 .707.489 1.279 1.091 1.279s1.09-.572 1.09-1.279ZM77.797 385.828c0-.706-.488-1.279-1.09-1.279-.602 0-1.09.573-1.09 1.279 0 .707.488 1.279 1.09 1.279.602 0 1.09-.572 1.09-1.279ZM91.793 805.254c0-.706-.488-1.279-1.09-1.279-.602 0-1.09.573-1.09 1.279 0 .707.488 1.279 1.09 1.279.602 0 1.09-.572 1.09-1.279ZM53.293 868.172c0-.706-.488-1.279-1.09-1.279-.602 0-1.09.573-1.09 1.279 0 .707.488 1.279 1.09 1.279.602 0 1.09-.572 1.09-1.279ZM84.598 921.307c0-.707-.488-1.279-1.09-1.279-.602 0-1.09.572-1.09 1.279 0 .706.488 1.279 1.09 1.279.602 0 1.09-.573 1.09-1.279ZM115.61 840.529c0-.706-.488-1.279-1.09-1.279-.602 0-1.09.573-1.09 1.279 0 .707.488 1.28 1.09 1.28.602 0 1.09-.573 1.09-1.28ZM40.688 449.117c0-.706-.488-1.279-1.09-1.279-.602 0-1.09.573-1.09 1.279 0 .707.488 1.279 1.09 1.279.602 0 1.09-.572 1.09-1.279ZM8.895 559.133c0-.706-.488-1.279-1.09-1.279-.602 0-1.09.573-1.09 1.279s.488 1.279 1.09 1.279c.602 0 1.09-.573 1.09-1.279ZM61.934 521.617c0-.706-.488-1.279-1.09-1.279-.602 0-1.09.573-1.09 1.279 0 .707.488 1.279 1.09 1.279.602 0 1.09-.572 1.09-1.279ZM36.649 330.93c0-.707-.488-1.279-1.09-1.279-.602 0-1.09.572-1.09 1.279 0 .706.488 1.279 1.09 1.279.602 0 1.09-.573 1.09-1.279ZM68.075 675.924c0-.706-.488-1.279-1.09-1.279-.602 0-1.09.573-1.09 1.279s.488 1.279 1.09 1.279c.602 0 1.09-.573 1.09-1.279ZM54.403 834.199c0-.706-.488-1.279-1.09-1.279-.602 0-1.09.573-1.09 1.279 0 .707.488 1.28 1.09 1.28.602 0 1.09-.573 1.09-1.28ZM53.293 900.928c0-.706-.488-1.279-1.09-1.279-.602 0-1.09.573-1.09 1.279s.488 1.279 1.09 1.279c.602 0 1.09-.573 1.09-1.279ZM129.081 893.343c0-.728-.502-1.318-1.122-1.318-.62 0-1.123.59-1.123 1.318 0 .727.503 1.317 1.123 1.317s1.122-.59 1.122-1.317ZM15.75 894.713c0-.706-.488-1.279-1.09-1.279-.602 0-1.09.573-1.09 1.279 0 .707.488 1.279 1.09 1.279.602 0 1.09-.572 1.09-1.279ZM208.743 296.239c0-.707-.488-1.28-1.09-1.28-.602 0-1.09.573-1.09 1.279 0 .707.488 1.28 1.09 1.28.602 0 1.09-.573 1.09-1.279ZM214.805 296.725c0-.707-.488-1.279-1.09-1.279-.602 0-1.09.572-1.09 1.279 0 .706.488 1.279 1.09 1.279.602 0 1.09-.573 1.09-1.279ZM288.415 705.152c0-.855-.59-1.548-1.319-1.548-.728 0-1.319.693-1.319 1.548 0 .854.591 1.547 1.319 1.547.729 0 1.319-.693 1.319-1.547ZM428.671 819.491c0-.713-.493-1.292-1.101-1.292s-1.101.579-1.101 1.292c0 .714.493 1.292 1.101 1.292s1.101-.578 1.101-1.292ZM174.735 885.696c0-.756-.522-1.369-1.166-1.369-.644 0-1.167.613-1.167 1.369s.523 1.368 1.167 1.368 1.166-.612 1.166-1.368ZM217.136 865.255c0-.777-.536-1.407-1.199-1.407-.662 0-1.199.63-1.199 1.407s.537 1.407 1.199 1.407c.663 0 1.199-.63 1.199-1.407ZM378.357 441.736c0-.72-.498-1.305-1.112-1.305-.614 0-1.112.585-1.112 1.305 0 .721.498 1.305 1.112 1.305.614 0 1.112-.584 1.112-1.305ZM392.297 649.106c0-.707-.488-1.279-1.09-1.279-.602 0-1.09.572-1.09 1.279 0 .706.488 1.279 1.09 1.279.602 0 1.09-.573 1.09-1.279ZM417.075 312.715c0-.706-.488-1.279-1.09-1.279-.602 0-1.09.573-1.09 1.279s.488 1.279 1.09 1.279c.602 0 1.09-.573 1.09-1.279ZM372.657 455.656c0-.706-.488-1.279-1.09-1.279-.602 0-1.09.573-1.09 1.279 0 .707.488 1.28 1.09 1.28.602 0 1.09-.573 1.09-1.28ZM387.414 469.508c0-.706-.488-1.279-1.09-1.279-.602 0-1.09.573-1.09 1.279s.488 1.279 1.09 1.279c.602 0 1.09-.573 1.09-1.279ZM433.45 563.598c0-.707-.488-1.279-1.09-1.279-.602 0-1.09.572-1.09 1.279 0 .706.488 1.279 1.09 1.279.602 0 1.09-.573 1.09-1.279ZM440.098 672.651c0-.791-.547-1.432-1.221-1.432s-1.221.641-1.221 1.432c0 .792.547 1.433 1.221 1.433s1.221-.641 1.221-1.433ZM421.305 681.85c0-.756-.522-1.369-1.166-1.369-.644 0-1.166.613-1.166 1.369s.522 1.369 1.166 1.369c.644 0 1.166-.613 1.166-1.369ZM444.686 888.985c0-.785-.542-1.42-1.21-1.42-.669 0-1.21.635-1.21 1.42 0 .784.541 1.419 1.21 1.419.668 0 1.21-.635 1.21-1.419ZM159.254 866.141c0-.707-.488-1.279-1.09-1.279-.602 0-1.09.572-1.09 1.279 0 .706.488 1.279 1.09 1.279.602 0 1.09-.573 1.09-1.279ZM189.309 853.041c0-.706-.488-1.279-1.09-1.279-.602 0-1.09.573-1.09 1.279 0 .707.488 1.279 1.09 1.279.602 0 1.09-.572 1.09-1.279ZM216.594 779.43c0-.707-.488-1.279-1.09-1.279-.602 0-1.09.572-1.09 1.279 0 .706.488 1.279 1.09 1.279.602 0 1.09-.573 1.09-1.279ZM77.774 518.969c0-.706-.488-1.279-1.09-1.279-.602 0-1.09.573-1.09 1.279s.488 1.279 1.09 1.279c.602 0 1.09-.573 1.09-1.279ZM2.88 355.86c0-.707-.489-1.279-1.09-1.279-.603 0-1.09.572-1.09 1.279 0 .706.487 1.279 1.09 1.279.601 0 1.09-.573 1.09-1.279ZM317.61 347.457c0-.706-.488-1.279-1.09-1.279-.602 0-1.09.573-1.09 1.279 0 .707.488 1.279 1.09 1.279.602 0 1.09-.572 1.09-1.279ZM331.606 766.883c0-.706-.488-1.279-1.09-1.279-.602 0-1.09.573-1.09 1.279s.488 1.279 1.09 1.279c.602 0 1.09-.573 1.09-1.279ZM293.106 829.801c0-.706-.488-1.279-1.09-1.279-.602 0-1.09.573-1.09 1.279s.488 1.279 1.09 1.279c.602 0 1.09-.573 1.09-1.279ZM324.411 882.936c0-.707-.488-1.279-1.09-1.279-.602 0-1.091.572-1.091 1.279 0 .706.489 1.279 1.091 1.279s1.09-.573 1.09-1.279ZM355.422 802.158c0-.706-.488-1.279-1.09-1.279-.602 0-1.09.573-1.09 1.279 0 .707.488 1.28 1.09 1.28.602 0 1.09-.573 1.09-1.28ZM194.267 533.922c0-.721-.498-1.305-1.112-1.305-.614 0-1.112.584-1.112 1.305 0 .72.498 1.305 1.112 1.305.614 0 1.112-.585 1.112-1.305ZM215 435.01c0-.706-.488-1.279-1.09-1.279-.602 0-1.09.573-1.09 1.279s.488 1.279 1.09 1.279c.602 0 1.09-.573 1.09-1.279ZM280.5 410.746c0-.706-.488-1.279-1.09-1.279-.602 0-1.09.573-1.09 1.279 0 .707.488 1.279 1.09 1.279.602 0 1.09-.572 1.09-1.279ZM214.033 608.979c0-.77-.532-1.394-1.189-1.394-.656 0-1.188.624-1.188 1.394 0 .77.532 1.394 1.188 1.394.657 0 1.189-.624 1.189-1.394ZM165.821 504.451c0-.706-.488-1.279-1.09-1.279-.602 0-1.09.573-1.09 1.279 0 .707.488 1.279 1.09 1.279.602 0 1.09-.572 1.09-1.279ZM248.707 520.762c0-.706-.488-1.279-1.09-1.279-.602 0-1.09.573-1.09 1.279s.488 1.279 1.09 1.279c.602 0 1.09-.573 1.09-1.279ZM301.747 483.246c0-.706-.489-1.279-1.091-1.279s-1.09.573-1.09 1.279c0 .707.488 1.279 1.09 1.279.602 0 1.091-.572 1.091-1.279ZM276.461 292.559c0-.707-.488-1.279-1.09-1.279-.602 0-1.09.572-1.09 1.279 0 .706.488 1.279 1.09 1.279.602 0 1.09-.573 1.09-1.279ZM142.766 510.592c0-.706-.488-1.279-1.09-1.279-.602 0-1.09.573-1.09 1.279s.488 1.279 1.09 1.279c.602 0 1.09-.573 1.09-1.279ZM307.887 637.553c0-.706-.488-1.279-1.09-1.279-.602 0-1.09.573-1.09 1.279s.488 1.279 1.09 1.279c.602 0 1.09-.573 1.09-1.279ZM294.215 795.828c0-.706-.488-1.279-1.09-1.279-.602 0-1.09.573-1.09 1.279 0 .707.488 1.279 1.09 1.279.602 0 1.09-.572 1.09-1.279ZM293.106 862.557c0-.707-.488-1.279-1.09-1.279-.602 0-1.09.572-1.09 1.279 0 .706.488 1.279 1.09 1.279.602 0 1.09-.573 1.09-1.279ZM368.894 854.975c0-.727-.503-1.317-1.123-1.317s-1.123.59-1.123 1.317c0 .728.503 1.318 1.123 1.318s1.123-.59 1.123-1.318ZM61.72 929.006c0-.706-.489-1.279-1.09-1.279-.603 0-1.09.573-1.09 1.279s.487 1.279 1.09 1.279c.601 0 1.09-.573 1.09-1.279ZM54.043 920.016c0-.707-.488-1.279-1.09-1.279-.602 0-1.09.572-1.09 1.279 0 .706.488 1.279 1.09 1.279.602 0 1.09-.573 1.09-1.279ZM75.739 738.719c0-.706-.488-1.279-1.09-1.279-.602 0-1.09.573-1.09 1.279s.488 1.279 1.09 1.279c.602 0 1.09-.573 1.09-1.279ZM11.415 563.584c0-.706-.488-1.279-1.09-1.279-.603 0-1.09.573-1.09 1.279 0 .707.487 1.279 1.09 1.279.602 0 1.09-.572 1.09-1.279ZM5.297 635.967c0-.706-.488-1.279-1.09-1.279-.602 0-1.09.573-1.09 1.279s.488 1.279 1.09 1.279c.602 0 1.09-.573 1.09-1.279ZM115.402 716.729c0-.742-.512-1.343-1.144-1.343-.632 0-1.145.601-1.145 1.343s.513 1.343 1.145 1.343 1.144-.601 1.144-1.343ZM207.293 762.278c0-.707-.488-1.28-1.09-1.28-.602 0-1.09.573-1.09 1.28 0 .706.488 1.279 1.09 1.279.602 0 1.09-.573 1.09-1.279ZM255.563 856.342c0-.706-.488-1.279-1.09-1.279-.602 0-1.09.573-1.09 1.279s.488 1.279 1.09 1.279c.602 0 1.09-.573 1.09-1.279ZM128.907 967.278c0-.707-.488-1.28-1.09-1.28-.602 0-1.09.573-1.09 1.28 0 .706.488 1.279 1.09 1.279.602 0 1.09-.573 1.09-1.279ZM268.664 1010.63c0-.71-.488-1.28-1.09-1.28-.602 0-1.09.57-1.09 1.28 0 .7.488 1.27 1.09 1.27.602 0 1.09-.57 1.09-1.27ZM351.532 1028.08c0-.7-.488-1.27-1.09-1.27-.602 0-1.09.57-1.09 1.27 0 .71.488 1.28 1.09 1.28.602 0 1.09-.57 1.09-1.28ZM417.566 1007.8c0-.73-.503-1.32-1.123-1.32s-1.123.59-1.123 1.32c0 .73.503 1.32 1.123 1.32s1.123-.59 1.123-1.32ZM141.891 443.426c0-.706-.488-1.279-1.09-1.279-.602 0-1.09.573-1.09 1.279s.488 1.279 1.09 1.279c.602 0 1.09-.573 1.09-1.279ZM187 1007.68c0-.7-.488-1.28-1.09-1.28-.602 0-1.09.58-1.09 1.28 0 .71.488 1.28 1.09 1.28.602 0 1.09-.57 1.09-1.28ZM16.645 1044.78c0-.71-.488-1.28-1.09-1.28-.602 0-1.09.57-1.09 1.28 0 .71.488 1.28 1.09 1.28.602 0 1.09-.57 1.09-1.28ZM23.72 872.803c0-.707-.489-1.279-1.09-1.279-.603 0-1.09.572-1.09 1.279 0 .706.487 1.279 1.09 1.279.601 0 1.09-.573 1.09-1.279ZM38.403 731.299c0-.706-.488-1.279-1.09-1.279-.602 0-1.09.573-1.09 1.279s.488 1.279 1.09 1.279c.602 0 1.09-.573 1.09-1.279ZM414.548 847.325c0-.756-.523-1.369-1.167-1.369s-1.166.613-1.166 1.369.522 1.368 1.166 1.368c.644 0 1.167-.612 1.167-1.368Z"/><g filter="url(#e)"><path d="M91.446 660.615c0-.706-.488-1.279-1.09-1.279-.602 0-1.09.573-1.09 1.279 0 .707.488 1.28 1.09 1.28.602 0 1.09-.573 1.09-1.28ZM161.768 382.976c0-.714-.493-1.292-1.101-1.292s-1.101.578-1.101 1.292c0 .713.493 1.292 1.101 1.292s1.101-.579 1.101-1.292ZM226.636 414.198c0-.728-.503-1.317-1.123-1.317s-1.122.589-1.122 1.317.502 1.318 1.122 1.318c.62 0 1.123-.59 1.123-1.318ZM291.143 424.214c0-.714-.493-1.292-1.101-1.292s-1.101.578-1.101 1.292c0 .713.493 1.292 1.101 1.292s1.101-.579 1.101-1.292ZM374.579 403.428c0-.706-.488-1.279-1.091-1.279-.602 0-1.09.573-1.09 1.279s.488 1.279 1.09 1.279c.603 0 1.091-.573 1.091-1.279ZM216.455 358.494c0-.735-.508-1.33-1.134-1.33-.626 0-1.133.595-1.133 1.33 0 .735.507 1.33 1.133 1.33s1.134-.595 1.134-1.33ZM207.414 486.237c0-.707-.488-1.28-1.09-1.28-.602 0-1.09.573-1.09 1.28 0 .706.488 1.279 1.09 1.279.602 0 1.09-.573 1.09-1.279ZM231.406 518.087c0-.742-.512-1.343-1.144-1.343-.632 0-1.145.601-1.145 1.343 0 .741.513 1.343 1.145 1.343s1.144-.602 1.144-1.343ZM246.847 394.231c0-.727-.503-1.317-1.123-1.317s-1.122.59-1.122 1.317c0 .728.502 1.318 1.122 1.318.62 0 1.123-.59 1.123-1.318ZM116.223 324.225c0-.707-.488-1.279-1.09-1.279-.602 0-1.09.572-1.09 1.279 0 .706.488 1.279 1.09 1.279.602 0 1.09-.573 1.09-1.279ZM88.993 294.629c0-.706-.488-1.279-1.09-1.279-.603 0-1.09.573-1.09 1.279 0 .707.487 1.279 1.09 1.279.602 0 1.09-.572 1.09-1.279ZM71.805 467.162c0-.706-.488-1.279-1.09-1.279-.602 0-1.09.573-1.09 1.279 0 .707.488 1.279 1.09 1.279.602 0 1.09-.572 1.09-1.279ZM86.563 481.016c0-.707-.488-1.279-1.09-1.279-.602 0-1.09.572-1.09 1.279 0 .706.488 1.279 1.09 1.279.602 0 1.09-.573 1.09-1.279ZM132.598 575.108c0-.707-.488-1.28-1.09-1.28-.602 0-1.09.573-1.09 1.28 0 .706.488 1.279 1.09 1.279.602 0 1.09-.573 1.09-1.279ZM162.071 526.758c0-.706-.488-1.279-1.09-1.279-.602 0-1.09.573-1.09 1.279s.488 1.279 1.09 1.279c.602 0 1.09-.573 1.09-1.279ZM174.043 487.541c0-.706-.488-1.279-1.09-1.279-.602 0-1.09.573-1.09 1.279 0 .707.488 1.279 1.09 1.279.602 0 1.09-.572 1.09-1.279ZM269.79 619.133c0-.94-.649-1.701-1.45-1.701-.8 0-1.449.761-1.449 1.701 0 .939.649 1.701 1.449 1.701.801 0 1.45-.762 1.45-1.701ZM309.033 645.176c0-.833-.575-1.509-1.286-1.509-.71 0-1.286.676-1.286 1.509 0 .834.576 1.51 1.286 1.51.711 0 1.286-.676 1.286-1.51ZM354.839 680.734c0-.714-.493-1.292-1.101-1.292s-1.101.578-1.101 1.292c0 .713.493 1.291 1.101 1.291s1.101-.578 1.101-1.291ZM407.039 566.959c0-.706-.488-1.279-1.09-1.279-.602 0-1.09.573-1.09 1.279 0 .707.488 1.279 1.09 1.279.602 0 1.09-.572 1.09-1.279ZM418.411 405.781c0-.706-.488-1.279-1.09-1.279-.602 0-1.091.573-1.091 1.279 0 .707.489 1.28 1.091 1.28s1.09-.573 1.09-1.28ZM423.969 362.891c0-.707-.488-1.279-1.09-1.279-.602 0-1.09.572-1.09 1.279 0 .706.488 1.279 1.09 1.279.602 0 1.09-.573 1.09-1.279ZM206.862 448.53c0-.713-.493-1.291-1.101-1.291s-1.101.578-1.101 1.291c0 .714.493 1.292 1.101 1.292s1.101-.578 1.101-1.292ZM320.11 548.708c0-.756-.522-1.369-1.166-1.369-.645 0-1.167.613-1.167 1.369 0 .755.522 1.368 1.167 1.368.644 0 1.166-.613 1.166-1.368ZM332.872 705.1c0-.721-.498-1.305-1.112-1.305-.614 0-1.112.584-1.112 1.305 0 .72.498 1.304 1.112 1.304.614 0 1.112-.584 1.112-1.304ZM306.918 780.668c0-.706-.488-1.279-1.09-1.279-.602 0-1.09.573-1.09 1.279 0 .707.488 1.279 1.09 1.279.602 0 1.09-.572 1.09-1.279ZM294.078 783.048c0-.728-.503-1.318-1.123-1.318s-1.123.59-1.123 1.318c0 .727.503 1.317 1.123 1.317s1.123-.59 1.123-1.317ZM253.137 850.328c0-.706-.488-1.279-1.09-1.279-.602 0-1.09.573-1.09 1.279 0 .707.488 1.279 1.09 1.279.602 0 1.09-.572 1.09-1.279ZM230.775 819.041c0-.77-.532-1.394-1.188-1.394-.657 0-1.189.624-1.189 1.394 0 .77.532 1.395 1.189 1.395.656 0 1.188-.625 1.188-1.395ZM186.172 809.538c0-.791-.546-1.432-1.221-1.432-.674 0-1.221.641-1.221 1.432 0 .791.547 1.433 1.221 1.433.675 0 1.221-.642 1.221-1.433ZM180.921 637.668c0-.847-.586-1.535-1.308-1.535-.723 0-1.308.688-1.308 1.535 0 .848.585 1.535 1.308 1.535.722 0 1.308-.687 1.308-1.535ZM139.246 684.161c0-.791-.546-1.432-1.22-1.432-.675 0-1.221.641-1.221 1.432 0 .791.546 1.433 1.221 1.433.674 0 1.22-.642 1.22-1.433ZM120.454 693.36c0-.756-.522-1.369-1.167-1.369-.644 0-1.166.613-1.166 1.369s.522 1.369 1.166 1.369c.645 0 1.167-.613 1.167-1.369ZM224.946 787.499c0-.84-.581-1.522-1.297-1.522-.717 0-1.297.682-1.297 1.522 0 .841.58 1.522 1.297 1.522.716 0 1.297-.681 1.297-1.522ZM287.735 835.901c0-.707-.488-1.279-1.09-1.279-.602 0-1.09.572-1.09 1.279 0 .706.488 1.279 1.09 1.279.602 0 1.09-.573 1.09-1.279ZM420.09 779.953c0-.706-.488-1.279-1.09-1.279-.602 0-1.09.573-1.09 1.279 0 .707.488 1.279 1.09 1.279.602 0 1.09-.572 1.09-1.279ZM416.524 835.633c0-.706-.488-1.279-1.09-1.279-.602 0-1.09.573-1.09 1.279s.488 1.279 1.09 1.279c.602 0 1.09-.573 1.09-1.279ZM436.426 760.742c0-.706-.488-1.279-1.09-1.279-.602 0-1.09.573-1.09 1.279 0 .707.488 1.279 1.09 1.279.602 0 1.09-.572 1.09-1.279ZM443.547 449.385c0-.706-.488-1.279-1.09-1.279-.602 0-1.09.573-1.09 1.279s.488 1.279 1.09 1.279c.602 0 1.09-.573 1.09-1.279ZM143.834 900.494c0-.784-.542-1.419-1.21-1.419-.668 0-1.21.635-1.21 1.419s.542 1.42 1.21 1.42c.668 0 1.21-.636 1.21-1.42ZM158.58 911.762c0-.784-.542-1.42-1.21-1.42-.668 0-1.21.636-1.21 1.42 0 .784.542 1.42 1.21 1.42.668 0 1.21-.636 1.21-1.42ZM206.228 843.92c0-.77-.532-1.394-1.188-1.394-.656 0-1.188.624-1.188 1.394 0 .77.532 1.394 1.188 1.394.656 0 1.188-.624 1.188-1.394ZM204.268 508.325c0-.713-.493-1.292-1.101-1.292s-1.101.579-1.101 1.292c0 .714.493 1.292 1.101 1.292s1.101-.578 1.101-1.292ZM191.425 513.109c0-.714-.493-1.292-1.101-1.292s-1.101.578-1.101 1.292c0 .713.493 1.291 1.101 1.291s1.101-.578 1.101-1.291ZM154.722 893.14c0-.777-.536-1.407-1.199-1.407-.662 0-1.199.63-1.199 1.407s.537 1.407 1.199 1.407c.663 0 1.199-.63 1.199-1.407ZM259.664 997.822c0-.706-.488-1.279-1.09-1.279-.602 0-1.09.573-1.09 1.279 0 .707.488 1.28 1.09 1.28.602 0 1.09-.573 1.09-1.28ZM364.997 895.633c0-.706-.489-1.279-1.091-1.279s-1.09.573-1.09 1.279.488 1.279 1.09 1.279c.602 0 1.091-.573 1.091-1.279ZM16.758 358.965c0-.706-.488-1.279-1.09-1.279-.602 0-1.09.573-1.09 1.279s.488 1.279 1.09 1.279c.602 0 1.09-.573 1.09-1.279ZM30.754 778.393c0-.707-.488-1.279-1.09-1.279-.602 0-1.09.572-1.09 1.279 0 .706.488 1.279 1.09 1.279.602 0 1.09-.573 1.09-1.279ZM23.559 894.442c0-.707-.488-1.279-1.09-1.279-.602 0-1.09.572-1.09 1.279 0 .706.488 1.279 1.09 1.279.602 0 1.09-.573 1.09-1.279ZM54.57 813.668c0-.706-.487-1.279-1.09-1.279-.601 0-1.09.573-1.09 1.279 0 .707.489 1.279 1.09 1.279.603 0 1.09-.572 1.09-1.279ZM7.036 649.063c0-.707-.488-1.279-1.09-1.279-.603 0-1.09.572-1.09 1.279 0 .706.487 1.279 1.09 1.279.602 0 1.09-.573 1.09-1.279ZM68.042 866.481c0-.727-.502-1.317-1.122-1.317-.62 0-1.123.59-1.123 1.317 0 .728.502 1.318 1.123 1.318.62 0 1.122-.59 1.122-1.318ZM50.68 1039.59c0-.7-.488-1.28-1.09-1.28-.602 0-1.09.58-1.09 1.28 0 .71.488 1.28 1.09 1.28.602 0 1.09-.57 1.09-1.28ZM116.714 1019.31c0-.73-.502-1.32-1.123-1.32-.62 0-1.122.59-1.122 1.32 0 .73.502 1.32 1.122 1.32.621 0 1.123-.59 1.123-1.32ZM227.376 678.29c0-.855-.59-1.547-1.319-1.547-.728 0-1.319.692-1.319 1.547s.591 1.548 1.319 1.548c.729 0 1.319-.693 1.319-1.548ZM367.632 792.626c0-.713-.493-1.292-1.101-1.292s-1.101.579-1.101 1.292c0 .714.493 1.292 1.101 1.292s1.101-.578 1.101-1.292ZM113.696 858.834c0-.755-.522-1.368-1.166-1.368-.645 0-1.167.613-1.167 1.368 0 .756.522 1.369 1.167 1.369.644 0 1.166-.613 1.166-1.369ZM156.097 838.396c0-.777-.537-1.407-1.199-1.407s-1.199.63-1.199 1.407.537 1.407 1.199 1.407 1.199-.63 1.199-1.407ZM317.317 414.875c0-.721-.497-1.305-1.111-1.305s-1.112.584-1.112 1.305.498 1.305 1.112 1.305c.614 0 1.111-.584 1.111-1.305Z"/></g></g></g><path fill="url(#f)" fill-opacity=".64" fill-rule="evenodd" d="m194.74 463.186-6.639 10.406-10.725 5.72-9.097 13.731 35.654 41.056.236.272-.183.31-41.181 69.711 19.507-8.238 70.783-113.868-12.249-12.248-6.851-6.852H194.74Zm-33.483 141.86 41.685-70.563-35.236-40.575-39.016 58.891v6.061l-34.447 51.671v10.164L18 740.192h17.871l13.927-22.262 43.174-69.015.253-.406.443-.184 14.337-5.959 12.059-19.621.251-.409.443-.187 40.499-17.103Zm-2.563 4.339-9.327 15.788-36.632 15.227 9.633-15.674 36.326-15.341Zm-7.787 15.148 9.335-15.802 19.325-8.161-10.101 16.249-18.559 7.714Zm-4.084 4.946-36.77 15.284-14.532 23.646-.236.383-.407.19-6.482 3.025L62.91 713.42l-.2.324-.328.19-10.24 5.904-12.733 20.354h34.624l5.052 5.052h33.07l5.052-5.052h11.16l11.957-18.881-13.499-57.708-.046-.195.102-.173 19.941-33.756Zm-5.749 90.647-13.229-56.555 20.518-34.731 22.699-9.436.444-.184.254-.409 12.848-20.668 71.663-115.284.628-1.011-.841-.841-13.09-13.09-4.731-4.731h38.059l-28.856 45.956-1.517 2.416 2.061 1.973 15.224 14.576-78.936 123.803-43.198 68.216Zm433.401-6.15-3.976-6.231H478.667l-.6-.707-17.313-20.421H351.007l-.597-.676-30.067-34.031H184.272l29.91 41.893H200.85l20.315 29.764 20.606 8.879 4.321 6.051 10.494-10.494.293-.293h45.929l13.027-13.027.291-.29.411-.003c43.557-.229 109.652-.505 166.373-.585 28.36-.04 54.378-.032 74.066.056 6.584.029 12.469.067 17.499.115Zm1.285 2.013c-5.287-.054-11.614-.096-18.793-.128-19.682-.088-45.696-.096-74.055-.056-56.539.08-122.393.354-165.953.583l-13.029 13.029-.293.293h-45.93l-10.437 10.437.032.045h12.446l18.12 7.808h125.214l5.186-5.186 2.431 2.43h33.069l5.052-5.052h142.382l-15.442-24.203Zm-222.95-33.372-27.129-30.707h137.391l-13.947-23.333 5.253-8.587-5.028-7.735-24.42 39.655-54.784-85.923-2.724-32.291 21.995-31.011.634-.895-.66-.876-20.826-27.616v-45.401l-.23-.366-50.97-81.006 10.505-19.056 127.349 199.596-6.872 9.244-1.461 1.965 1.345 2.046 23.452 35.671-2.735 4.44 6.228 9.082-19.157 31.316 12.849 19.768 34.328 11.313h31.679l33.072 51.835h-87.428l-17.313-20.421-.599-.707H352.81Zm106.438-149.238-3.823 5.142 20.309 30.891 3.195-5.187-19.681-30.846Zm-204.363-22.931 29.676-47.262h20.04l-37.556 58.904-12.16-11.642Zm101.389 33.782-51.673-81.044-53.958-87.618 22.726-35.618v-10.828l17.453-24.343 7.56-4.032 6.219-9.747 21.431 33.589-11.721 21.262-.427.774.471.749 38.431 61.079v80.679l.11.137 10.928 13.66 2.311 27.397-9.861 13.904Zm-2.488-55.449v-78.739l11.779 18.72v45.54l.303.401 20.467 27.141-19.303 27.218-2.224-26.368-.013-.152-.095-.119-10.914-13.642Zm4.229 58.18 8.511-12 2.463 29.212-10.974-17.212Zm91.868 64.429 5.026 7.732 18.079-29.552-5.094-7.427-18.011 29.247Zm5.604 10.307-4.215 6.891 13.94 23.322h35.049l-31.987-10.541-12.787-19.672Zm-47.868 120.467-1.973-1.972H262.069l15.989 6.889h124.643l4.918-4.917ZM240.74 731.001l-25.902-36.279h-12.249l19.185 28.107 18.966 8.172ZM95.162 610.809l33.528-50.293v6.19l-33.528 52.55v-8.447Zm10.162 35.92-10.063 4.183-39.73 63.509 5.024-2.896 25.521-41.473.236-.383.407-.19 6.482-3.025 12.123-19.725Z" clip-rule="evenodd" style="mix-blend-mode:soft-light"/></g><defs><filter id="b" width="887" height="1656" x="-216" y="-128" color-interpolation-filters="sRGB" filterUnits="userSpaceOnUse"><feFlood flood-opacity="0" result="BackgroundImageFix"/><feBlend in="SourceGraphic" in2="BackgroundImageFix" result="shape"/><feGaussianBlur result="effect1_foregroundBlur_1805_15582" stdDeviation="136"/></filter><filter id="e" width="829.191" height="2347.1" x="-341.105" y="-579.383" color-interpolation-filters="sRGB" filterUnits="userSpaceOnUse"><feFlood flood-opacity="0" result="BackgroundImageFix"/><feBlend in="SourceGraphic" in2="BackgroundImageFix" result="shape"/><feGaussianBlur result="effect1_foregroundBlur_1805_15582" stdDeviation="2"/></filter><radialGradient id="c" cx="0" cy="0" r="1" gradientTransform="matrix(0 437.046 -642.146 0 279.998 700.001)" gradientUnits="userSpaceOnUse"><stop stop-color="#D9D9D9"/><stop offset="1" stop-color="#D9D9D9" stop-opacity="0"/></radialGradient><linearGradient id="f" x1="304.601" x2="304.601" y1="291" y2="748" gradientUnits="userSpaceOnUse"><stop stop-color="#FA1E4E" stop-opacity="0"/><stop offset="1" stop-color="#FA1E4E"/></linearGradient><clipPath id="a"><path fill="#fff" d="M0 1044V0h453v1044z"/></clipPath></defs></svg>