<svg width="453" height="1044" viewBox="0 0 453 1044" fill="none" xmlns="http://www.w3.org/2000/svg">
<g opacity="0.8" clip-path="url(#clip0_2464_17205)">
<g filter="url(#filter0_f_2464_17205)">
<ellipse cx="227.5" cy="306" rx="556" ry="171.5" transform="rotate(-90 227.5 306)" fill="#FA1E4E" fill-opacity="0.4"/>
</g>
<g opacity="0.6">
<mask id="mask0_2464_17205" style="mask-type:alpha" maskUnits="userSpaceOnUse" x="1" y="-225" width="558" height="818">
<ellipse cx="279.998" cy="183.965" rx="408.964" ry="278.342" transform="rotate(-90 279.998 183.965)" fill="url(#paint0_radial_2464_17205)"/>
</mask>
<g mask="url(#mask0_2464_17205)">
<path d="M152.485 171.44C152.485 170.733 151.997 170.161 151.395 170.161C150.793 170.161 150.305 170.733 150.305 171.44C150.305 172.146 150.793 172.719 151.395 172.719C151.997 172.719 152.485 172.146 152.485 171.44Z" fill="#FA1E4E"/>
<path d="M292.445 28.9108C292.445 28.1691 291.933 27.5678 291.301 27.5678C290.669 27.5678 290.156 28.1691 290.156 28.9108C290.156 29.6525 290.669 30.2539 291.301 30.2539C291.933 30.2539 292.445 29.6525 292.445 28.9108Z" fill="#FA1E4E"/>
<path d="M193.637 85.9319C193.637 85.2254 193.149 84.6528 192.547 84.6528C191.945 84.6528 191.457 85.2254 191.457 85.9319C191.457 86.6383 191.945 87.2109 192.547 87.2109C193.149 87.2109 193.637 86.6383 193.637 85.9319Z" fill="#FA1E4E"/>
<path d="M223.11 37.5842C223.11 36.8778 222.622 36.3051 222.02 36.3051C221.418 36.3051 220.93 36.8778 220.93 37.5842C220.93 38.2906 221.418 38.8633 222.02 38.8633C222.622 38.8633 223.11 38.2906 223.11 37.5842Z" fill="#FA1E4E"/>
<path d="M330.829 129.959C330.829 129.019 330.18 128.258 329.379 128.258C328.579 128.258 327.93 129.019 327.93 129.959C327.93 130.898 328.579 131.66 329.379 131.66C330.18 131.66 330.829 130.898 330.829 129.959Z" fill="#FA1E4E"/>
<path d="M370.073 156.002C370.073 155.169 369.497 154.493 368.786 154.493C368.076 154.493 367.5 155.169 367.5 156.002C367.5 156.836 368.076 157.512 368.786 157.512C369.497 157.512 370.073 156.836 370.073 156.002Z" fill="#FA1E4E"/>
<path d="M415.878 191.56C415.878 190.846 415.385 190.268 414.777 190.268C414.169 190.268 413.676 190.846 413.676 191.56C413.676 192.273 414.169 192.852 414.777 192.852C415.385 192.852 415.878 192.273 415.878 191.56Z" fill="#FA1E4E"/>
<path d="M381.149 59.5337C381.149 58.7779 380.627 58.1652 379.983 58.1652C379.339 58.1652 378.816 58.7779 378.816 59.5337C378.816 60.2896 379.339 60.9023 379.983 60.9023C380.627 60.9023 381.149 60.2896 381.149 59.5337Z" fill="#FA1E4E"/>
<path d="M393.911 215.926C393.911 215.205 393.413 214.621 392.799 214.621C392.185 214.621 391.688 215.205 391.688 215.926C391.688 216.646 392.185 217.23 392.799 217.23C393.413 217.23 393.911 216.646 393.911 215.926Z" fill="#FA1E4E"/>
<path d="M367.957 291.494C367.957 290.788 367.469 290.215 366.867 290.215C366.265 290.215 365.777 290.788 365.777 291.494C365.777 292.201 366.265 292.773 366.867 292.773C367.469 292.773 367.957 292.201 367.957 291.494Z" fill="#FA1E4E"/>
<path d="M355.117 293.874C355.117 293.146 354.614 292.557 353.994 292.557C353.374 292.557 352.871 293.146 352.871 293.874C352.871 294.602 353.374 295.191 353.994 295.191C354.614 295.191 355.117 294.602 355.117 293.874Z" fill="#FA1E4E"/>
<path d="M314.176 361.155C314.176 360.448 313.688 359.875 313.086 359.875C312.484 359.875 311.996 360.448 311.996 361.155C311.996 361.861 312.484 362.434 313.086 362.434C313.688 362.434 314.176 361.861 314.176 361.155Z" fill="#FA1E4E"/>
<path d="M291.814 329.868C291.814 329.098 291.282 328.473 290.626 328.473C289.969 328.473 289.438 329.098 289.438 329.868C289.438 330.638 289.969 331.262 290.626 331.262C291.282 331.262 291.814 330.638 291.814 329.868Z" fill="#FA1E4E"/>
<path d="M247.211 320.364C247.211 319.573 246.665 318.932 245.99 318.932C245.316 318.932 244.77 319.573 244.77 320.364C244.77 321.155 245.316 321.797 245.99 321.797C246.665 321.797 247.211 321.155 247.211 320.364Z" fill="#FA1E4E"/>
<path d="M241.96 148.493C241.96 147.645 241.374 146.958 240.652 146.958C239.929 146.958 239.344 147.645 239.344 148.493C239.344 149.34 239.929 150.027 240.652 150.027C241.374 150.027 241.96 149.34 241.96 148.493Z" fill="#FA1E4E"/>
<path d="M200.285 194.985C200.285 194.194 199.739 193.553 199.065 193.553C198.39 193.553 197.844 194.194 197.844 194.985C197.844 195.777 198.39 196.418 199.065 196.418C199.739 196.418 200.285 195.777 200.285 194.985Z" fill="#FA1E4E"/>
<path d="M181.493 204.182C181.493 203.426 180.971 202.813 180.327 202.813C179.682 202.813 179.16 203.426 179.16 204.182C179.16 204.938 179.682 205.551 180.327 205.551C180.971 205.551 181.493 204.938 181.493 204.182Z" fill="#FA1E4E"/>
<path d="M285.985 298.326C285.985 297.485 285.404 296.803 284.688 296.803C283.971 296.803 283.391 297.485 283.391 298.326C283.391 299.166 283.971 299.848 284.688 299.848C285.404 299.848 285.985 299.166 285.985 298.326Z" fill="#FA1E4E"/>
<path d="M348.774 346.725C348.774 346.018 348.286 345.446 347.684 345.446C347.082 345.446 346.594 346.018 346.594 346.725C346.594 347.431 347.082 348.004 347.684 348.004C348.286 348.004 348.774 347.431 348.774 346.725Z" fill="#FA1E4E"/>
<path d="M204.873 411.319C204.873 410.534 204.331 409.899 203.663 409.899C202.995 409.899 202.453 410.534 202.453 411.319C202.453 412.103 202.995 412.738 203.663 412.738C204.331 412.738 204.873 412.103 204.873 411.319Z" fill="#FA1E4E"/>
<path d="M219.619 422.588C219.619 421.804 219.077 421.168 218.409 421.168C217.741 421.168 217.199 421.804 217.199 422.588C217.199 423.372 217.741 424.008 218.409 424.008C219.077 424.008 219.619 423.372 219.619 422.588Z" fill="#FA1E4E"/>
<path d="M267.267 354.746C267.267 353.976 266.735 353.352 266.079 353.352C265.423 353.352 264.891 353.976 264.891 354.746C264.891 355.516 265.423 356.141 266.079 356.141C266.735 356.141 267.267 355.516 267.267 354.746Z" fill="#FA1E4E"/>
<path d="M265.307 19.1496C265.307 18.4361 264.814 17.8577 264.206 17.8577C263.598 17.8577 263.105 18.4361 263.105 19.1496C263.105 19.8631 263.598 20.4414 264.206 20.4414C264.814 20.4414 265.307 19.8631 265.307 19.1496Z" fill="#FA1E4E"/>
<path d="M252.464 23.9347C252.464 23.2212 251.971 22.6428 251.363 22.6428C250.755 22.6428 250.262 23.2212 250.262 23.9347C250.262 24.6482 250.755 25.2266 251.363 25.2266C251.971 25.2266 252.464 24.6482 252.464 23.9347Z" fill="#FA1E4E"/>
<path d="M215.761 403.964C215.761 403.187 215.225 402.557 214.562 402.557C213.9 402.557 213.363 403.187 213.363 403.964C213.363 404.741 213.9 405.371 214.562 405.371C215.225 405.371 215.761 404.741 215.761 403.964Z" fill="#FA1E4E"/>
<path d="M320.704 508.643C320.704 507.936 320.216 507.364 319.613 507.364C319.011 507.364 318.523 507.936 318.523 508.643C318.523 509.349 319.011 509.922 319.613 509.922C320.216 509.922 320.704 509.349 320.704 508.643Z" fill="#FA1E4E"/>
<path d="M289.625 556.51C289.625 555.804 289.137 555.231 288.535 555.231C287.933 555.231 287.445 555.804 287.445 556.51C287.445 557.216 287.933 557.789 288.535 557.789C289.137 557.789 289.625 557.216 289.625 556.51Z" fill="#FA1E4E"/>
<path d="M402.063 564.276C402.063 563.569 401.575 562.996 400.973 562.996C400.371 562.996 399.883 563.569 399.883 564.276C399.883 564.982 400.371 565.555 400.973 565.555C401.575 565.555 402.063 564.982 402.063 564.276Z" fill="#FA1E4E"/>
<path d="M426.036 406.459C426.036 405.753 425.548 405.18 424.946 405.18C424.344 405.18 423.855 405.753 423.855 406.459C423.855 407.166 424.344 407.738 424.946 407.738C425.548 407.738 426.036 407.166 426.036 406.459Z" fill="#FA1E4E"/>
<path d="M91.7934 289.217C91.7934 288.511 91.3054 287.938 90.7033 287.938C90.1013 287.938 89.6133 288.511 89.6133 289.217C89.6133 289.923 90.1013 290.496 90.7033 290.496C91.3054 290.496 91.7934 289.923 91.7934 289.217Z" fill="#FA1E4E"/>
<path d="M53.2934 352.135C53.2934 351.429 52.8054 350.856 52.2033 350.856C51.6013 350.856 51.1133 351.429 51.1133 352.135C51.1133 352.841 51.6013 353.414 52.2033 353.414C52.8054 353.414 53.2934 352.841 53.2934 352.135Z" fill="#FA1E4E"/>
<path d="M84.5981 405.272C84.5981 404.565 84.11 403.993 83.508 403.993C82.906 403.993 82.418 404.565 82.418 405.272C82.418 405.978 82.906 406.551 83.508 406.551C84.11 406.551 84.5981 405.978 84.5981 405.272Z" fill="#FA1E4E"/>
<path d="M115.61 324.494C115.61 323.788 115.122 323.215 114.52 323.215C113.918 323.215 113.43 323.788 113.43 324.494C113.43 325.201 113.918 325.773 114.52 325.773C115.122 325.773 115.61 325.201 115.61 324.494Z" fill="#FA1E4E"/>
<path d="M8.89496 43.0959C8.89496 42.3895 8.40692 41.8168 7.8049 41.8168C7.20288 41.8168 6.71484 42.3895 6.71484 43.0959C6.71484 43.8023 7.20288 44.375 7.8049 44.375C8.40692 44.375 8.89496 43.8023 8.89496 43.0959Z" fill="#FA1E4E"/>
<path d="M61.934 5.5803C61.934 4.87388 61.446 4.30122 60.844 4.30122C60.2419 4.30122 59.7539 4.87388 59.7539 5.5803C59.7539 6.28671 60.2419 6.85938 60.844 6.85938C61.446 6.85938 61.934 6.28671 61.934 5.5803Z" fill="#FA1E4E"/>
<path d="M68.0746 159.889C68.0746 159.182 67.5866 158.61 66.9846 158.61C66.3826 158.61 65.8945 159.182 65.8945 159.889C65.8945 160.595 66.3826 161.168 66.9846 161.168C67.5866 161.168 68.0746 160.595 68.0746 159.889Z" fill="#FA1E4E"/>
<path d="M54.4027 318.162C54.4027 317.456 53.9147 316.883 53.3127 316.883C52.7107 316.883 52.2227 317.456 52.2227 318.162C52.2227 318.869 52.7107 319.441 53.3127 319.441C53.9147 319.441 54.4027 318.869 54.4027 318.162Z" fill="#FA1E4E"/>
<path d="M53.2934 384.893C53.2934 384.186 52.8054 383.614 52.2033 383.614C51.6013 383.614 51.1133 384.186 51.1133 384.893C51.1133 385.599 51.6013 386.172 52.2033 386.172C52.8054 386.172 53.2934 385.599 53.2934 384.893Z" fill="#FA1E4E"/>
<path d="M129.081 377.308C129.081 376.58 128.579 375.99 127.959 375.99C127.339 375.99 126.836 376.58 126.836 377.308C126.836 378.035 127.339 378.625 127.959 378.625C128.579 378.625 129.081 378.035 129.081 377.308Z" fill="#FA1E4E"/>
<path d="M15.7504 378.678C15.7504 377.972 15.2624 377.399 14.6604 377.399C14.0583 377.399 13.5703 377.972 13.5703 378.678C13.5703 379.384 14.0583 379.957 14.6604 379.957C15.2624 379.957 15.7504 379.384 15.7504 378.678Z" fill="#FA1E4E"/>
<path d="M28.852 532.959C28.852 532.253 28.364 531.68 27.7619 531.68C27.1599 531.68 26.6719 532.253 26.6719 532.959C26.6719 533.666 27.1599 534.238 27.7619 534.238C28.364 534.238 28.852 533.666 28.852 532.959Z" fill="#FA1E4E"/>
<path d="M111.719 550.42C111.719 549.714 111.231 549.141 110.629 549.141C110.027 549.141 109.539 549.714 109.539 550.42C109.539 551.127 110.027 551.699 110.629 551.699C111.231 551.699 111.719 551.127 111.719 550.42Z" fill="#FA1E4E"/>
<path d="M177.753 530.136C177.753 529.408 177.251 528.818 176.631 528.818C176.01 528.818 175.508 529.408 175.508 530.136C175.508 530.863 176.01 531.453 176.631 531.453C177.251 531.453 177.753 530.863 177.753 530.136Z" fill="#FA1E4E"/>
<path d="M288.415 189.116C288.415 188.262 287.825 187.569 287.096 187.569C286.368 187.569 285.777 188.262 285.777 189.116C285.777 189.971 286.368 190.664 287.096 190.664C287.825 190.664 288.415 189.971 288.415 189.116Z" fill="#FA1E4E"/>
<path d="M428.671 303.454C428.671 302.741 428.178 302.162 427.57 302.162C426.962 302.162 426.469 302.741 426.469 303.454C426.469 304.168 426.962 304.746 427.57 304.746C428.178 304.746 428.671 304.168 428.671 303.454Z" fill="#FA1E4E"/>
<path d="M247.374 575.376C247.374 574.663 246.881 574.084 246.273 574.084C245.665 574.084 245.172 574.663 245.172 575.376C245.172 576.09 245.665 576.668 246.273 576.668C246.881 576.668 247.374 576.09 247.374 575.376Z" fill="#FA1E4E"/>
<path d="M182.921 578.048C182.921 577.334 182.428 576.756 181.82 576.756C181.212 576.756 180.719 577.334 180.719 578.048C180.719 578.761 181.212 579.34 181.82 579.34C182.428 579.34 182.921 578.761 182.921 578.048Z" fill="#FA1E4E"/>
<path d="M174.735 369.659C174.735 368.903 174.213 368.29 173.569 368.29C172.925 368.29 172.402 368.903 172.402 369.659C172.402 370.415 172.925 371.027 173.569 371.027C174.213 371.027 174.735 370.415 174.735 369.659Z" fill="#FA1E4E"/>
<path d="M217.136 349.218C217.136 348.441 216.6 347.811 215.937 347.811C215.275 347.811 214.738 348.441 214.738 349.218C214.738 349.995 215.275 350.625 215.937 350.625C216.6 350.625 217.136 349.995 217.136 349.218Z" fill="#FA1E4E"/>
<path d="M392.297 133.069C392.297 132.362 391.809 131.789 391.207 131.789C390.605 131.789 390.117 132.362 390.117 133.069C390.117 133.775 390.605 134.348 391.207 134.348C391.809 134.348 392.297 133.775 392.297 133.069Z" fill="#FA1E4E"/>
<path d="M433.45 47.5608C433.45 46.8544 432.962 46.2817 432.36 46.2817C431.758 46.2817 431.27 46.8544 431.27 47.5608C431.27 48.2672 431.758 48.8398 432.36 48.8398C432.962 48.8398 433.45 48.2672 433.45 47.5608Z" fill="#FA1E4E"/>
<path d="M440.098 156.614C440.098 155.823 439.551 155.182 438.877 155.182C438.203 155.182 437.656 155.823 437.656 156.614C437.656 157.405 438.203 158.047 438.877 158.047C439.551 158.047 440.098 157.405 440.098 156.614Z" fill="#FA1E4E"/>
<path d="M421.305 165.815C421.305 165.059 420.783 164.446 420.139 164.446C419.495 164.446 418.973 165.059 418.973 165.815C418.973 166.571 419.495 167.184 420.139 167.184C420.783 167.184 421.305 166.571 421.305 165.815Z" fill="#FA1E4E"/>
<path d="M444.686 372.947C444.686 372.163 444.144 371.528 443.476 371.528C442.807 371.528 442.266 372.163 442.266 372.947C442.266 373.732 442.807 374.367 443.476 374.367C444.144 374.367 444.686 373.732 444.686 372.947Z" fill="#FA1E4E"/>
<path d="M279.977 565.631C279.977 564.925 279.489 564.352 278.887 564.352C278.285 564.352 277.797 564.925 277.797 565.631C277.797 566.337 278.285 566.91 278.887 566.91C279.489 566.91 279.977 566.337 279.977 565.631Z" fill="#FA1E4E"/>
<path d="M159.254 350.104C159.254 349.397 158.766 348.825 158.164 348.825C157.562 348.825 157.074 349.397 157.074 350.104C157.074 350.81 157.562 351.383 158.164 351.383C158.766 351.383 159.254 350.81 159.254 350.104Z" fill="#FA1E4E"/>
<path d="M189.309 337.006C189.309 336.3 188.821 335.727 188.219 335.727C187.617 335.727 187.129 336.3 187.129 337.006C187.129 337.712 187.617 338.285 188.219 338.285C188.821 338.285 189.309 337.712 189.309 337.006Z" fill="#FA1E4E"/>
<path d="M216.594 263.393C216.594 262.686 216.106 262.114 215.504 262.114C214.902 262.114 214.414 262.686 214.414 263.393C214.414 264.099 214.902 264.672 215.504 264.672C216.106 264.672 216.594 264.099 216.594 263.393Z" fill="#FA1E4E"/>
<path d="M77.7739 2.93186C77.7739 2.22544 77.2858 1.65278 76.6838 1.65278C76.0818 1.65278 75.5938 2.22544 75.5938 2.93186C75.5938 3.63827 76.0818 4.21094 76.6838 4.21094C77.2858 4.21094 77.7739 3.63827 77.7739 2.93186Z" fill="#FA1E4E"/>
<path d="M331.606 250.846C331.606 250.14 331.118 249.567 330.516 249.567C329.914 249.567 329.426 250.14 329.426 250.846C329.426 251.552 329.914 252.125 330.516 252.125C331.118 252.125 331.606 251.552 331.606 250.846Z" fill="#FA1E4E"/>
<path d="M293.106 313.764C293.106 313.057 292.618 312.485 292.016 312.485C291.414 312.485 290.926 313.057 290.926 313.764C290.926 314.47 291.414 315.043 292.016 315.043C292.618 315.043 293.106 314.47 293.106 313.764Z" fill="#FA1E4E"/>
<path d="M324.411 366.901C324.411 366.194 323.923 365.621 323.321 365.621C322.719 365.621 322.23 366.194 322.23 366.901C322.23 367.607 322.719 368.18 323.321 368.18C323.923 368.18 324.411 367.607 324.411 366.901Z" fill="#FA1E4E"/>
<path d="M355.422 286.123C355.422 285.417 354.934 284.844 354.332 284.844C353.73 284.844 353.242 285.417 353.242 286.123C353.242 286.83 353.73 287.402 354.332 287.402C354.934 287.402 355.422 286.83 355.422 286.123Z" fill="#FA1E4E"/>
<path d="M194.267 17.8867C194.267 17.1662 193.769 16.5821 193.155 16.5821C192.541 16.5821 192.043 17.1662 192.043 17.8867C192.043 18.6073 192.541 19.1914 193.155 19.1914C193.769 19.1914 194.267 18.6073 194.267 17.8867Z" fill="#FA1E4E"/>
<path d="M214.033 92.9417C214.033 92.1717 213.501 91.5475 212.844 91.5475C212.188 91.5475 211.656 92.1717 211.656 92.9417C211.656 93.7117 212.188 94.3359 212.844 94.3359C213.501 94.3359 214.033 93.7117 214.033 92.9417Z" fill="#FA1E4E"/>
<path d="M248.707 4.72483C248.707 4.01841 248.219 3.44575 247.617 3.44575C247.015 3.44575 246.527 4.01841 246.527 4.72483C246.527 5.43124 247.015 6.00391 247.617 6.00391C248.219 6.00391 248.707 5.43124 248.707 4.72483Z" fill="#FA1E4E"/>
<path d="M307.887 121.518C307.887 120.811 307.399 120.239 306.797 120.239C306.195 120.239 305.707 120.811 305.707 121.518C305.707 122.224 306.195 122.797 306.797 122.797C307.399 122.797 307.887 122.224 307.887 121.518Z" fill="#FA1E4E"/>
<path d="M294.215 279.791C294.215 279.085 293.727 278.512 293.125 278.512C292.523 278.512 292.035 279.085 292.035 279.791C292.035 280.498 292.523 281.07 293.125 281.07C293.727 281.07 294.215 280.498 294.215 279.791Z" fill="#FA1E4E"/>
<path d="M293.106 346.522C293.106 345.815 292.618 345.243 292.016 345.243C291.414 345.243 290.926 345.815 290.926 346.522C290.926 347.228 291.414 347.801 292.016 347.801C292.618 347.801 293.106 347.228 293.106 346.522Z" fill="#FA1E4E"/>
<path d="M368.894 338.94C368.894 338.213 368.391 337.623 367.771 337.623C367.151 337.623 366.648 338.213 366.648 338.94C366.648 339.668 367.151 340.258 367.771 340.258C368.391 340.258 368.894 339.668 368.894 338.94Z" fill="#FA1E4E"/>
<path d="M61.7192 412.971C61.7192 412.265 61.2311 411.692 60.6291 411.692C60.0271 411.692 59.5391 412.265 59.5391 412.971C59.5391 413.677 60.0271 414.25 60.6291 414.25C61.2311 414.25 61.7192 413.677 61.7192 412.971Z" fill="#FA1E4E"/>
<path d="M54.0434 403.979C54.0434 403.272 53.5554 402.7 52.9533 402.7C52.3513 402.7 51.8633 403.272 51.8633 403.979C51.8633 404.685 52.3513 405.258 52.9533 405.258C53.5554 405.258 54.0434 404.685 54.0434 403.979Z" fill="#FA1E4E"/>
<path d="M75.7387 222.682C75.7387 221.975 75.2506 221.403 74.6486 221.403C74.0466 221.403 73.5586 221.975 73.5586 222.682C73.5586 223.388 74.0466 223.961 74.6486 223.961C75.2506 223.961 75.7387 223.388 75.7387 222.682Z" fill="#FA1E4E"/>
<path d="M11.4145 47.549C11.4145 46.8426 10.9265 46.27 10.3244 46.27C9.72241 46.27 9.23438 46.8426 9.23438 47.549C9.23438 48.2555 9.72241 48.8281 10.3244 48.8281C10.9265 48.8281 11.4145 48.2555 11.4145 47.549Z" fill="#FA1E4E"/>
<path d="M5.2973 119.932C5.2973 119.225 4.80926 118.653 4.20724 118.653C3.60522 118.653 3.11719 119.225 3.11719 119.932C3.11719 120.638 3.60522 121.211 4.20724 121.211C4.80926 121.211 5.2973 120.638 5.2973 119.932Z" fill="#FA1E4E"/>
<path d="M115.402 200.692C115.402 199.95 114.89 199.349 114.258 199.349C113.626 199.349 113.113 199.95 113.113 200.692C113.113 201.434 113.626 202.035 114.258 202.035C114.89 202.035 115.402 201.434 115.402 200.692Z" fill="#FA1E4E"/>
<path d="M207.293 246.24C207.293 245.534 206.805 244.961 206.203 244.961C205.601 244.961 205.113 245.534 205.113 246.24C205.113 246.947 205.601 247.52 206.203 247.52C206.805 247.52 207.293 246.947 207.293 246.24Z" fill="#FA1E4E"/>
<path d="M255.563 340.307C255.563 339.6 255.075 339.028 254.473 339.028C253.871 339.028 253.383 339.6 253.383 340.307C253.383 341.013 253.871 341.586 254.473 341.586C255.075 341.586 255.563 341.013 255.563 340.307Z" fill="#FA1E4E"/>
<path d="M128.907 451.24C128.907 450.534 128.419 449.961 127.817 449.961C127.215 449.961 126.727 450.534 126.727 451.24C126.727 451.947 127.215 452.52 127.817 452.52C128.419 452.52 128.907 451.947 128.907 451.24Z" fill="#FA1E4E"/>
<path d="M187.719 586.303C187.719 585.597 187.231 585.024 186.629 585.024C186.027 585.024 185.539 585.597 185.539 586.303C185.539 587.009 186.027 587.582 186.629 587.582C187.231 587.582 187.719 587.009 187.719 586.303Z" fill="#FA1E4E"/>
<path d="M268.664 494.588C268.664 493.882 268.176 493.309 267.574 493.309C266.972 493.309 266.484 493.882 266.484 494.588C266.484 495.295 266.972 495.867 267.574 495.867C268.176 495.867 268.664 495.295 268.664 494.588Z" fill="#FA1E4E"/>
<path d="M351.532 512.049C351.532 511.343 351.044 510.77 350.442 510.77C349.84 510.77 349.352 511.343 349.352 512.049C349.352 512.755 349.84 513.328 350.442 513.328C351.044 513.328 351.532 512.755 351.532 512.049Z" fill="#FA1E4E"/>
<path d="M417.566 491.761C417.566 491.033 417.063 490.443 416.443 490.443C415.823 490.443 415.32 491.033 415.32 491.761C415.32 492.488 415.823 493.078 416.443 493.078C417.063 493.078 417.566 492.488 417.566 491.761Z" fill="#FA1E4E"/>
<path d="M382.475 571.696C382.475 570.983 381.982 570.405 381.374 570.405C380.766 570.405 380.273 570.983 380.273 571.696C380.273 572.41 380.766 572.988 381.374 572.988C381.982 572.988 382.475 572.41 382.475 571.696Z" fill="#FA1E4E"/>
<path d="M416.585 583.575C416.585 582.862 416.092 582.283 415.484 582.283C414.876 582.283 414.383 582.862 414.383 583.575C414.383 584.289 414.876 584.867 415.484 584.867C416.092 584.867 416.585 584.289 416.585 583.575Z" fill="#FA1E4E"/>
<path d="M187 491.647C187 490.94 186.512 490.368 185.91 490.368C185.308 490.368 184.82 490.94 184.82 491.647C184.82 492.353 185.308 492.926 185.91 492.926C186.512 492.926 187 492.353 187 491.647Z" fill="#FA1E4E"/>
<path d="M24.145 574.049C24.145 573.343 23.6569 572.77 23.0549 572.77C22.4529 572.77 21.9648 573.343 21.9648 574.049C21.9648 574.755 22.4529 575.328 23.0549 575.328C23.6569 575.328 24.145 574.755 24.145 574.049Z" fill="#FA1E4E"/>
<path d="M16.645 528.744C16.645 528.038 16.1569 527.465 15.5549 527.465C14.9529 527.465 14.4648 528.038 14.4648 528.744C14.4648 529.451 14.9529 530.023 15.5549 530.023C16.1569 530.023 16.645 529.451 16.645 528.744Z" fill="#FA1E4E"/>
<path d="M23.7192 356.768C23.7192 356.061 23.2311 355.489 22.6291 355.489C22.0271 355.489 21.5391 356.061 21.5391 356.768C21.5391 357.474 22.0271 358.047 22.6291 358.047C23.2311 358.047 23.7192 357.474 23.7192 356.768Z" fill="#FA1E4E"/>
<path d="M38.4028 215.264C38.4028 214.557 37.9147 213.985 37.3127 213.985C36.7107 213.985 36.2227 214.557 36.2227 215.264C36.2227 215.97 36.7107 216.543 37.3127 216.543C37.9147 216.543 38.4028 215.97 38.4028 215.264Z" fill="#FA1E4E"/>
<path d="M422.733 539.677C422.733 538.963 422.24 538.385 421.632 538.385C421.024 538.385 420.531 538.963 420.531 539.677C420.531 540.39 421.024 540.969 421.632 540.969C422.24 540.969 422.733 540.39 422.733 539.677Z" fill="#FA1E4E"/>
<path d="M414.548 331.288C414.548 330.532 414.025 329.919 413.381 329.919C412.737 329.919 412.215 330.532 412.215 331.288C412.215 332.043 412.737 332.656 413.381 332.656C414.025 332.656 414.548 332.043 414.548 331.288Z" fill="#FA1E4E"/>
<g filter="url(#filter1_f_2464_17205)">
<path d="M91.4457 144.576C91.4457 143.87 90.9577 143.297 90.3557 143.297C89.7537 143.297 89.2656 143.87 89.2656 144.576C89.2656 145.283 89.7537 145.855 90.3557 145.855C90.9577 145.855 91.4457 145.283 91.4457 144.576Z" fill="#FA1E4E"/>
<path d="M231.406 2.04753C231.406 1.30579 230.894 0.704513 230.262 0.704513C229.63 0.704513 229.117 1.30579 229.117 2.04753C229.117 2.78927 229.63 3.39063 230.262 3.39063C230.894 3.39063 231.406 2.78927 231.406 2.04753Z" fill="#FA1E4E"/>
<path d="M132.598 59.0685C132.598 58.3621 132.11 57.7894 131.508 57.7894C130.906 57.7894 130.418 58.3621 130.418 59.0685C130.418 59.775 130.906 60.3477 131.508 60.3477C132.11 60.3477 132.598 59.775 132.598 59.0685Z" fill="#FA1E4E"/>
<path d="M162.071 10.7209C162.071 10.0145 161.583 9.44184 160.981 9.44184C160.379 9.44184 159.891 10.0145 159.891 10.7209C159.891 11.4273 160.379 12 160.981 12C161.583 12 162.071 11.4273 162.071 10.7209Z" fill="#FA1E4E"/>
<path d="M269.79 103.096C269.79 102.156 269.141 101.394 268.34 101.394C267.54 101.394 266.891 102.156 266.891 103.096C266.891 104.035 267.54 104.797 268.34 104.797C269.141 104.797 269.79 104.035 269.79 103.096Z" fill="#FA1E4E"/>
<path d="M309.033 129.139C309.033 128.306 308.458 127.63 307.747 127.63C307.037 127.63 306.461 128.306 306.461 129.139C306.461 129.973 307.037 130.648 307.747 130.648C308.458 130.648 309.033 129.973 309.033 129.139Z" fill="#FA1E4E"/>
<path d="M354.839 164.696C354.839 163.983 354.346 163.405 353.738 163.405C353.13 163.405 352.637 163.983 352.637 164.696C352.637 165.41 353.13 165.988 353.738 165.988C354.346 165.988 354.839 165.41 354.839 164.696Z" fill="#FA1E4E"/>
<path d="M407.039 50.9201C407.039 50.2137 406.551 49.6411 405.949 49.6411C405.347 49.6411 404.859 50.2137 404.859 50.9201C404.859 51.6266 405.347 52.1992 405.949 52.1992C406.551 52.1992 407.039 51.6266 407.039 50.9201Z" fill="#FA1E4E"/>
<path d="M320.11 32.6704C320.11 31.9146 319.588 31.3019 318.944 31.3019C318.299 31.3019 317.777 31.9146 317.777 32.6704C317.777 33.4263 318.299 34.0391 318.944 34.0391C319.588 34.0391 320.11 33.4263 320.11 32.6704Z" fill="#FA1E4E"/>
<path d="M332.872 189.062C332.872 188.342 332.374 187.758 331.76 187.758C331.146 187.758 330.648 188.342 330.648 189.062C330.648 189.783 331.146 190.367 331.76 190.367C332.374 190.367 332.872 189.783 332.872 189.062Z" fill="#FA1E4E"/>
<path d="M306.918 264.631C306.918 263.925 306.43 263.352 305.828 263.352C305.226 263.352 304.738 263.925 304.738 264.631C304.738 265.337 305.226 265.91 305.828 265.91C306.43 265.91 306.918 265.337 306.918 264.631Z" fill="#FA1E4E"/>
<path d="M294.078 267.011C294.078 266.283 293.575 265.693 292.955 265.693C292.335 265.693 291.832 266.283 291.832 267.011C291.832 267.738 292.335 268.328 292.955 268.328C293.575 268.328 294.078 267.738 294.078 267.011Z" fill="#FA1E4E"/>
<path d="M253.137 334.291C253.137 333.585 252.649 333.012 252.047 333.012C251.445 333.012 250.957 333.585 250.957 334.291C250.957 334.998 251.445 335.57 252.047 335.57C252.649 335.57 253.137 334.998 253.137 334.291Z" fill="#FA1E4E"/>
<path d="M230.775 303.004C230.775 302.234 230.243 301.61 229.587 301.61C228.93 301.61 228.398 302.234 228.398 303.004C228.398 303.774 228.93 304.398 229.587 304.398C230.243 304.398 230.775 303.774 230.775 303.004Z" fill="#FA1E4E"/>
<path d="M186.172 293.501C186.172 292.71 185.626 292.068 184.951 292.068C184.277 292.068 183.73 292.71 183.73 293.501C183.73 294.292 184.277 294.934 184.951 294.934C185.626 294.934 186.172 294.292 186.172 293.501Z" fill="#FA1E4E"/>
<path d="M180.921 121.629C180.921 120.781 180.335 120.094 179.613 120.094C178.89 120.094 178.305 120.781 178.305 121.629C178.305 122.477 178.89 123.164 179.613 123.164C180.335 123.164 180.921 122.477 180.921 121.629Z" fill="#FA1E4E"/>
<path d="M139.246 168.122C139.246 167.331 138.7 166.69 138.026 166.69C137.351 166.69 136.805 167.331 136.805 168.122C136.805 168.913 137.351 169.555 138.026 169.555C138.7 169.555 139.246 168.913 139.246 168.122Z" fill="#FA1E4E"/>
<path d="M120.454 177.323C120.454 176.567 119.932 175.954 119.287 175.954C118.643 175.954 118.121 176.567 118.121 177.323C118.121 178.079 118.643 178.691 119.287 178.691C119.932 178.691 120.454 178.079 120.454 177.323Z" fill="#FA1E4E"/>
<path d="M224.946 271.462C224.946 270.622 224.365 269.94 223.649 269.94C222.932 269.94 222.352 270.622 222.352 271.462C222.352 272.303 222.932 272.984 223.649 272.984C224.365 272.984 224.946 272.303 224.946 271.462Z" fill="#FA1E4E"/>
<path d="M287.735 319.862C287.735 319.155 287.247 318.582 286.645 318.582C286.043 318.582 285.555 319.155 285.555 319.862C285.555 320.568 286.043 321.141 286.645 321.141C287.247 321.141 287.735 320.568 287.735 319.862Z" fill="#FA1E4E"/>
<path d="M420.09 263.916C420.09 263.21 419.602 262.637 419 262.637C418.398 262.637 417.91 263.21 417.91 263.916C417.91 264.623 418.398 265.195 419 265.195C419.602 265.195 420.09 264.623 420.09 263.916Z" fill="#FA1E4E"/>
<path d="M416.524 319.596C416.524 318.889 416.036 318.317 415.434 318.317C414.832 318.317 414.344 318.889 414.344 319.596C414.344 320.302 414.832 320.875 415.434 320.875C416.036 320.875 416.524 320.302 416.524 319.596Z" fill="#FA1E4E"/>
<path d="M436.426 244.705C436.426 243.999 435.938 243.426 435.336 243.426C434.734 243.426 434.246 243.999 434.246 244.705C434.246 245.412 434.734 245.984 435.336 245.984C435.938 245.984 436.426 245.412 436.426 244.705Z" fill="#FA1E4E"/>
<path d="M143.834 384.455C143.834 383.671 143.292 383.035 142.624 383.035C141.956 383.035 141.414 383.671 141.414 384.455C141.414 385.239 141.956 385.875 142.624 385.875C143.292 385.875 143.834 385.239 143.834 384.455Z" fill="#FA1E4E"/>
<path d="M158.58 395.725C158.58 394.941 158.038 394.305 157.37 394.305C156.702 394.305 156.16 394.941 156.16 395.725C156.16 396.509 156.702 397.145 157.37 397.145C158.038 397.145 158.58 396.509 158.58 395.725Z" fill="#FA1E4E"/>
<path d="M206.228 327.883C206.228 327.113 205.696 326.489 205.04 326.489C204.384 326.489 203.852 327.113 203.852 327.883C203.852 328.653 204.384 329.277 205.04 329.277C205.696 329.277 206.228 328.653 206.228 327.883Z" fill="#FA1E4E"/>
<path d="M154.722 377.101C154.722 376.324 154.186 375.694 153.523 375.694C152.861 375.694 152.324 376.324 152.324 377.101C152.324 377.878 152.861 378.508 153.523 378.508C154.186 378.508 154.722 377.878 154.722 377.101Z" fill="#FA1E4E"/>
<path d="M259.664 481.783C259.664 481.077 259.176 480.504 258.574 480.504C257.972 480.504 257.484 481.077 257.484 481.783C257.484 482.49 257.972 483.063 258.574 483.063C259.176 483.063 259.664 482.49 259.664 481.783Z" fill="#FA1E4E"/>
<path d="M228.586 529.647C228.586 528.94 228.098 528.368 227.496 528.368C226.894 528.368 226.406 528.94 226.406 529.647C226.406 530.353 226.894 530.926 227.496 530.926C228.098 530.926 228.586 530.353 228.586 529.647Z" fill="#FA1E4E"/>
<path d="M341.024 537.408C341.024 536.702 340.536 536.129 339.934 536.129C339.332 536.129 338.844 536.702 338.844 537.408C338.844 538.115 339.332 538.688 339.934 538.688C340.536 538.688 341.024 538.115 341.024 537.408Z" fill="#FA1E4E"/>
<path d="M364.997 379.596C364.997 378.89 364.508 378.317 363.906 378.317C363.304 378.317 362.816 378.89 362.816 379.596C362.816 380.302 363.304 380.875 363.906 380.875C364.508 380.875 364.997 380.302 364.997 379.596Z" fill="#FA1E4E"/>
<path d="M30.7543 262.354C30.7543 261.647 30.2663 261.075 29.6643 261.075C29.0623 261.075 28.5742 261.647 28.5742 262.354C28.5742 263.06 29.0623 263.633 29.6643 263.633C30.2663 263.633 30.7543 263.06 30.7543 262.354Z" fill="#FA1E4E"/>
<path d="M23.559 378.405C23.559 377.698 23.071 377.125 22.4689 377.125C21.8669 377.125 21.3789 377.698 21.3789 378.405C21.3789 379.111 21.8669 379.684 22.4689 379.684C23.071 379.684 23.559 379.111 23.559 378.405Z" fill="#FA1E4E"/>
<path d="M54.5707 297.631C54.5707 296.925 54.0827 296.352 53.4807 296.352C52.8787 296.352 52.3906 296.925 52.3906 297.631C52.3906 298.337 52.8787 298.91 53.4807 298.91C54.0827 298.91 54.5707 298.337 54.5707 297.631Z" fill="#FA1E4E"/>
<path d="M7.03558 133.026C7.03558 132.319 6.54755 131.747 5.94552 131.747C5.3435 131.747 4.85547 132.319 4.85547 133.026C4.85547 133.732 5.3435 134.305 5.94552 134.305C6.54755 134.305 7.03558 133.732 7.03558 133.026Z" fill="#FA1E4E"/>
<path d="M68.0424 350.444C68.0424 349.717 67.5397 349.127 66.9196 349.127C66.2995 349.127 65.7969 349.717 65.7969 350.444C65.7969 351.172 66.2995 351.762 66.9196 351.762C67.5397 351.762 68.0424 351.172 68.0424 350.444Z" fill="#FA1E4E"/>
<path d="M50.6801 523.557C50.6801 522.85 50.1921 522.278 49.5901 522.278C48.988 522.278 48.5 522.85 48.5 523.557C48.5 524.263 48.988 524.836 49.5901 524.836C50.1921 524.836 50.6801 524.263 50.6801 523.557Z" fill="#FA1E4E"/>
<path d="M116.714 503.272C116.714 502.545 116.212 501.955 115.591 501.955C114.971 501.955 114.469 502.545 114.469 503.272C114.469 504 114.971 504.59 115.591 504.59C116.212 504.59 116.714 504 116.714 503.272Z" fill="#FA1E4E"/>
<path d="M81.6238 583.2C81.6238 582.487 81.1309 581.908 80.5228 581.908C79.9148 581.908 79.4219 582.487 79.4219 583.2C79.4219 583.914 79.9148 584.492 80.5228 584.492C81.1309 584.492 81.6238 583.914 81.6238 583.2Z" fill="#FA1E4E"/>
<path d="M227.376 162.253C227.376 161.398 226.786 160.705 226.057 160.705C225.329 160.705 224.738 161.398 224.738 162.253C224.738 163.108 225.329 163.801 226.057 163.801C226.786 163.801 227.376 163.108 227.376 162.253Z" fill="#FA1E4E"/>
<path d="M367.632 276.587C367.632 275.873 367.139 275.295 366.531 275.295C365.923 275.295 365.43 275.873 365.43 276.587C365.43 277.3 365.923 277.879 366.531 277.879C367.139 277.879 367.632 277.3 367.632 276.587Z" fill="#FA1E4E"/>
<path d="M352.176 575.358C352.176 574.651 351.688 574.079 351.086 574.079C350.484 574.079 349.996 574.651 349.996 575.358C349.996 576.064 350.484 576.637 351.086 576.637C351.688 576.637 352.176 576.064 352.176 575.358Z" fill="#FA1E4E"/>
<path d="M186.335 548.513C186.335 547.799 185.842 547.221 185.234 547.221C184.626 547.221 184.133 547.799 184.133 548.513C184.133 549.226 184.626 549.805 185.234 549.805C185.842 549.805 186.335 549.226 186.335 548.513Z" fill="#FA1E4E"/>
<path d="M121.882 551.185C121.882 550.471 121.389 549.893 120.781 549.893C120.173 549.893 119.68 550.471 119.68 551.185C119.68 551.898 120.173 552.477 120.781 552.477C121.389 552.477 121.882 551.898 121.882 551.185Z" fill="#FA1E4E"/>
<path d="M113.696 342.795C113.696 342.04 113.174 341.427 112.53 341.427C111.885 341.427 111.363 342.04 111.363 342.795C111.363 343.551 111.885 344.164 112.53 344.164C113.174 344.164 113.696 343.551 113.696 342.795Z" fill="#FA1E4E"/>
<path d="M156.097 322.359C156.097 321.582 155.56 320.952 154.898 320.952C154.236 320.952 153.699 321.582 153.699 322.359C153.699 323.136 154.236 323.766 154.898 323.766C155.56 323.766 156.097 323.136 156.097 322.359Z" fill="#FA1E4E"/>
</g>
</g>
</g>
<g style="mix-blend-mode:color">
<path fill-rule="evenodd" clip-rule="evenodd" d="M194.74 663.186L188.101 673.592L177.376 679.312L168.279 693.043L203.933 734.099L204.169 734.371L203.986 734.681L162.805 804.392L182.312 796.154L253.095 682.286L240.846 670.038L233.995 663.186H194.74ZM161.257 805.046L202.942 734.483L167.706 693.908L128.69 752.799V758.86L94.2432 810.531V820.695L18 940.192H35.8714L49.7977 917.93L92.9715 848.915L93.2254 848.509L93.6675 848.325L108.005 842.366L120.064 822.745L120.315 822.336L120.758 822.149L161.257 805.046ZM158.694 809.385L149.367 825.173L112.735 840.4L122.368 824.726L158.694 809.385ZM150.907 824.533L160.242 808.731L179.567 800.57L169.466 816.819L150.907 824.533ZM146.823 829.479L110.053 844.763L95.5212 868.409L95.2855 868.792L94.8775 868.982L88.3956 872.007L62.9107 913.42L62.7116 913.744L62.3825 913.934L52.1426 919.838L39.41 940.192H74.0341L79.0864 945.244H112.156L117.208 940.192H128.368L140.325 921.311L126.826 863.603L126.78 863.408L126.882 863.235L146.823 829.479ZM141.074 920.126L127.845 863.571L148.363 828.84L171.062 819.404L171.506 819.22L171.76 818.811L184.608 798.143L256.271 682.859L256.899 681.848L256.058 681.007L242.968 667.917L238.237 663.186H276.296L247.44 709.142L245.923 711.558L247.984 713.531L263.208 728.107L184.272 851.91L141.074 920.126ZM574.475 913.976L570.499 907.745H479.593H478.667L478.067 907.038L460.754 886.617H351.909H351.007L350.41 885.941L320.343 851.91H184.272L214.182 893.803H200.85L221.165 923.567L241.771 932.446L246.092 938.497L256.586 928.003L256.879 927.71H257.293H302.808L315.835 914.683L316.126 914.393L316.537 914.39C360.094 914.161 426.189 913.885 482.91 913.805C511.27 913.765 537.288 913.773 556.976 913.861C563.56 913.89 569.445 913.928 574.475 913.976ZM575.76 915.989C570.473 915.935 564.146 915.893 556.967 915.861C537.285 915.773 511.271 915.765 482.912 915.805C426.373 915.885 360.519 916.159 316.959 916.388L303.93 929.417L303.637 929.71H303.223H257.707L247.27 940.147L247.302 940.192H259.748L277.868 948H403.082L408.268 942.814L410.699 945.244H443.768L448.82 940.192H591.202L575.76 915.989ZM352.81 882.617L325.681 851.91H424.93H463.072L449.125 828.577L454.378 819.99L449.35 812.255L424.93 851.91L370.146 765.987L367.422 733.696L389.417 702.685L390.051 701.79L389.391 700.914L368.565 673.298V628.33V627.897L368.335 627.531L317.365 546.525L327.87 527.469L455.219 727.065L448.347 736.309L446.886 738.274L448.231 740.32L471.683 775.991L468.948 780.431L475.176 789.513L456.019 820.829L468.868 840.597L503.196 851.91H534.875L567.947 903.745H480.519L463.206 883.324L462.607 882.617H461.68H352.81ZM459.248 733.379L455.425 738.521L475.734 769.412L478.929 764.225L459.248 733.379ZM254.885 710.448L284.561 663.186H304.601L267.045 722.09L254.885 710.448ZM356.274 744.23L304.601 663.186L250.643 575.568L273.369 539.95V529.122L290.822 504.779L298.382 500.747L304.601 491L326.032 524.589L314.311 545.851L313.884 546.625L314.355 547.374L352.786 608.453V688.957V689.132L352.896 689.269L363.824 702.929L366.135 730.326L356.274 744.23ZM353.786 688.781V610.042L365.565 628.762V673.8V674.302L365.868 674.703L386.335 701.844L367.032 729.062L364.808 702.694L364.795 702.542L364.7 702.423L353.786 688.781ZM358.015 746.961L366.526 734.961L368.989 764.173L358.015 746.961ZM449.883 811.39L454.909 819.122L472.988 789.57L467.894 782.143L449.883 811.39ZM455.487 821.697L451.272 828.588L465.212 851.91H500.261L468.274 841.369L455.487 821.697ZM407.619 942.164L405.646 940.192H262.069L278.058 947.081H402.701L407.619 942.164ZM240.74 931.001L214.838 894.722H202.589L221.774 922.829L240.74 931.001ZM95.1618 810.809L128.69 760.516V766.706L95.1618 819.256V810.809ZM105.324 846.729L95.261 850.912L55.5315 914.421L60.5548 911.525L86.0763 870.052L86.312 869.669L86.7194 869.479L93.201 866.454L105.324 846.729Z" fill="url(#paint1_linear_2464_17205)" fill-opacity="0.64"/>
</g>
</g>
<defs>
<filter id="filter0_f_2464_17205" x="-216" y="-522" width="887" height="1656" filterUnits="userSpaceOnUse" color-interpolation-filters="sRGB">
<feFlood flood-opacity="0" result="BackgroundImageFix"/>
<feBlend mode="normal" in="SourceGraphic" in2="BackgroundImageFix" result="shape"/>
<feGaussianBlur stdDeviation="136" result="effect1_foregroundBlur_2464_17205"/>
</filter>
<filter id="filter1_f_2464_17205" x="-341.105" y="-1095.42" width="829.191" height="2347.1" filterUnits="userSpaceOnUse" color-interpolation-filters="sRGB">
<feFlood flood-opacity="0" result="BackgroundImageFix"/>
<feBlend mode="normal" in="SourceGraphic" in2="BackgroundImageFix" result="shape"/>
<feGaussianBlur stdDeviation="2" result="effect1_foregroundBlur_2464_17205"/>
</filter>
<radialGradient id="paint0_radial_2464_17205" cx="0" cy="0" r="1" gradientUnits="userSpaceOnUse" gradientTransform="translate(279.998 183.965) rotate(90) scale(437.046 642.146)">
<stop stop-color="#D9D9D9"/>
<stop offset="1" stop-color="#D9D9D9" stop-opacity="0"/>
</radialGradient>
<linearGradient id="paint1_linear_2464_17205" x1="304.601" y1="491" x2="304.601" y2="948" gradientUnits="userSpaceOnUse">
<stop stop-color="#FA1E4E" stop-opacity="0"/>
<stop offset="1" stop-color="#FA1E4E"/>
</linearGradient>
<clipPath id="clip0_2464_17205">
<rect width="1044" height="453" fill="white" transform="translate(0 1044) rotate(-90)"/>
</clipPath>
</defs>
</svg>
