<svg width="72" height="26" viewBox="0 0 72 26" fill="none" xmlns="http://www.w3.org/2000/svg">
<path d="M31.2513 6.31468H33.9678V17.175H36.6844V3.59959H33.9678C32.4737 3.59959 31.2513 4.82138 31.2513 6.31468Z" fill="white"/>
<path d="M39.401 17.175H42.1176V11.7449C42.1176 10.2516 40.8951 9.02977 39.401 9.02977V17.175Z" fill="white"/>
<path d="M44.8342 9.02977V17.175H47.5507V11.7449H50.2673V14.4599C50.2673 15.9532 51.4898 17.175 52.9839 17.175V11.7449C52.9839 10.2516 51.7614 9.02977 50.2673 9.02977H44.8342Z" fill="white"/>
<path d="M69.2834 9.02977H66.5668V6.31468C66.5668 4.82138 65.3444 3.59959 63.8502 3.59959V14.4599H58.4171V11.7449H61.1337V9.02977H58.4171C56.923 9.02977 55.7005 10.2516 55.7005 11.7449V14.4599C55.7005 15.9532 56.923 17.175 58.4171 17.175H66.5668V11.7449H69.2834V14.4599C69.2834 15.9532 70.5059 17.175 72 17.175V11.7449C72 10.2516 70.7775 9.02977 69.2834 9.02977Z" fill="white"/>
<path d="M39.401 6.31468H42.1176C42.1176 4.82138 40.8951 3.59959 39.401 3.59959V6.31468Z" fill="white"/>
<path fill-rule="evenodd" clip-rule="evenodd" d="M35.4867 19.8901V21.6669H35.2377L34.26 20.4359V21.6669H33.9679V19.8901H34.2168L35.1946 21.1263V19.8901H35.4867ZM41.0126 21.6669H39.9586V19.8901H40.9873V20.1821H40.271V20.6237H40.9111V20.9156H40.271V21.3751H41.0126V21.6669ZM45.4846 20.1821H46.0611V21.6669H46.3735V20.1821H46.95V19.8901H45.4846V20.1821ZM53.5986 19.8901H53.8983L53.3903 21.6669H53.0982L52.669 20.3826L52.2474 21.6669H51.9528L51.422 19.8901H51.7725L52.1306 21.1568L52.5268 19.8901H52.8366L53.243 21.1593L53.5986 19.8901ZM58.6293 20.1541C58.4566 20.3301 58.3702 20.5476 58.3702 20.8065C58.3702 21.0789 58.4574 21.2997 58.6318 21.4689C58.8062 21.6382 59.0272 21.7228 59.2947 21.7228C59.5605 21.7228 59.7815 21.6365 59.9575 21.4639C60.1336 21.2913 60.2217 21.0721 60.2217 20.8065C60.2217 20.5357 60.1336 20.3149 59.9575 20.144C59.7832 19.9748 59.5622 19.8901 59.2947 19.8901C59.0272 19.8901 58.8054 19.9781 58.6293 20.1541ZM58.8706 21.2532C58.7572 21.1348 58.7004 20.9859 58.7004 20.8065C58.7004 20.6237 58.7563 20.4739 58.868 20.3572C58.9815 20.2404 59.1237 20.1821 59.2947 20.1821C59.4623 20.1821 59.6037 20.2404 59.7188 20.3572C59.8339 20.4756 59.8915 20.6254 59.8915 20.8065C59.8915 20.9859 59.8373 21.1348 59.729 21.2532C59.6223 21.3717 59.4776 21.4309 59.2947 21.4309C59.1254 21.4309 58.984 21.3717 58.8706 21.2532ZM65.006 21.007V21.672H64.6937V19.8952C64.7817 19.8952 64.8774 19.8943 64.9806 19.8926C65.0839 19.8909 65.1686 19.8901 65.2346 19.8901C65.6647 19.8901 65.8798 20.0729 65.8798 20.4384C65.8798 20.5738 65.845 20.6854 65.7756 20.7735C65.7062 20.8581 65.6266 20.9156 65.5369 20.9461L66.0931 21.672H65.7147L65.2244 21.007H65.006ZM65.2194 20.1821C65.2109 20.1821 65.1974 20.1829 65.1787 20.1846C65.1601 20.1846 65.1339 20.1854 65.1 20.1871H65.006V20.7151H65.2092C65.3091 20.7151 65.3904 20.6905 65.453 20.6415C65.5174 20.5924 65.5496 20.5255 65.5496 20.4409C65.5496 20.2683 65.4395 20.1821 65.2194 20.1821ZM70.565 21.6669H70.8774V20.7506L71.6041 21.6669H72L71.2231 20.7176L71.9545 19.8901H71.5783L70.8774 20.7329V19.8901H70.565V21.6669Z" fill="#2F7AEA"/>
<path d="M6.42505 13.9948L7.13815 8.62719L0.943054 4.32868L6.60332 6.24409L7.94035 4.19505L12.8207 1.16603L23.5841 7.09045L24.1412 16.1329L19.35 22.7924L15.5617 23.3714L17.5227 19.7856V16.3334L16.0965 13.6384L14.648 12.6808L12.4195 14.9748V17.4025L10.6814 19.0284L8.47518 19.2956L7.4947 19.8524L5.8902 19.3401L5.22167 16.9348L6.42505 15.242V13.9948Z" fill="white"/>
<path d="M16.3193 4.28413C15.1383 4.03913 13.8458 4.10595 13.8458 4.10595C13.8458 4.10595 13.4224 6.06592 10.7928 6.57819C10.8151 6.57819 14.2692 7.75857 16.3193 4.28413Z" fill="#94A6C3"/>
<path d="M17.389 22.0574C18.8152 20.9438 19.8849 19.407 20.3751 17.6697C20.3974 17.6029 20.598 17.4916 20.7317 17.4025C20.9545 17.2688 21.1773 17.1575 21.222 16.9793C21.3111 16.467 21.3556 15.9325 21.3556 15.3979C21.3556 15.1975 21.1551 14.9971 20.9545 14.7966C20.7985 14.663 20.6425 14.5071 20.6425 14.3957C20.4197 12.3689 19.4837 10.4758 17.9907 9.09494L17.8347 9.25085C19.2832 10.6095 20.2191 12.458 20.4197 14.418C20.442 14.5962 20.6202 14.7744 20.7985 14.9525C20.9545 15.0862 21.1328 15.2866 21.1328 15.3757C21.1328 15.888 21.0882 16.4002 20.9991 16.9125C20.9768 17.0015 20.7762 17.0907 20.6202 17.1797C20.3974 17.2911 20.1969 17.4025 20.1523 17.5807C19.6175 19.4738 18.3918 21.122 16.7651 22.191C17.0547 21.5674 17.9684 19.5406 18.4586 18.5161L18.3695 15.2198L15.5394 12.4803L13.9349 12.703L12.1744 15.5539C12.1744 15.5539 12.999 16.6007 11.8402 17.8256C10.7037 19.0284 9.81231 19.2956 9.81231 19.2956L8.98776 18.8502C9.23287 18.5384 9.72314 18.0706 10.102 17.7589C10.7482 17.2243 11.3945 17.1797 11.3945 16.6007C11.4168 15.3979 10.1242 15.732 10.1242 15.732L9.65631 16.1775L9.45576 17.8256L8.47521 19.0506L8.36383 19.0284L6.75935 18.672C6.75935 18.672 7.73984 18.1597 7.89584 17.5807C8.05183 17.0239 7.58384 15.1752 7.56156 15.0639C7.58384 15.0862 8.02956 15.4648 8.23011 16.0884C8.58666 15.1084 9.05459 14.173 9.18832 14.0839C9.32204 13.9949 11.1271 13.0371 11.1271 13.0371L10.5254 14.6184L10.9711 14.3735L12.0407 11.7453C12.0407 11.7453 13.0881 11.2331 13.868 11.2331C15.272 11.2108 17.3444 9.49582 16.4085 6.42227C16.6759 6.53366 21.3111 8.84997 22.1133 13.3935C22.715 16.8902 20.7317 20.1642 17.389 22.0574Z" fill="#94A6C3"/>
<path d="M12.0853 4.77413C12.5979 4.17278 12.3973 3.28189 12.3973 3.28189L10.9042 5.48685C10.882 5.48685 11.4391 5.50911 12.0853 4.77413Z" fill="#1B314F"/>
<path d="M7.07127 16.8234L7.24954 15.9325C7.24954 15.9325 6.51417 17.2243 6.44734 17.4025C6.38051 17.603 6.49189 17.9594 6.78161 17.937C7.07127 17.9148 7.42782 17.4916 7.42782 17.1798C7.42782 16.7789 7.07127 16.8234 7.07127 16.8234Z" fill="#1B314F"/>
<path d="M20.3083 2.6583C20.3083 2.6583 21.4225 2.70284 22.5813 2.83648C19.974 0.787436 17.5004 0.186085 15.4948 0.186085C12.7315 0.186085 10.8597 1.32197 10.7482 1.38878L11.6173 0.00790741C11.6173 0.00790741 8.14093 -0.326177 6.91528 3.34873C6.60334 2.56921 6.31362 1.43333 6.31362 1.43333C6.31362 1.43333 4.50859 3.01466 5.3554 5.64277C3.28294 4.88552 0.319113 3.83873 0.207693 3.81646C0.0516997 3.79418 0.00713079 3.861 0.00713079 3.861C0.00713079 3.861 -0.0374381 3.92782 0.096272 4.03917C0.341396 4.23962 5.02113 7.69184 6.04621 8.35996C5.82337 9.16179 5.82337 9.54041 6.04621 9.91903C6.35817 10.4313 6.38045 10.6985 6.3359 11.0772C6.29135 11.4558 5.89022 14.7298 5.80108 15.1307C5.71195 15.5317 4.776 16.9571 4.82058 17.3802C4.86514 17.8034 5.44454 19.6074 5.95708 19.8079C6.3359 19.9415 7.2719 20.2311 7.89583 20.2311C8.11865 20.2311 8.3192 20.1865 8.40838 20.0974C8.7872 19.7633 8.89865 19.6965 9.16603 19.6965C9.18831 19.6965 9.21058 19.6965 9.23293 19.6965C9.34431 19.6965 9.47803 19.7188 9.63403 19.7188C9.99058 19.7188 10.4585 19.652 10.7928 19.3402C11.2831 18.8502 12.1299 18.182 12.3973 17.8702C12.7315 17.447 12.9098 16.868 12.8207 16.2889C12.7538 15.7544 13.0435 15.2866 13.3778 14.8189C13.8012 14.2621 14.5811 13.2599 14.5811 13.2599C16.1188 14.418 17.077 16.1775 17.077 18.1375C17.077 21.612 14.0464 24.4182 10.3026 24.4182C9.72313 24.4182 9.16603 24.3514 8.60893 24.2178C10.3249 24.8192 11.7733 25.0196 12.9544 25.0196C15.4725 25.0196 16.8096 24.1065 16.8096 24.1065C16.8096 24.1065 16.3416 24.7078 15.584 25.3982C15.6062 25.3982 15.6062 25.3982 15.6062 25.3982C19.7735 24.8192 21.8013 21.3892 21.8013 21.3892C21.8013 21.3892 21.6453 22.5029 21.4448 23.2601C26.9936 19.0952 26.0577 13.8835 26.0354 13.7053C26.0799 13.7721 26.637 14.4403 26.9268 14.7966C27.8181 5.6205 20.3083 2.6583 20.3083 2.6583ZM11.7733 17.3134C11.6842 17.4248 11.3053 17.7588 11.038 18.0038C10.7705 18.2489 10.4809 18.4938 10.258 18.7165C10.1689 18.8056 9.99058 18.8502 9.72313 18.8502C9.63403 18.8502 9.54486 18.8502 9.47803 18.8502C9.43348 18.8502 9.38886 18.8502 9.34431 18.8502C9.29975 18.8502 9.27748 18.8502 9.2552 18.8502C9.18831 18.8502 9.12148 18.8502 9.05458 18.8502C9.38886 18.4048 10.3694 17.3802 10.7037 17.1575C11.1048 16.8902 11.3053 16.623 11.0602 16.1552C10.8151 15.6875 10.1689 15.7989 10.1689 15.7989C10.1689 15.7989 10.5477 15.643 10.882 15.643C10.4585 15.5317 9.92369 15.643 9.67858 15.888C9.4112 16.133 9.45575 17.0016 9.34431 17.5584C9.23293 18.1375 8.85403 18.427 8.27465 18.9616C7.96265 19.2511 7.73983 19.3402 7.56155 19.3402C7.18272 19.2734 6.737 19.162 6.42507 19.0506C6.20217 18.7611 5.86794 17.8034 5.7788 17.4025C5.84566 17.1798 6.11307 16.712 6.24679 16.4448C6.51417 15.9325 6.67017 15.643 6.71472 15.3757C6.8039 14.9971 7.09362 12.6585 7.205 11.6785C7.49472 12.0572 7.89583 12.6808 7.80672 13.0817C8.45293 12.1685 7.985 11.2777 7.7621 10.9213C7.56155 10.5649 7.29417 9.85224 7.517 9.09493C7.73983 8.3377 8.5421 6.24409 8.5421 6.24409C8.5421 6.24409 8.80948 6.71183 9.18831 6.62278C9.56713 6.53366 12.6201 1.94559 12.6201 1.94559C12.6201 1.94559 13.4446 3.74964 12.5755 5.0637C11.6842 6.37774 10.8151 6.62278 10.8151 6.62278C10.8151 6.62278 12.0407 6.84548 13.1773 6.02139C13.6452 7.11272 14.0909 8.24864 14.1132 8.40455C14.0463 8.5604 13.1549 10.6985 13.0658 10.8322C13.0213 10.8767 12.7093 10.9658 12.4864 11.0104C12.1076 11.1217 11.8847 11.1885 11.7956 11.2554C11.6396 11.389 10.9265 13.3489 10.5922 14.3067C10.1911 14.418 9.79003 14.6408 9.50031 15.0862C9.65631 14.9748 10.1466 14.908 10.5031 14.8635C10.8151 14.8412 11.7733 15.3535 12.0184 16.3112C12.0184 16.3334 12.0184 16.3334 12.0184 16.3557C12.063 16.712 11.9516 17.0461 11.7733 17.3134ZM9.67858 17.5807C9.87913 17.2911 9.85686 16.8012 9.87913 16.6453C9.90141 16.4893 9.94603 16.1998 10.1243 16.1552C10.3026 16.1107 10.726 16.1775 10.726 16.4893C10.726 16.7789 10.414 16.8457 10.1911 17.0461C10.0351 17.202 9.72313 17.5361 9.67858 17.5807ZM18.5701 13.3267C18.7929 12.1908 18.8152 11.2108 18.7484 10.409C19.6175 11.5672 20.1523 12.9703 20.3083 14.418C20.3306 14.5962 20.5088 14.7744 20.6871 14.9525C20.8431 15.0862 21.0214 15.2644 21.0214 15.3757C21.0214 15.888 20.9768 16.4002 20.8877 16.9125C20.8654 16.9793 20.6648 17.0907 20.5088 17.1798C20.2859 17.2911 20.0854 17.4025 20.0408 17.5807C19.5506 19.2957 18.5032 20.8101 17.0993 21.8792C19.1717 19.7188 20.1746 16.1552 18.5701 13.3267ZM17.1662 22.0796C18.6146 20.966 19.7288 19.407 20.2191 17.6475C20.2414 17.5807 20.4419 17.4693 20.5757 17.3802C20.7985 17.2688 21.0214 17.1353 21.0659 16.9571C21.155 16.4448 21.1997 15.9103 21.1997 15.3757C21.1997 15.1753 20.9991 14.9748 20.7985 14.7744C20.6871 14.6408 20.5088 14.4849 20.5088 14.3735C20.3306 12.7476 19.6843 11.2108 18.6815 9.94129C18.2358 7.26863 16.4531 6.4446 16.4085 6.42227C16.4531 6.48913 17.6119 8.15952 16.8096 10.1195C15.9851 12.1017 13.8681 11.7899 13.6898 11.8122C13.5115 11.8122 12.8207 12.7031 11.9516 14.3512C11.8402 14.3067 11.3722 14.1953 10.8373 14.2844C11.2385 13.1708 11.8402 11.5894 11.9516 11.4558C11.9962 11.4112 12.3304 11.3222 12.5533 11.2554C12.9766 11.144 13.1773 11.0772 13.2441 10.9881C13.2886 10.9213 13.5115 10.409 13.7344 9.8745C13.9349 9.8745 14.4475 9.82998 14.492 9.80764C14.5366 9.76312 14.96 8.67179 14.96 8.53814C14.96 8.42682 14.0909 6.26642 13.7566 5.44233C13.9126 5.26415 14.0686 5.04142 14.2246 4.79643C18.7929 5.28641 22.3584 9.16179 22.3584 13.8612C22.3584 17.4693 20.2414 20.6097 17.1662 22.0796Z" fill="#1B314F"/>
<path d="M11.2385 10.0527C11.6619 9.56268 11.4391 8.64953 10.6591 8.49361C10.8597 8.02587 11.1493 7.09045 11.1493 7.09045C11.1493 7.09045 8.87638 10.654 8.67576 10.7208C8.4752 10.7877 8.27465 10.0081 8.27465 10.0081C7.85127 11.634 8.98775 11.8567 9.12148 11.3445C9.74541 11.1885 10.8151 10.5204 11.2385 10.0527Z" fill="#1B314F"/>
<path d="M9.29974 10.9213L10.4585 8.93909C10.4585 8.93909 11.1271 9.27318 10.7928 9.80771C10.3694 10.4313 9.29974 10.9213 9.29974 10.9213Z" fill="#FFD923"/>
<path d="M23.6286 20.0974C23.2943 20.5429 22.9155 21.0106 22.4698 21.456C25.3445 15.9325 22.6036 10.8768 22.4921 10.6763C22.6927 10.8768 22.8932 11.0995 23.0715 11.2999C25.2777 13.7499 25.5451 17.4248 23.6286 20.0974Z" fill="#D82122"/>
<path d="M26.3027 12.9926C25.3 10.2976 23.8738 8.0036 20.7317 5.93233C17.701 3.92781 14.4475 4.08372 14.2692 4.10599C14.2469 4.10599 14.2246 4.10599 14.2246 4.10599C14.336 4.06144 14.4475 4.03917 14.5588 4.0169C15.2497 3.79418 16.141 3.616 17.0324 3.50464C19.3946 3.17056 21.779 3.97236 23.4058 5.68729C23.4281 5.70956 23.4281 5.70956 23.4503 5.73189C25.3 7.69184 26.2582 10.1417 26.3027 12.9926Z" fill="#D82122"/>
<path d="M20.0186 1.96792C16.6982 1.34429 14.5589 1.6561 13.0213 2.23518C12.9767 2.057 12.8207 1.70065 12.687 1.41111C12.219 1.96792 11.7288 2.63608 11.4168 3.05925C10.57 3.63833 10.2134 4.19514 10.2134 4.19514C10.7037 2.52472 12.1299 1.27748 13.8681 0.965668C14.3583 0.876579 14.8931 0.832031 15.4726 0.832031C17.0102 0.854302 18.5478 1.23293 20.0186 1.96792Z" fill="#D82122"/>
<path d="M7.73982 6.24416C5.13256 6.1551 6.00165 3.12607 6.04622 2.94789C6.04622 2.97016 6.22451 5.331 7.73982 6.24416Z" fill="#D82122"/>
<path d="M10.3026 0.78746C8.29691 1.99016 8.69808 4.86328 8.69808 4.86328C6.78161 1.94561 10.1466 0.854279 10.3026 0.78746Z" fill="#D82122"/>
<path d="M7.00444 7.04593C7.13816 7.15732 7.27189 7.35776 7.11589 7.64726C7.02671 7.80317 6.89306 7.78091 6.69244 7.69185C6.42506 7.5582 4.82058 6.62279 3.37209 5.66504C5.02114 6.2441 6.69244 6.86775 6.95989 7.00141C6.95989 7.00141 6.98216 7.02367 7.00444 7.04593Z" fill="white"/>
</svg>
