<svg width="114" height="30" viewBox="0 0 114 30" fill="none" xmlns="http://www.w3.org/2000/svg">
<g clip-path="url(#clip0_5907_21591)">
<path d="M3.6318 8.12195L1.8159 9.95139L0 8.12195L1.8159 6.29249L3.6318 8.12195ZM8.06175 3.65889L11.1747 6.81519L12.9907 4.98575L9.87771 1.82945L8.06175 0L3.11297 4.98575L4.92887 6.81519L8.06175 3.65889ZM14.3077 6.29249L12.4917 8.12195L14.3077 9.95139L16.1236 8.12195L14.3077 6.29249ZM8.06175 12.5649L4.94882 9.42868L3.11297 11.2581L8.04184 16.2238L9.85772 14.3943L12.9907 11.2581L11.1747 9.42868L8.06175 12.5649ZM8.06175 9.95139L9.87771 8.12195L8.06175 6.29249L6.24589 8.12195L8.06175 9.95139ZM27.2784 10.1323V10.1122C27.2784 8.92611 26.6398 8.32295 25.6221 7.92087C26.2607 7.55904 26.7795 6.99613 26.7795 5.99094V5.97083C26.7795 4.56357 25.662 3.65889 23.8661 3.65889H19.7553V12.5649H23.9658C25.9614 12.5649 27.2784 11.7607 27.2784 10.1323ZM24.8439 6.3327C24.8439 6.99613 24.3051 7.27758 23.4471 7.27758H21.6511V5.38782H23.5668C24.3849 5.38782 24.8439 5.70948 24.8439 6.3126V6.3327ZM25.3427 9.89108C25.3427 10.5545 24.8239 10.8561 23.9658 10.8561H21.6511V8.90597H23.906C24.9038 8.90597 25.3427 9.26787 25.3427 9.87095V9.89108ZM31.3492 12.5649V3.65889H29.4136V12.5649H31.3492ZM41.8056 3.65889H39.8899V9.14724L35.7393 3.65889H33.9433V12.5649H35.859V6.91571L40.1493 12.585H41.8056V3.65889ZM52.5812 12.5649L48.7898 3.59858H46.9938L43.2024 12.5649H45.178L45.9961 10.5746H49.7277L50.5458 12.5649H52.5812ZM49.0492 8.84566H46.6946L47.8719 5.95073L49.0492 8.84566ZM61.8403 3.65889H59.9246V9.14724L55.774 3.65889H53.9781V12.5649H55.8937V6.91571L60.184 12.585H61.8403V3.65889ZM71.8976 11.1375L70.6604 9.87095C69.962 10.5143 69.3434 10.9164 68.3457 10.9164C66.8291 10.9164 65.7914 9.64982 65.7914 8.12195V8.10182C65.7914 6.57395 66.869 5.32751 68.3457 5.32751C69.2236 5.32751 69.9221 5.70948 70.6005 6.3327L71.8377 4.88522C71.0196 4.06097 70.0218 3.51817 68.3457 3.51817C65.6318 3.51817 63.7361 5.58886 63.7361 8.12195V8.14208C63.7361 10.6952 65.6717 12.7257 68.2658 12.7257C69.962 12.7257 70.9797 12.1226 71.8976 11.1375ZM80.1787 12.5649V10.8159H75.3897V8.94616H79.5603V7.19717H75.3897V5.38782H80.1194V3.63879H73.4541V12.5448H80.1787V12.5649Z" fill="#F0B90B"/>
<path d="M29.9968 27.6407L28.5153 26.1185C27.3901 27.184 26.3588 27.8499 24.746 27.8499C22.2331 27.8499 20.4141 25.7188 20.4141 23.093C20.4141 20.4672 22.2331 18.3741 24.746 18.3741C26.2462 18.3741 27.3714 19.0401 28.4215 20.0295L29.903 18.2979C28.6466 17.0802 27.1838 16.2239 24.7648 16.2239C20.7891 16.2239 17.9951 19.3254 17.9951 23.131C17.9951 26.9747 20.8454 30.0002 24.671 30.0002C27.1276 30.0002 28.6278 29.0868 29.9968 27.6407Z" fill="white"/>
<path d="M45.2005 23.093C45.2005 19.3254 42.3876 16.2239 38.3558 16.2239C34.324 16.2239 31.4735 19.3635 31.4735 23.131C31.4735 26.8986 34.2864 30.0002 38.3183 30.0002C42.3501 30.0002 45.2005 26.8605 45.2005 23.093ZM42.7815 23.131C42.7815 25.7379 40.9625 27.8499 38.3558 27.8499C35.7491 27.8499 33.8927 25.6998 33.8927 23.093C33.8927 20.4862 35.7117 18.3741 38.3183 18.3741C40.9249 18.3741 42.7815 20.5243 42.7815 23.131Z" fill="white"/>
<path d="M57.1575 25.6618L50.1252 16.4522H47.9874V29.7718H50.2564V20.2959L57.495 29.7718H59.4266V16.4522H57.1575V25.6618Z" fill="white"/>
<path d="M71.9729 25.6618L64.9406 16.4522H62.8028V29.7718H65.0718V20.2959L72.3104 29.7718H74.242V16.4522H71.9729V25.6618Z" fill="white"/>
<path d="M87.3505 16.4522H77.6181V29.7718H87.4442V27.6787H79.9249V24.1014H86.5073V22.0084H79.9249V18.5453H87.3505V16.4522Z" fill="white"/>
<path d="M101.601 27.6407L100.12 26.1185C98.9949 27.184 97.9635 27.8499 96.3503 27.8499C93.8376 27.8499 92.0191 25.7188 92.0191 23.093C92.0191 20.4672 93.8376 18.3741 96.3503 18.3741C97.8511 18.3741 98.9762 19.0401 100.026 20.0295L101.508 18.2979C100.251 17.0802 98.7888 16.2239 96.369 16.2239C92.3939 16.2239 89.5993 19.3254 89.5993 23.131C89.5993 26.9747 92.4501 30.0002 96.2754 30.0002C98.7326 30.0002 100.233 29.0868 101.601 27.6407Z" fill="white"/>
<path d="M109.577 18.6215H113.74V16.4522H103.088V18.6215H107.251V29.7718H109.577V18.6215Z" fill="white"/>
</g>
<defs>
<clipPath id="clip0_5907_21591">
<rect width="114" height="30" fill="white"/>
</clipPath>
</defs>
</svg>
