<svg width="57" height="63" viewBox="0 0 57 63" fill="none" xmlns="http://www.w3.org/2000/svg">
<path fill-rule="evenodd" clip-rule="evenodd" d="M23.8954 0.301896C23.4617 0.483864 22.9178 0.767505 22.6866 0.932037C21.5581 1.73557 20.6055 3.26472 20.4179 4.57366C20.3275 5.2045 20.3036 5.23108 19.6215 5.46297C14.1143 7.33483 9.38363 12.2438 7.68389 17.8506C6.87361 20.5235 6.79922 31.2664 6.79922 31.2664L6.73636 41.1101L0 47.8666L0.0746717 56.0164L18.1402 56.0888C18.8004 59.0709 20.7872 61.6839 23.8462 62.4808C24.8978 62.7547 26.8505 62.7574 27.8913 62.4863C31.0392 61.6664 32.8547 59.0964 33.624 56.0888L51.684 56.0164L51.7579 47.8601L45.0044 41.1124V36.8499H42.7544V40.4773H16.8794V42.5867H43.531L47.9575 47.1234L3.80123 47.1202L8.23416 42.5867H14.6294V40.4773H9.00436V31.0739C9.00436 31.0739 9.02981 20.4603 9.79158 18.1819C11.8065 12.156 17.164 7.62002 23.328 6.72129C24.9899 6.47899 28.4437 6.62172 29.8169 6.98946C33.5434 7.98733 36.5237 9.81025 38.7079 12.4274C39.1898 13.0048 39.6356 13.4773 39.6986 13.4773C40.169 13.4773 40.9711 12.622 41.3556 12.338C39.0691 9.42775 36.2688 7.09807 32.7876 5.7296L31.434 5.19747L31.3408 4.56044C31.1012 2.92272 29.8658 1.28065 28.2885 0.503412C27.4711 0.100662 27.2077 0.0431459 26.0238 0.00939591C24.8797 -0.0233697 24.5689 0.01938 23.8954 0.301896ZM27.3815 2.38033C28.2678 2.80935 28.8985 3.63904 29.2153 4.54765H25.8794H22.5435C22.8593 3.64171 23.4858 2.8192 24.3648 2.38413C25.1827 1.97927 26.5494 1.97758 27.3815 2.38033ZM49.5044 53.9773H2.25436V49.3367H49.5044V53.9773ZM28.2982 60.0693C26.7074 60.8217 24.4328 60.7498 23.0669 59.904C21.5967 58.9934 20.8036 57.6766 20.2714 56.0867H25.8816H31.4918C30.8859 57.8045 30.0115 59.2588 28.2982 60.0693Z" fill="#0ED3DF"/>
<path d="M40.1994 31.304L44.3914 26.632V25H38.0554V26.632H42.0554L37.8794 31.304V32.936H44.6634V31.304H40.1994Z" fill="#0ED3DF"/>
<path d="M49.6634 19.84L56.3594 12.064V10H47.1674V12.064H53.5754L46.8794 19.84V21.904H56.7434V19.84H49.6634Z" fill="#0ED3DF"/>
</svg>
