<svg width="16" height="13" viewBox="0 0 16 13" fill="none" xmlns="http://www.w3.org/2000/svg">
<path d="M14.1081 0.270124C11.4581 3.32012 8.42809 6.98012 5.77809 10.0701L2.10809 7.00012C2.00624 6.9128 1.88173 6.85613 1.749 6.83666C1.61626 6.81719 1.48072 6.83573 1.35809 6.89012C1.23183 6.95106 1.12379 7.0441 1.04482 7.15994C0.965838 7.27577 0.918687 7.41033 0.908088 7.55012C0.887291 7.69197 0.904048 7.8368 0.956687 7.97015C1.00933 8.1035 1.09601 8.22073 1.20809 8.31012L5.44809 11.8801C5.51845 11.9417 5.60044 11.9886 5.68922 12.018C5.77799 12.0473 5.87176 12.0586 5.96497 12.0512C6.05819 12.0437 6.14896 12.0177 6.23194 11.9746C6.31492 11.9314 6.38841 11.8721 6.44809 11.8001C9.23809 8.58012 12.4481 4.53012 15.1881 1.36012C15.2964 1.23608 15.3685 1.08471 15.3967 0.922498C15.425 0.760283 15.4081 0.593437 15.3481 0.440123C15.2817 0.318723 15.1831 0.218041 15.0631 0.149212C14.9431 0.0803821 14.8064 0.0460889 14.6681 0.0501238C14.5688 0.0562939 14.4719 0.0835667 14.384 0.130125C14.296 0.176683 14.219 0.241455 14.1581 0.320123L14.1081 0.270124Z" fill="#0ED3DF"/>
</svg>
