<svg width="24" height="24" viewBox="0 0 24 24" fill="none" xmlns="http://www.w3.org/2000/svg">
<path d="M16.8289 3.51817C16.1233 3.11637 15.3736 2.80278 14.5896 2.58718V1.78849C14.5896 0.803593 13.786 0 12.8011 0H11.2086C10.2238 0 9.42016 0.803593 9.42016 1.78849V2.58718C8.63617 2.80278 7.88648 3.11147 7.18088 3.51817L6.61249 2.95468C6.27439 2.61658 5.82359 2.43038 5.3483 2.43038C4.873 2.43038 4.4222 2.61658 4.08411 2.95468L2.95712 4.08167C2.61902 4.41976 2.43282 4.87056 2.43282 5.34586C2.43282 5.82115 2.61902 6.27195 2.95712 6.61004L3.52061 7.17354C3.11882 7.87913 2.80522 8.62883 2.58962 9.41282H1.79093C0.806035 9.41282 0.00244141 10.2164 0.00244141 11.2013V12.7938C0.00244141 13.7787 0.806035 14.5823 1.79093 14.5823H2.58962C2.80522 15.3663 3.11392 16.116 3.52061 16.8216L2.95712 17.39C2.26132 18.0857 2.26132 19.2225 2.95712 19.9183L4.08411 21.0453C4.4222 21.3834 4.873 21.5696 5.3483 21.5696C5.82359 21.5696 6.27439 21.3834 6.61249 21.0453L7.17598 20.4818C7.88158 20.8836 8.63127 21.1972 9.41526 21.4128V22.2115C9.41526 23.1964 10.2189 24 11.2037 24H12.7962C13.7811 24 14.5847 23.1964 14.5847 22.2115V21.4128C15.3687 21.1972 16.1184 20.8885 16.824 20.4818L17.3875 21.0453C17.7256 21.3834 18.1764 21.5696 18.6517 21.5696C19.127 21.5696 19.5778 21.3834 19.9159 21.0453L21.0429 19.9183C21.7387 19.2225 21.7387 18.0857 21.0429 17.39L20.4794 16.8265C20.8812 16.1209 21.1948 15.3712 21.4104 14.5872H22.2091C23.1939 14.5872 23.9975 13.7836 23.9975 12.7987V11.2062C23.9975 10.2213 23.1939 9.41772 22.2091 9.41772H21.4104C21.1948 8.63373 20.8861 7.88403 20.4794 7.17844L21.0429 6.61494C21.7387 5.91915 21.7387 4.78236 21.0429 4.08657L19.9159 2.95958C19.5778 2.62148 19.127 2.43528 18.6517 2.43528C18.1764 2.43528 17.7256 2.62148 17.3875 2.95958L16.8289 3.51817ZM18.5831 4.14047C18.6272 4.09637 18.6909 4.09637 18.735 4.14047L19.862 5.26746C19.9061 5.31156 19.9061 5.37526 19.862 5.41935L18.8281 6.45325C18.5439 6.73744 18.4998 7.18334 18.7252 7.51654C19.3181 8.39853 19.7199 9.37852 19.9257 10.4173C20.0041 10.8093 20.3471 11.0935 20.7489 11.0935H22.214C22.2728 11.0935 22.3218 11.1425 22.3218 11.2013V12.7938C22.3218 12.8526 22.2728 12.9016 22.214 12.9016H20.7489C20.3471 12.9016 20.0041 13.1858 19.9257 13.5778C19.7199 14.6215 19.3132 15.5966 18.7252 16.4786C18.4998 16.8118 18.5439 17.2577 18.8281 17.5419L19.862 18.5757C19.9061 18.6198 19.9061 18.6835 19.862 18.7276L18.735 19.8546C18.6958 19.8987 18.6272 19.8938 18.5831 19.8546L17.5492 18.8207C17.265 18.5365 16.8191 18.4924 16.4859 18.7178C15.599 19.3107 14.6239 19.7125 13.5851 19.9183C13.1931 19.9967 12.9089 20.3397 12.9089 20.7415V22.2066C12.9089 22.2654 12.8599 22.3144 12.8011 22.3144H11.2086C11.1498 22.3144 11.1008 22.2654 11.1008 22.2066V20.7415C11.1008 20.3397 10.8167 19.9967 10.4247 19.9183C9.38586 19.7125 8.40587 19.3058 7.52388 18.7178C7.38178 18.6247 7.22008 18.5757 7.05838 18.5757C6.84278 18.5757 6.62719 18.659 6.46549 18.8207L5.4316 19.8546C5.3875 19.8987 5.3238 19.8987 5.2797 19.8546L4.15271 18.7276C4.10861 18.6835 4.10861 18.6198 4.15271 18.5757L5.1866 17.5419C5.4708 17.2577 5.5149 16.8118 5.2895 16.4786C4.6966 15.5917 4.29481 14.6166 4.08901 13.5778C4.01061 13.1858 3.66761 12.9016 3.26581 12.9016H1.79093C1.73213 12.9016 1.68313 12.8526 1.68313 12.7938V11.2013C1.68313 11.1425 1.73213 11.0935 1.79093 11.0935H3.25601C3.65781 11.0935 4.00081 10.8093 4.07921 10.4173C4.28501 9.37852 4.6917 8.39853 5.2797 7.51654C5.5002 7.18334 5.461 6.73744 5.1768 6.45325L4.14291 5.41935C4.12331 5.39976 4.11351 5.37526 4.11351 5.34096C4.11351 5.31156 4.12331 5.28706 4.14291 5.26746L5.2699 4.14047C5.314 4.09637 5.3777 4.09637 5.4218 4.14047L6.45569 5.17436C6.73989 5.45855 7.18578 5.50265 7.51898 5.27726C8.40587 4.68436 9.38096 4.28256 10.4198 4.07677C10.8118 3.99837 11.0959 3.65537 11.0959 3.25357V1.78849C11.0959 1.72969 11.1449 1.68069 11.2037 1.68069H12.7962C12.855 1.68069 12.904 1.72969 12.904 1.78849V3.25357C12.904 3.65537 13.1882 3.99837 13.5802 4.07677C14.619 4.28256 15.599 4.68926 16.481 5.27726C16.8142 5.49775 17.2601 5.45855 17.5443 5.17436L18.5831 4.14047Z" fill="#0ED3DF"/>
<path d="M12.0024 7.11963C9.31235 7.11963 7.12207 9.30991 7.12207 12C7.12207 14.6901 9.31235 16.8804 12.0024 16.8804C14.6925 16.8804 16.8828 14.6901 16.8828 12C16.8828 9.30991 14.6925 7.11963 12.0024 7.11963ZM12.0024 15.1997C10.2384 15.1997 8.80276 13.764 8.80276 12C8.80276 10.236 10.2384 8.80032 12.0024 8.80032C13.7664 8.80032 15.2021 10.236 15.2021 12C15.2021 13.764 13.7664 15.1997 12.0024 15.1997Z" fill="#0ED3DF"/>
</svg>
