<svg width="144" height="144" viewBox="0 0 144 144" fill="none" xmlns="http://www.w3.org/2000/svg">
    <path fill-rule="evenodd" clip-rule="evenodd" d="M63.2437 70.3798C60.6188 69.1444 58.4212 67.3859 56.8721 65.2822C55.2255 63.128 54.2772 60.5989 54.2772 57.8935C54.2772 55.8516 54.8174 53.91 55.7904 52.1543C44.1277 42.1822 64.629 34.6236 64.8104 44.9109C64.9751 44.8516 65.141 44.7943 65.3083 44.739C67.4436 44.0137 69.7908 43.6126 72.2546 43.6126C74.9663 43.6126 77.537 44.0985 79.8392 44.9678C79.9462 34.5695 100.649 42.2023 88.7705 52.2304C88.8331 52.4115 88.8746 52.5833 88.8968 52.7454C89.6852 54.3661 90.118 56.1302 90.118 57.9755C90.118 63.2654 86.5612 67.8874 81.2655 70.3798C81.834 70.7009 82.3825 71.0514 82.9087 71.4293C84.7964 69.6551 95.5799 59.9232 99.6483 65.1569C104.114 70.9021 99.6483 76.6472 90.7165 79.5198C90.2024 79.6851 89.7081 79.8076 89.2328 79.8917C89.8073 81.5826 90.118 83.3888 90.118 85.265C90.118 87.0056 89.8506 88.686 89.3532 90.2699C96.0265 91.7555 99.6553 95.7429 97.3343 101.291C95.1468 106.52 85.2504 102.335 81.0527 100.268C78.4556 101.689 75.4533 102.5 72.2546 102.5C69.0347 102.5 66.0139 101.679 63.4051 100.24C59.2408 102.296 49.2638 106.544 47.0662 101.291C44.7335 95.7148 48.411 91.7152 55.1489 90.2476C54.656 88.6702 54.3911 86.9974 54.3911 85.265C54.3911 83.3953 54.6997 81.5952 55.2703 79.9094C54.7637 79.8251 54.235 79.6971 53.6837 79.5198C44.752 76.6472 40.2861 70.9021 44.752 65.1569C48.8557 59.8777 59.792 69.8255 61.5387 71.4737C62.0837 71.0789 62.6529 70.7134 63.2437 70.3798ZM72.6753 76.5165C72.6347 76.5165 72.5942 76.5167 72.5536 76.5172C72.5131 76.5167 72.4726 76.5165 72.432 76.5165V76.5193C66.1657 76.6654 61.3232 82.4337 62.7264 88.2019C64.1272 93.9606 66.9088 98.3004 72.432 98.4239V98.4267C72.4727 98.4267 72.5132 98.4264 72.5536 98.426C72.5941 98.4264 72.6346 98.4267 72.6753 98.4267V98.4239C78.1985 98.3004 80.9801 93.9606 82.3809 88.2019C83.7841 82.4337 78.9415 76.6654 72.6753 76.5193V76.5165ZM56.4612 48.9971C57.366 49.8829 58.6254 49.6503 59.9376 48.3656C61.2499 47.0808 62.1181 45.2305 61.2134 44.3447C60.3086 43.4589 57.9653 43.2477 56.653 44.5325C55.3408 45.8172 55.5565 48.1114 56.4612 48.9971ZM84.5703 48.3656C85.8826 49.6503 87.142 49.8829 88.0467 48.9971C88.9515 48.1114 89.1672 45.8172 87.8549 44.5325C86.5427 43.2477 84.1993 43.4589 83.2946 44.3447C82.3898 45.2305 83.258 47.0808 84.5703 48.3656ZM65.84 58.9887C66.87 58.9887 67.705 58.1712 67.705 57.1628C67.705 56.1545 66.87 55.337 65.84 55.337C64.81 55.337 63.975 56.1545 63.975 57.1628C63.975 58.1712 64.81 58.9887 65.84 58.9887ZM81.1325 57.1628C81.1325 58.1712 80.2975 58.9887 79.2675 58.9887C78.2375 58.9887 77.4025 58.1712 77.4025 57.1628C77.4025 56.1545 78.2375 55.337 79.2675 55.337C80.2975 55.337 81.1325 56.1545 81.1325 57.1628ZM72.9269 69.9439C76.2229 69.9439 78.8948 67.328 78.8948 64.1012C78.8948 60.8744 76.2229 58.2585 72.9269 58.2585C69.6309 58.2585 66.959 60.8744 66.959 64.1012C66.959 67.328 69.6309 69.9439 72.9269 69.9439ZM75.1649 60.4105C75.1649 61.3444 74.1629 62.1015 72.9269 62.1015C71.6909 62.1015 70.689 61.3444 70.689 60.4105C70.689 59.4766 71.6909 58.7195 72.9269 58.7195C74.1629 58.7195 75.1649 59.4766 75.1649 60.4105Z" fill="#7D9BB5"/>
</svg>
