<svg width="12" height="15" viewBox="0 0 12 15" fill="none" xmlns="http://www.w3.org/2000/svg">
<path d="M1.23724 2.97008H6.43748C6.98912 2.97008 7.4379 2.52264 7.4379 1.96995C7.4379 1.41776 6.98912 0.970869 6.43748 0.970869H1.23724C0.685965 0.970869 0.237061 1.41776 0.237061 1.96995C0.237122 2.5227 0.685965 2.97008 1.23724 2.97008Z" fill="#2A343D"/>
<path d="M9.82516 4.97172H1.46643C0.78883 4.97172 0.237061 5.41929 0.237061 5.97172C0.237061 6.5241 0.788755 6.97099 1.46643 6.97099H9.82516C10.5044 6.97099 11.0533 6.5241 11.0533 5.97172C11.0533 5.41929 10.5044 4.97172 9.82516 4.97172Z" fill="#2A343D"/>
<path d="M9.82516 8.97209H1.46643C0.78883 8.97209 0.237061 9.41862 0.237061 9.97124C0.237061 10.5236 0.788755 10.9704 1.46643 10.9704H9.82516C10.5044 10.9704 11.0533 10.5236 11.0533 9.97124C11.0533 9.41868 10.5044 8.97209 9.82516 8.97209Z" fill="#2A343D"/>
<path d="M8.03768 12.9717H1.23724C0.685965 12.9717 0.237061 13.4181 0.237061 13.9707C0.237061 14.5231 0.685904 14.9709 1.23724 14.9709H8.03768C8.5903 14.9709 9.03683 14.5231 9.03683 13.9707C9.03683 13.4181 8.5903 12.9717 8.03768 12.9717Z" fill="#2A343D"/>
</svg>
