<svg width="120" height="72" viewBox="0 0 120 72" fill="none" xmlns="http://www.w3.org/2000/svg">
<path d="M103 56C112.389 56 120 48.3888 120 39C120 29.6112 112.389 22 103 22C93.6112 22 86 29.6112 86 39C86 48.3888 93.6112 56 103 56Z" fill="#151E25" fill-opacity="0.2"/>
<path d="M64 72C83.8823 72 100 55.8823 100 36C100 16.1177 83.8823 0 64 0C44.1177 0 28 16.1177 28 36C28 55.8823 44.1177 72 64 72Z" fill="#151E25" fill-opacity="0.06"/>
<path d="M24 56C37.2548 56 48 45.2548 48 32C48 18.7452 37.2548 8 24 8C10.7452 8 0 18.7452 0 32C0 45.2548 10.7452 56 24 56Z" fill="#151E25" fill-opacity="0.1"/>
</svg>
