<svg width="36" height="36" viewBox="0 0 36 36" fill="none" xmlns="http://www.w3.org/2000/svg">
<rect width="36" height="36" rx="18" fill="#EEEEEE"/>
<path d="M9.3359 15.7632C9.59136 16.306 10.23 17.3917 10.23 17.3917L17.5426 5.2893L10.4216 10.2708C10.0065 10.5582 9.65523 10.9414 9.39977 11.3884C8.72919 12.7615 8.72919 14.3581 9.3359 15.7632Z" fill="url(#paint0_linear_3241_13321)"/>
<path d="M6.46197 19.7228C6.62164 22.0539 7.80314 24.2253 9.65522 25.6303L17.5426 31.1227C17.5426 31.1227 12.593 24.0018 8.44179 16.9127C8.02667 16.1783 7.73927 15.348 7.61154 14.4859C7.54768 14.1027 7.54768 13.7195 7.61154 13.3363C7.51575 13.5279 7.29222 13.943 7.29222 13.943C6.8771 14.8052 6.5897 15.7312 6.43004 16.6892C6.33424 17.7111 6.33424 18.7329 6.46197 19.7228Z" fill="#A0A8D4"/>
<path d="M26.5794 20.6808C26.324 20.1379 25.6853 19.0522 25.6853 19.0522L18.3728 31.1227L25.5257 26.1732C25.9408 25.8858 26.292 25.5026 26.5475 25.0555C27.1861 23.6824 27.2181 22.0858 26.5794 20.6808Z" fill="url(#paint1_linear_3241_13321)"/>
<path d="M29.4853 16.6892C29.3257 14.3581 28.1442 12.1867 26.2921 10.7817L18.4048 5.2893C18.4048 5.2893 23.3543 12.4103 27.5055 19.4993C27.9206 20.2337 28.208 21.064 28.3358 21.9261C28.3996 22.3093 28.3996 22.6925 28.3358 23.0757C28.4316 22.8841 28.6551 22.469 28.6551 22.469C29.0702 21.6068 29.3576 20.6808 29.5173 19.7547C29.5811 18.701 29.5811 17.7111 29.4853 16.6892Z" fill="#A0A8D4"/>
<path d="M9.39976 11.3884C9.65522 10.9414 9.97455 10.5582 10.4216 10.2708L17.5426 5.2893L10.23 17.3598C10.23 17.3598 9.59136 16.2741 9.3359 15.7312C8.72918 14.3581 8.72918 12.7615 9.39976 11.3884ZM6.46197 19.7228C6.62164 22.0539 7.80314 24.2253 9.65522 25.6303L17.5426 31.1227C17.5426 31.1227 12.593 24.0018 8.44179 16.9127C8.02667 16.1783 7.73927 15.348 7.61154 14.4859C7.54768 14.1027 7.54768 13.7195 7.61154 13.3363C7.51575 13.5279 7.29222 13.943 7.29222 13.943C6.8771 14.8052 6.5897 15.7312 6.43004 16.6892C6.33424 17.7111 6.33424 18.7329 6.46197 19.7228ZM26.5795 20.6808C26.324 20.1379 25.6853 19.0522 25.6853 19.0522L18.3728 31.1227L25.5257 26.1732C25.9408 25.8858 26.2921 25.5026 26.5475 25.0555C27.1862 23.6824 27.2181 22.0858 26.5795 20.6808ZM29.4534 16.7211C29.2937 14.3901 28.1122 12.2187 26.2601 10.8136L18.4047 5.2893C18.4047 5.2893 23.3543 12.4103 27.5055 19.4993C27.9206 20.2337 28.208 21.064 28.3357 21.9261C28.3996 22.3093 28.3996 22.6925 28.3357 23.0757C28.4315 22.8841 28.6551 22.469 28.6551 22.469C29.0702 21.6068 29.3576 20.6808 29.5172 19.7547C29.5811 18.701 29.5811 17.711 29.4534 16.7211Z" fill="url(#paint2_linear_3241_13321)"/>
<defs>
<linearGradient id="paint0_linear_3241_13321" x1="17.8752" y1="5.59206" x2="8.49288" y2="15.7631" gradientUnits="userSpaceOnUse">
<stop offset="0.58" stop-color="#A0A8D4"/>
<stop offset="0.73" stop-color="#8791C7"/>
<stop offset="0.91" stop-color="#6470B4"/>
</linearGradient>
<linearGradient id="paint1_linear_3241_13321" x1="18.0722" y1="30.8412" x2="27.4509" y2="20.6774" gradientUnits="userSpaceOnUse">
<stop offset="0.58" stop-color="#A0A8D4"/>
<stop offset="0.73" stop-color="#8791C7"/>
<stop offset="0.91" stop-color="#6470B4"/>
</linearGradient>
<linearGradient id="paint2_linear_3241_13321" x1="17.9649" y1="5.16161" x2="17.9649" y2="31.2185" gradientUnits="userSpaceOnUse">
<stop stop-color="#513EFF"/>
<stop offset="0.18" stop-color="#5157FF"/>
<stop offset="0.57" stop-color="#5298FF"/>
<stop offset="1" stop-color="#52E5FF"/>
</linearGradient>
</defs>
</svg>
