<svg width="16" height="16" viewBox="0 0 16 16" fill="none" xmlns="http://www.w3.org/2000/svg">
<path d="M13.375 10.8138V13C13.375 14.1046 12.4796 15 11.375 15H3C1.89543 15 1 14.1046 1 13V4.625C1 3.52043 1.89543 2.625 3 2.625H5.18619" stroke="#B4C5D5" stroke-width="1.5" stroke-linecap="round"/>
<path fill-rule="evenodd" clip-rule="evenodd" d="M9.78302 7.26959C9.49012 7.56248 9.01525 7.56248 8.72236 7.26959C8.42946 6.9767 8.42946 6.50182 8.72235 6.20893L12.5109 2.42033H9.479C9.06479 2.42033 8.729 2.08454 8.729 1.67033C8.729 1.25612 9.06479 0.92033 9.479 0.92033H14.348C14.7622 0.92033 15.098 1.25612 15.098 1.67033V6.67132C15.098 7.08554 14.7622 7.42132 14.348 7.42132C13.9338 7.42132 13.598 7.08554 13.598 6.67132V3.45458L9.78302 7.26959Z" fill="#B4C5D5"/>
</svg>
