<svg width="20" height="15" viewBox="0 0 20 15" fill="none" xmlns="http://www.w3.org/2000/svg">
<path d="M10 0.00136375C8.35987 -0.0190601 6.7367 0.334919 5.254 1.03636C4.10469 1.59714 3.07265 2.37159 2.213 3.31836C1.30243 4.29725 0.585467 5.4397 0.1 6.68536L0 7.00136L0.105 7.31736C0.590815 8.56193 1.30624 9.70409 2.214 10.6844C3.07334 11.6311 4.10504 12.4055 5.254 12.9664C6.73671 13.6678 8.35988 14.0218 10 14.0014C11.6401 14.0217 13.2633 13.6677 14.746 12.9664C15.8953 12.4056 16.9274 11.6312 17.787 10.6844C18.6993 9.70681 19.4165 8.564 19.9 7.31736L20 7.00136L19.895 6.68536C18.3262 2.60158 14.3742 -0.0679827 10 0.00136375ZM10 12.0014C6.59587 12.108 3.47142 10.1263 2.117 7.00136C3.4712 3.87627 6.59579 1.89441 10 2.00136C13.4041 1.89497 16.5284 3.87665 17.883 7.00136C16.5304 10.1278 13.4047 12.1103 10 12.0014ZM10 4.00136C8.55733 3.99181 7.30937 5.004 7.02097 6.41759C6.73256 7.83118 7.48427 9.25134 8.81538 9.8077C10.1465 10.3641 11.6852 9.90123 12.4885 8.70286C13.2919 7.50449 13.1354 5.90529 12.115 4.88536C11.5563 4.32011 10.7948 4.0018 10 4.00136Z" fill="#0ED3DF"/>
</svg>
