<svg width="20" height="10" viewBox="0 0 20 10" fill="none" xmlns="http://www.w3.org/2000/svg">
<path fill-rule="evenodd" clip-rule="evenodd" d="M0 0.000911806C0.000171789 0.000368951 0.000675443 0 0.00124483 0H2.11633C2.11685 0 2.11721 0.000540295 2.117 0.00102419L2.117 0.00160783C3.47149 3.12638 6.59585 5.10795 9.99987 5.00136C13.4045 5.11025 16.5301 3.12788 17.8827 0.00160787V0.00102431C17.8825 0.000540675 17.8829 0 17.8834 0H19.9985C19.9991 0 19.9996 0.000365789 19.9997 0.000907773L19.9997 0.00172529L19.8999 0.317316C19.4164 1.56396 18.6992 2.70677 17.7869 3.68436C17.7291 3.748 17.6705 3.81086 17.6112 3.87293L18.7208 5.45764C19.0376 5.91004 18.9277 6.53359 18.4753 6.85036C18.0229 7.16714 17.3993 7.05719 17.0825 6.60479L16.0848 5.17991C15.6603 5.47547 15.2128 5.73854 14.7459 5.96636C14.3087 6.17315 13.8592 6.34975 13.4008 6.49546L13.7766 7.89796C13.9195 8.43142 13.6029 8.97976 13.0695 9.1227C12.536 9.26564 11.9877 8.94906 11.8447 8.4156L11.4446 6.9222C10.9666 6.98073 10.484 7.00735 9.99987 7.00136C9.51592 7.00738 9.03345 6.9808 8.55562 6.92232L8.1555 8.4156C8.01256 8.94906 7.46422 9.26564 6.93075 9.1227C6.39729 8.97976 6.08071 8.43142 6.22365 7.89796L6.59939 6.49565C6.14078 6.3499 5.69122 6.17324 5.25387 5.96636C4.81411 5.75167 4.39153 5.50571 3.98921 5.23079L2.85383 6.58389C2.49883 7.00696 1.86807 7.06215 1.445 6.70714C1.02192 6.35214 0.96674 5.72139 1.32174 5.29831L2.45811 3.94404C2.37524 3.85899 2.29381 3.77242 2.21387 3.68436C1.30611 2.70405 0.590687 1.56189 0.104872 0.317316L5.7674e-06 0.00171751L0 0.000911806Z" fill="#0ED3DF"/>
</svg>
