<svg width="56" height="56" viewBox="0 0 56 56" fill="none" xmlns="http://www.w3.org/2000/svg">
    <path fill-rule="evenodd" clip-rule="evenodd" d="M29.2088 35.0886V51.4489C29.2088 52.3174 28.6631 52.7333 27.9893 52.3666L18.7353 47.2921C17.9861 46.7868 17.5298 45.9481 17.5088 45.0444V29.0579C17.6439 29.1666 17.7878 29.2614 17.9387 29.3456L29.2088 35.0886Z" fill="#425CC7"/>
    <mask id="mask0_1907_21186" style="mask-type:alpha" maskUnits="userSpaceOnUse" x="17" y="3" width="22" height="25">
    <path d="M17.5 3.5H38.1323V27.3695H17.5V3.5Z" fill="white"/>
    </mask>
    <g mask="url(#mask0_1907_21186)">
    <path fill-rule="evenodd" clip-rule="evenodd" d="M18.5346 27.2694L37.1128 17.7434C37.7322 17.3521 38.1165 16.6748 38.1323 15.9414V4.36248C38.1323 3.64483 37.6726 3.31495 37.1128 3.60096L19.9927 12.3812C18.2258 13.3287 17.4082 13.7744 17.5082 15.7764V26.5079C17.5082 27.1904 17.9749 27.5571 18.5346 27.2694Z" fill="#005CB9"/>
    </g>
    <path fill-rule="evenodd" clip-rule="evenodd" d="M18.5343 14.0192L37.1125 23.5452C37.7336 23.94 38.1161 24.619 38.1319 25.3542V36.9261C38.1319 37.6437 37.6722 37.9806 37.1125 37.6946L18.5343 28.1669C17.9114 27.7756 17.5254 27.0966 17.5078 26.3596V14.786C17.5078 14.0771 17.9745 13.7314 18.5343 14.0192Z" fill="#3CB4E5"/>
    <path fill-rule="evenodd" clip-rule="evenodd" d="M18.5343 27.2706L31.4555 20.6451L18.5343 14.0195C18.3167 13.8757 18.0342 13.8757 17.8166 14.0195C17.6289 14.3634 17.5236 14.746 17.5078 15.139V26.3582C17.5148 26.6056 17.5657 26.8477 17.6587 27.0776C17.8289 27.3689 18.2027 27.4671 18.4939 27.2969C18.5062 27.2882 18.5202 27.2794 18.5343 27.2706Z" fill="#00A0DF"/>
</svg>