<svg width="477" height="255" viewBox="0 0 477 255" fill="none" xmlns="http://www.w3.org/2000/svg">
<g opacity="0.9">
<path d="M321.163 70.9803C316.772 73.8641 311.679 74.3809 307.998 72.6958C306.807 72.1509 305.584 70.7142 304.201 69.4103C302.817 68.1064 303.743 57.8127 309.872 53.7878C316 49.7629 323.494 50.0822 326.128 54.1734C326.813 55.8293 327.772 58.0532 327.963 59.411C328.121 63.5032 325.615 68.0562 321.163 70.9803Z" fill="#5AB5ED"/>
<ellipse cx="314.321" cy="60.536" rx="10.2844" ry="13.4294" transform="rotate(56.7043 314.321 60.536)" fill="#D7EFF9"/>
<path d="M311.746 61.3965L309.956 58.0499L307.716 60.8696C306.647 62.2161 306.344 64.0177 306.915 65.6396L307.343 66.8542L311.746 61.3965Z" fill="#425CC7"/>
<path d="M310.957 59.2282L309.956 58.0499L311.746 61.3965L312.736 62.4634L310.957 59.2282Z" fill="#314494"/>
<path d="M321.957 53.7784L321.524 52.8779L317.983 55.6118L319.306 58.3546L321.867 54.7959C322.081 54.4988 322.116 54.1084 321.957 53.7784Z" fill="#0050A1"/>
<path d="M314.56 58.6035L319.306 58.3546L318.586 56.8542L314.087 56.0194L314.56 58.6035Z" fill="#004387"/>
<path d="M311.948 55.4891L313.596 53.4822L321.524 52.8779L318.615 56.9187L312.755 57.1233C311.895 57.1534 311.401 56.1544 311.948 55.4891Z" fill="#005CB9"/>
<path d="M316.594 58.4586L315.681 57.046L316.956 59.3435L317.641 60.5099L316.594 58.4586Z" fill="#2F8CB3"/>
<path d="M317.332 59.9478L316.974 59.2965L313.79 63.5012L313.801 63.5165C314.199 64.0591 315.009 64.0608 315.41 63.5199L317.259 61.025C317.492 60.711 317.52 60.2902 317.332 59.9478Z" fill="#3296BF"/>
<path d="M309.053 67.0063L312.736 62.4634L311.746 61.3965L307.343 66.8541L307.565 67.0791C307.983 67.5033 308.678 67.4693 309.053 67.0063Z" fill="#374DA6"/>
<path d="M310.961 56.693L313.598 53.4828L316.975 59.297L313.791 63.5016L310.844 57.786C310.662 57.4311 310.707 57.0015 310.961 56.693Z" fill="#3CB4E5"/>
<path fill-rule="evenodd" clip-rule="evenodd" d="M315.647 57.0108L310.743 57.1938C310.767 57.016 310.838 56.8444 310.956 56.6991L313.598 53.4829L315.647 57.0108Z" fill="#00A0DF"/>
</g>
<path d="M321.361 212.219C315.701 215.935 309.137 216.602 304.392 214.43C302.857 213.727 301.281 211.876 299.498 210.195C297.714 208.514 298.909 195.247 306.807 190.06C314.706 184.872 324.365 185.284 327.759 190.557C328.642 192.691 329.879 195.557 330.125 197.307C330.328 202.582 327.099 208.45 321.361 212.219Z" fill="#5AB5ED"/>
<ellipse cx="312.542" cy="198.757" rx="13.2553" ry="17.3088" transform="rotate(56.7043 312.542 198.757)" fill="#D7EFF9"/>
<path d="M309.224 199.866L306.917 195.553L303.534 199.812C302.464 201.159 302.162 202.96 302.733 204.582L303.549 206.901L309.224 199.866Z" fill="#425CC7"/>
<path d="M308.206 197.072L306.916 195.553L309.224 199.866L310.499 201.241L308.206 197.072Z" fill="#314494"/>
<path d="M322.459 190.202L321.826 188.887L317.263 192.41L318.967 195.946L322.369 191.22C322.583 190.922 322.617 190.532 322.459 190.202Z" fill="#0050A1"/>
<path d="M312.85 196.266L318.967 195.946L318.039 194.012L312.24 192.936L312.85 196.266Z" fill="#004387"/>
<path d="M309.077 192.747L311.609 189.666L321.826 188.887L318.077 194.095L309.885 194.381C309.024 194.411 308.531 193.412 309.077 192.747Z" fill="#005CB9"/>
<path d="M315.471 196.08L314.295 194.259L315.939 197.22L316.822 198.724L315.471 196.08Z" fill="#2F8CB3"/>
<path d="M316.513 198.161L315.962 197.16L311.858 202.579L312.104 202.914C312.503 203.457 313.313 203.459 313.714 202.918L316.44 199.239C316.673 198.925 316.701 198.504 316.513 198.161Z" fill="#3296BF"/>
<path d="M305.549 207.347L310.498 201.241L309.223 199.866L303.548 206.9L304.061 207.42C304.479 207.844 305.174 207.81 305.549 207.347Z" fill="#374DA6"/>
<path d="M308.09 193.951L311.609 189.666L315.962 197.16L311.858 202.579L307.974 195.044C307.791 194.689 307.836 194.259 308.09 193.951Z" fill="#3CB4E5"/>
<path fill-rule="evenodd" clip-rule="evenodd" d="M314.25 194.214L307.871 194.452C307.895 194.28 307.962 194.114 308.073 193.972L311.61 189.667L314.25 194.214Z" fill="#00A0DF"/>
<g opacity="0.4">
<path d="M166.55 103.201C166.864 107.678 165.121 111.689 162.327 113.729C161.424 114.388 159.842 114.699 158.293 115.186C156.743 115.672 149.459 110.68 149.021 104.432C148.582 98.1839 151.951 92.733 156.1 92.4796C157.62 92.6612 159.678 92.8754 160.77 93.3005C163.885 94.8926 166.231 98.6621 166.55 103.201Z" fill="#5AB5ED"/>
<ellipse cx="155.908" cy="103.936" rx="8.78611" ry="11.4729" transform="rotate(-4.01656 155.908 103.936)" fill="#D7EFF9"/>
<path d="M155.473 106.214L152.232 106.151L153.244 108.625C153.896 110.216 155.319 111.361 157.013 111.656L157.701 111.776L155.473 106.214Z" fill="#425CC7"/>
<path d="M153.528 105.897L152.232 106.151L155.473 106.214L156.682 105.923L153.528 105.897Z" fill="#314494"/>
<path d="M153.977 95.4172L153.211 95.3691L153.769 99.1496L156.365 99.3102L154.82 95.993C154.666 95.6611 154.342 95.4402 153.977 95.4172Z" fill="#0050A1"/>
<path d="M154.568 102.951L156.365 99.3103L154.947 99.2197L152.445 102.223L154.568 102.951Z" fill="#004387"/>
<path d="M151.038 103.296L150.349 101.529L153.211 95.3692L155.007 99.2249L152.859 103.39C152.464 104.156 151.351 104.098 151.038 103.296Z" fill="#005CB9"/>
<path d="M155.31 101.375L153.875 101.465L156.121 101.474L157.276 101.451L155.31 101.375Z" fill="#2F8CB3"/>
<path d="M156.634 101.446L156.093 101.442L157.896 105.571C158.474 105.5 158.819 104.888 158.58 104.356L157.538 102.036C157.378 101.68 157.025 101.449 156.634 101.446Z" fill="#3296BF"/>
<path d="M158.468 110.414L156.682 105.923L155.473 106.214L157.7 111.776L157.804 111.748C158.379 111.59 158.689 110.968 158.468 110.414Z" fill="#374DA6"/>
<path d="M151.606 104.745L150.35 101.528L156.094 101.441L157.896 105.57L152.502 105.381C152.103 105.367 151.751 105.117 151.606 104.745Z" fill="#3CB4E5"/>
<path fill-rule="evenodd" clip-rule="evenodd" d="M153.835 101.475L151.936 105.181C151.792 105.072 151.677 104.926 151.608 104.752L150.35 101.528L150.35 101.528L153.835 101.475Z" fill="#00A0DF"/>
</g>
<path d="M287.549 178.059C271.476 200.092 247.668 211.903 226.698 210.437C219.917 209.963 211.351 205.213 202.245 201.403C193.139 197.593 178.846 145.874 201.28 115.123C223.714 84.3715 260.717 72.2392 280.988 87.3126C287.34 94.1098 296.064 103.166 299.471 109.416C307.711 129.016 303.847 155.719 287.549 178.059Z" fill="#5AB5ED"/>
<ellipse cx="235.226" cy="139.794" rx="53.3934" ry="69.7213" transform="rotate(36.1118 235.226 139.794)" fill="#D7EFF9"/>
<path d="M274.375 168.376C264.074 182.496 250.376 192.066 236.574 196.14C222.773 200.213 208.897 198.785 198.174 190.962C187.451 183.139 181.855 170.362 181.52 155.976C181.185 141.59 186.116 125.623 196.417 111.503C206.718 97.3834 220.417 87.8128 234.218 83.7395C248.02 79.6663 261.895 81.0943 272.619 88.9172C283.342 96.7401 288.938 109.517 289.273 123.903C289.608 138.29 284.676 154.256 274.375 168.376Z" stroke="black" stroke-opacity="0.1"/>
<path d="M224.459 148.824L209.639 135.3L200.339 164.657C199.822 166.288 200.175 168.07 201.275 169.38L213.024 183.389L224.459 148.824Z" fill="#425CC7"/>
<path d="M217.339 139.5L209.639 135.3L224.459 148.824L231.216 152.202L217.339 139.5Z" fill="#314494"/>
<path d="M261.973 94.8764L256.425 89.5696L244.21 109.321L255.645 120.236L262.247 95.8605C262.342 95.5071 262.237 95.1296 261.973 94.8764Z" fill="#0050A1"/>
<path d="M233.035 130.112L255.645 120.236L249.408 114.259L226.018 118.417L233.035 130.112Z" fill="#004387"/>
<path d="M211.659 128.535L219.001 106.982L256.425 89.5696L249.668 114.519L212.989 129.781C212.195 130.112 211.381 129.35 211.659 128.535Z" fill="#005CB9"/>
<path d="M242.651 125.694L235.634 120.496L246.029 129.332L250.971 133.333L250.789 133.114L242.651 125.694Z" fill="#2F8CB3"/>
<path d="M251 133.333L246.029 129.072L238.233 155.321L243.075 158.479C243.638 158.847 244.397 158.563 244.582 157.916L251.311 134.367C251.418 133.991 251.297 133.587 251 133.333Z" fill="#3296BF"/>
<path d="M220.134 185.447L231.216 152.202L224.458 148.824L213.023 183.389L218.766 186.039C219.307 186.289 219.945 186.013 220.134 185.447Z" fill="#374DA6"/>
<path d="M211.156 130.009L219.001 106.982L246.029 129.072L238.232 155.321L211.432 131.073C211.136 130.805 211.028 130.387 211.156 130.009Z" fill="#3CB4E5"/>
<path fill-rule="evenodd" clip-rule="evenodd" d="M235.401 120.386L211.128 130.555C211.088 130.377 211.095 130.189 211.156 130.009L219.001 106.982L235.401 120.386Z" fill="#00A0DF"/>
<path fill-rule="evenodd" clip-rule="evenodd" d="M275.646 64.9799L338.313 2.31311L338.46 2.16666H338.667H471.047C471.281 0.932899 472.365 0 473.667 0C475.139 0 476.333 1.1939 476.333 2.66666C476.333 4.13942 475.139 5.33333 473.667 5.33333C472.365 5.33333 471.281 4.40043 471.047 3.16666H338.874L276.354 65.687L275.646 64.9799ZM168.192 44.3131L193.025 69.1464L192.318 69.8536L167.631 45.1667H16.2865C16.0525 46.4004 14.9685 47.3333 13.6666 47.3333C12.1939 47.3333 11 46.1394 11 44.6667C11 43.1939 12.1939 42 13.6666 42C14.9685 42 16.0525 42.9329 16.2865 44.1667H167.838H168.045L168.192 44.3131ZM395.38 129.5H323V130.5H395.38C395.614 131.734 396.698 132.667 398 132.667C399.473 132.667 400.667 131.473 400.667 130C400.667 128.527 399.473 127.333 398 127.333C396.698 127.333 395.614 128.266 395.38 129.5ZM155.46 205.167H28.2865C28.0525 206.4 26.9685 207.333 25.6667 207.333C24.1939 207.333 23 206.139 23 204.667C23 203.194 24.1939 202 25.6667 202C26.9685 202 28.0525 202.933 28.2865 204.167H155.667H155.874L156.02 204.313L187.52 235.813L186.813 236.52L155.46 205.167ZM313.646 251.854L314.167 251.333V252.167H443.047C443.281 253.4 444.365 254.333 445.667 254.333C447.139 254.333 448.333 253.139 448.333 251.667C448.333 250.194 447.139 249 445.667 249C444.365 249 443.281 249.933 443.047 251.167H314.333L314.354 251.146L279.354 216.146L278.646 216.854L313.646 251.854ZM329 239.667C329 241.139 330.194 242.333 331.667 242.333C332.969 242.333 334.053 241.4 334.287 240.167H461.047C461.281 241.4 462.365 242.333 463.667 242.333C465.139 242.333 466.333 241.139 466.333 239.667C466.333 238.194 465.139 237 463.667 237C462.365 237 461.281 237.933 461.047 239.167H334.287C334.053 237.933 332.969 237 331.667 237C330.194 237 329 238.194 329 239.667ZM334.313 191.02L317.147 173.854L317.854 173.146L334.874 190.167H467.047C467.281 188.933 468.365 188 469.667 188C471.139 188 472.333 189.194 472.333 190.667C472.333 192.139 471.139 193.333 469.667 193.333C468.365 193.333 467.281 192.4 467.047 191.167H334.667H334.46L334.313 191.02ZM153.354 148.52L128.02 173.854L127.874 174H127.667H-4.7135C-4.94754 175.234 -6.03151 176.167 -7.33337 176.167C-8.80614 176.167 -10 174.973 -10 173.5C-10 172.027 -8.80614 170.833 -7.33337 170.833C-6.03151 170.833 -4.94754 171.766 -4.7135 173H127.46L152.646 147.813L153.354 148.52ZM140.333 127.667C140.333 129.139 139.139 130.333 137.667 130.333C137.111 130.333 136.595 130.163 136.168 129.873L114.02 152.02L113.874 152.167H113.667H-18.7135C-18.9475 153.4 -20.0315 154.333 -21.3333 154.333C-22.8061 154.333 -24 153.139 -24 151.667C-24 150.194 -22.8061 149 -21.3333 149C-20.0315 149 -18.9475 149.933 -18.7135 151.167H113.46L135.461 129.165C135.17 128.738 135 128.222 135 127.667C135 126.194 136.194 125 137.667 125C139.139 125 140.333 126.194 140.333 127.667ZM171.667 235C173.139 235 174.333 236.194 174.333 237.667C174.333 239.139 173.139 240.333 171.667 240.333C170.194 240.333 169 239.139 169 237.667C169 237.111 169.17 236.595 169.461 236.168L149.46 216.167H17.2865C17.0525 217.4 15.9685 218.333 14.6667 218.333C13.1939 218.333 12 217.139 12 215.667C12 214.194 13.1939 213 14.6667 213C15.9685 213 17.0525 213.933 17.2865 215.167H149.667H149.874L150.02 215.313L170.168 235.461C170.595 235.17 171.111 235 171.667 235Z" fill="url(#paint0_radial_5416_16066)"/>
<defs>
<radialGradient id="paint0_radial_5416_16066" cx="0" cy="0" r="1" gradientUnits="userSpaceOnUse" gradientTransform="translate(238 127) rotate(178.59) scale(169.885 286.553)">
<stop stop-color="#EFF7FF"/>
<stop offset="1" stop-color="#0066FF" stop-opacity="0"/>
</radialGradient>
</defs>
</svg>
