<svg width="10" height="24" viewBox="0 0 10 24" fill="none" xmlns="http://www.w3.org/2000/svg">
<path fill-rule="evenodd" clip-rule="evenodd" d="M9.52664 7.23501L7.34303 8.35466L0.998058 5.07165C0.998058 5.07165 1.3481 4.86387 1.57232 4.74363L9.52664 0.664158C9.78671 0.531273 10.0003 0.684539 10.0003 1.01797V6.39776C9.99296 6.73853 9.81443 7.05322 9.52664 7.23501ZM9.52632 9.93076L7.32803 8.80359L0.894531 12.0781L9.52632 16.5049C9.78638 16.6378 9.99998 16.4812 9.99998 16.1478V10.7713C9.99264 10.4297 9.81491 10.1142 9.52632 9.93076ZM5.85401 15.294V22.8953C5.85401 23.2989 5.60047 23.4921 5.28741 23.3217L0.987823 20.964C0.639715 20.7292 0.427752 20.3395 0.417969 19.9197V12.492C0.480742 12.5425 0.547592 12.5866 0.617703 12.6257L5.85401 15.294ZM6.89833 8.58334L0.894886 11.6617C0.888364 11.6658 0.881842 11.6699 0.876135 11.6739C0.740805 11.753 0.567158 11.7074 0.48808 11.572C0.444872 11.4652 0.42123 11.3527 0.417969 11.2378V6.02511C0.425306 5.8425 0.474221 5.66477 0.561451 5.50499C0.662542 5.43814 0.793796 5.43814 0.894886 5.50499L6.89833 8.58334Z" fill="#0ED3DF"/>
</svg>
