<svg width="18" height="19" viewBox="0 0 18 19" fill="none" xmlns="http://www.w3.org/2000/svg">
<path d="M9.52734 18.4707C10.7663 18.4707 11.887 18.3132 12.8896 17.998V16.0752C12.4743 16.2184 11.9909 16.3258 11.4395 16.3975C10.8952 16.4762 10.3366 16.5156 9.76367 16.5156C8.23112 16.5156 6.89909 16.2363 5.76758 15.6777C4.64323 15.112 3.76953 14.2992 3.14648 13.2393C2.5306 12.1794 2.22266 10.9118 2.22266 9.43652V9.41504C2.22266 8.35514 2.39095 7.38835 2.72754 6.51465C3.06413 5.63379 3.54036 4.87826 4.15625 4.24805C4.77214 3.61068 5.50618 3.12012 6.3584 2.77637C7.21777 2.43262 8.16309 2.26074 9.19434 2.26074C10.5264 2.26074 11.6829 2.52572 12.6641 3.05566C13.6452 3.57845 14.4007 4.32324 14.9307 5.29004C15.4678 6.24967 15.7363 7.38835 15.7363 8.70605V8.72754C15.7363 9.71582 15.6038 10.4964 15.3389 11.0693C15.0739 11.6423 14.7158 11.9287 14.2646 11.9287C13.9567 11.9287 13.7132 11.7962 13.5342 11.5312C13.3551 11.2591 13.2656 10.876 13.2656 10.3818V5.21484H10.7949V6.54688H10.6553C10.4404 6.04557 10.1074 5.65885 9.65625 5.38672C9.20508 5.10742 8.68229 4.96777 8.08789 4.96777C7.38607 4.96777 6.76302 5.15397 6.21875 5.52637C5.67448 5.89876 5.24479 6.41797 4.92969 7.08398C4.62174 7.75 4.46777 8.52344 4.46777 9.4043V9.41504C4.46777 10.3389 4.62174 11.1481 4.92969 11.8428C5.24479 12.5303 5.67806 13.0674 6.22949 13.4541C6.78809 13.8337 7.43262 14.0234 8.16309 14.0234C8.81478 14.0234 9.37337 13.873 9.83887 13.5723C10.3044 13.2715 10.666 12.8275 10.9238 12.2402H11.0635L11.1387 12.4014C11.3392 12.8955 11.6794 13.2858 12.1592 13.5723C12.6462 13.8587 13.2227 14.002 13.8887 14.002C14.7122 14.002 15.4284 13.7799 16.0371 13.3359C16.6458 12.8919 17.1185 12.2617 17.4551 11.4453C17.7917 10.6289 17.96 9.65853 17.96 8.53418V8.5127C17.96 6.87988 17.5947 5.45117 16.8643 4.22656C16.1338 3.00195 15.1133 2.05306 13.8027 1.37988C12.4993 0.699544 10.974 0.359375 9.22656 0.359375C7.86589 0.359375 6.61979 0.577799 5.48828 1.01465C4.35677 1.44434 3.38281 2.06022 2.56641 2.8623C1.75 3.66439 1.11621 4.61686 0.665039 5.71973C0.221029 6.82259 -0.000976562 8.04362 -0.000976562 9.38281V9.4043C-0.000976562 10.7793 0.22819 12.0254 0.686523 13.1426C1.14486 14.2598 1.79297 15.2122 2.63086 16C3.47591 16.7949 4.4821 17.4036 5.64941 17.8262C6.81673 18.2559 8.10938 18.4707 9.52734 18.4707ZM8.88281 11.8105C8.56055 11.8105 8.27767 11.7174 8.03418 11.5312C7.79785 11.3451 7.61523 11.0801 7.48633 10.7363C7.35742 10.3854 7.29297 9.97005 7.29297 9.49023V9.47949C7.29297 8.99251 7.35742 8.57715 7.48633 8.2334C7.61523 7.88965 7.79785 7.62826 8.03418 7.44922C8.27767 7.26302 8.56413 7.16992 8.89355 7.16992C9.38053 7.16992 9.77083 7.37402 10.0645 7.78223C10.3581 8.19043 10.5049 8.7526 10.5049 9.46875V9.49023C10.5049 10.2064 10.3581 10.7721 10.0645 11.1875C9.77799 11.6029 9.38411 11.8105 8.88281 11.8105Z" fill="#0ED3DF"/>
</svg>
