<svg width="40" height="40" viewBox="0 0 40 40" fill="none" xmlns="http://www.w3.org/2000/svg">
    <path d="M20 40C31.0457 40 40 31.0457 40 20C40 8.9543 31.0457 0 20 0C8.9543 0 0 8.9543 0 20C0 31.0457 8.9543 40 20 40Z" fill="#0ED3DF" fill-opacity="0.2"/>
    <path d="M18.5417 18.3333C23.2591 18.3333 27.0833 17.0275 27.0833 15.4167C27.0833 13.8058 23.2591 12.5 18.5417 12.5C13.8242 12.5 10 13.8058 10 15.4167C10 17.0275 13.8242 18.3333 18.5417 18.3333Z" fill="#0ED3DF" fill-opacity="0.4"/>
    <path d="M23.2213 22.5C27.7935 22.5 31.5 21.191 31.5 19.5764C31.5 18.4772 29.7823 17.5196 27.2431 17.0203C26.0524 16.7861 27.4137 18.6372 26.875 19.5764C26.5956 20.0636 26.7621 20.5509 24.4757 21.0382C22.1893 21.5255 18.6492 22.5 23.2213 22.5Z" fill="#0ED3DF" fill-opacity="0.4"/>
    <path d="M19.8232 27C23.3803 27 26.411 26.1898 27.5651 25.0548C27.8875 24.7377 23.8067 26.7072 19.8232 26.0126C14.3298 25.0548 13.5806 23.5443 13.8433 22C12.4424 22.531 11.583 23.2484 11.583 24.0379C11.583 25.6738 15.2723 27 19.8232 27Z" fill="#0ED3DF" fill-opacity="0.4"/>
    <rect x="16.5" y="18" width="3.5" height="3.5" fill="#0ED3DF"/>
    <rect x="21.5" y="22.5" width="3.5" height="3.5" fill="#0ED3DF"/>
    <rect x="19" y="27" width="3.5" height="3.5" fill="#0ED3DF"/>
    <path fill-rule="evenodd" clip-rule="evenodd" d="M29.331 25.2442V27.6124C29.331 29.4829 25.2732 31 20.2676 31C15.262 31 11.2042 29.4829 11.2042 27.6124V24.0775C11.2042 23.238 12.0219 22.4721 13.3732 21.8799V21.699C11.0323 21.0864 9.5 20.0713 9.5 18.9225V15.3876C9.5 13.5171 13.5578 12 18.5634 12C23.569 12 27.6268 13.5171 27.6268 15.3876V16.7353C29.9677 17.3477 31.5 18.3628 31.5 19.5116V23.0465C31.5 23.886 30.6823 24.6519 29.331 25.2442ZM12.1339 27.6126H12.1401C12.1376 27.637 12.1339 27.6615 12.1339 27.6862C12.1339 29.0284 15.7755 30.1164 20.2677 30.1164C24.7599 30.1164 28.4015 29.0284 28.4015 27.6862C28.4015 27.6615 28.3978 27.637 28.3953 27.6126H28.4015V25.5961C28.3806 25.603 28.3595 25.6098 28.3383 25.6165C26.8381 26.7141 23.7897 27.4653 20.2677 27.4653C16.698 27.4653 13.6116 26.6936 12.1339 25.5725V27.6126ZM12.1339 24.1513C12.1339 25.4935 15.7755 26.5815 20.2677 26.5815C21.2353 26.583 22.2021 26.5298 23.163 26.4224C22.9232 26.4295 22.6815 26.4342 22.4367 26.4342C17.4311 26.4342 13.3734 24.9172 13.3734 23.0466V22.8622C12.5891 23.236 12.1339 23.6776 12.1339 24.1513ZM26.6973 15.4613C26.6973 14.1191 23.0565 13.0311 18.5635 13.0311C14.0706 13.0311 10.4297 14.1191 10.4297 15.4613C10.4297 16.8035 14.0713 17.8916 18.5635 17.8916C23.0557 17.8916 26.6973 16.8035 26.6973 15.4613ZM26.6973 18.9226V16.8825C25.2196 18.0037 22.1333 18.7753 18.5635 18.7753C14.9938 18.7753 11.9074 18.0037 10.4297 16.8825V18.9226H10.4359C10.4334 18.947 10.4297 18.9715 10.4297 18.9962C10.4297 20.3384 14.0713 21.4265 18.5635 21.4265C23.0557 21.4265 26.6973 20.3384 26.6973 18.9962C26.6973 18.9715 26.6936 18.947 26.6911 18.9226H26.6973ZM30.5706 19.5854C30.5706 18.8327 29.4251 18.1601 27.627 17.7148V18.9226C27.627 20.3001 25.4256 21.4854 22.2664 22.0143C22.3231 22.0143 22.3794 22.0156 22.4368 22.0156C26.9298 22.0156 30.5706 20.9276 30.5706 19.5854ZM30.5706 23.0467V21.0067C29.0929 22.1278 26.0065 22.8994 22.4368 22.8994C20.6651 22.9142 18.8992 22.7029 17.1866 22.2714C16.2175 22.2188 15.2537 22.0989 14.303 21.9126V23.0467H14.3092C14.3067 23.0712 14.303 23.0956 14.303 23.1204C14.303 24.4626 17.9446 25.5506 22.4368 25.5506C26.929 25.5506 30.5706 24.4626 30.5706 23.1204C30.5706 23.0956 30.5669 23.0712 30.5644 23.0467H30.5706Z" fill="#0ED3DF"/>
</svg>
