<svg width="24" height="24" viewBox="0 0 24 24" fill="none" xmlns="http://www.w3.org/2000/svg">
<path fill-rule="evenodd" clip-rule="evenodd" d="M14 4H5C4.44772 4 4 4.44772 4 5V6.17071C4.31278 6.06015 4.64936 6 5 6H15V5C15 4.44772 14.5523 4 14 4ZM17 6H19C20.6569 6 22 7.34315 22 9V11V13V15V17V19C22 20.6569 20.6569 22 19 22H5C3.34315 22 2 20.6569 2 19V9V5C2 3.34315 3.34315 2 5 2H14C15.6569 2 17 3.34315 17 5V6ZM19 8H5C4.44772 8 4 8.44772 4 9V19C4 19.5523 4.44772 20 5 20H19C19.5523 20 20 19.5523 20 19V17H16C14.3431 17 13 15.6569 13 14C13 12.3431 14.3431 11 16 11H20V9C20 8.44771 19.5523 8 19 8ZM16 13H20V15H16C15.4477 15 15 14.5523 15 14C15 13.4477 15.4477 13 16 13Z" fill="#0ED3DF"/>
</svg>
