<svg width="24" height="24" viewBox="0 0 24 24" fill="none" xmlns="http://www.w3.org/2000/svg">
<path d="M21.926 19.2148L17.908 9.48235C17.8338 9.30262 17.7079 9.14896 17.5463 9.04084C17.3847 8.93272 17.1946 8.875 17.0002 8.875C16.8057 8.875 16.6156 8.93272 16.454 9.04084C16.2924 9.14896 16.1665 9.30262 16.0923 9.48235L12.0743 19.2148C12.0244 19.3341 11.9985 19.4622 11.9982 19.5916C11.9978 19.721 12.0231 19.8491 12.0724 19.9687C12.1218 20.0883 12.1943 20.197 12.2858 20.2885C12.3773 20.38 12.486 20.4525 12.6055 20.5019C12.7251 20.5513 12.8533 20.5765 12.9827 20.5762C13.1121 20.5759 13.2401 20.55 13.3595 20.5001C13.4789 20.4501 13.5872 20.3771 13.6782 20.2851C13.7693 20.1932 13.8412 20.0842 13.89 19.9644L14.7084 17.9826H19.292L20.1103 19.9644C20.1845 20.1442 20.3104 20.2979 20.4721 20.4061C20.6337 20.5142 20.8239 20.572 21.0184 20.572C21.1798 20.5719 21.3386 20.532 21.481 20.4559C21.6233 20.3798 21.7446 20.2698 21.8343 20.1356C21.924 20.0014 21.9793 19.8472 21.9952 19.6866C22.0111 19.526 21.9872 19.3639 21.9255 19.2148H21.926ZM15.5195 16.0183L17.0004 12.4311L18.4812 16.0183H15.5195Z" fill="#0ED3DF"/>
<path d="M12.5289 15.1665C12.6815 14.9557 12.7442 14.693 12.7032 14.436C12.6623 14.179 12.5211 13.9488 12.3106 13.7959C12.3016 13.7892 11.6409 13.299 10.6815 12.2454C12.4516 9.84889 13.4543 7.12247 13.8633 5.8394H15.304C15.5644 5.8394 15.8143 5.73592 15.9985 5.55173C16.1826 5.36753 16.2861 5.11771 16.2861 4.85723C16.2861 4.59674 16.1826 4.34692 15.9985 4.16273C15.8143 3.97853 15.5644 3.87505 15.304 3.87505H10.1252V2.98217C10.1252 2.72168 10.0218 2.47186 9.83756 2.28767C9.65337 2.10348 9.40355 2 9.14306 2C8.88258 2 8.63276 2.10348 8.44856 2.28767C8.26437 2.47186 8.16089 2.72168 8.16089 2.98217V3.87505H2.98217C2.72168 3.87505 2.47186 3.97853 2.28767 4.16273C2.10348 4.34692 2 4.59674 2 4.85723C2 5.11771 2.10348 5.36753 2.28767 5.55173C2.47186 5.73592 2.72168 5.8394 2.98217 5.8394H11.7882C11.3632 7.04256 10.5806 8.94216 9.38682 10.677C7.98455 8.81627 7.46355 7.61222 7.45953 7.60239C7.35687 7.36515 7.16482 7.17794 6.92504 7.08137C6.68525 6.98481 6.41706 6.98667 6.17863 7.08655C5.9402 7.18643 5.75077 7.37628 5.65141 7.61493C5.55205 7.85357 5.55078 8.12177 5.64787 8.36134C5.67377 8.42295 6.29745 9.88951 8.00776 12.1083C8.04884 12.1615 8.08946 12.2132 8.13009 12.265C6.37825 14.245 4.65945 15.4732 3.94023 15.8696C3.71154 15.9943 3.54176 16.2048 3.46825 16.4547C3.39474 16.7046 3.42352 16.9735 3.54826 17.2022C3.673 17.4309 3.88348 17.6007 4.13339 17.6742C4.38331 17.7477 4.65219 17.7189 4.88089 17.5942C4.97732 17.5415 7.05059 16.3937 9.41807 13.7731C10.4235 14.8481 11.1145 15.3553 11.1561 15.3848C11.2605 15.4606 11.3789 15.5152 11.5045 15.5453C11.6301 15.5753 11.7603 15.5803 11.8878 15.56C12.0153 15.5397 12.1376 15.4945 12.2476 15.4268C12.3576 15.3592 12.4532 15.2706 12.5289 15.166V15.1665Z" fill="#0ED3DF"/>
</svg>
