<svg width="24" height="24" viewBox="0 0 24 24" fill="none" xmlns="http://www.w3.org/2000/svg">
<path fill-rule="evenodd" clip-rule="evenodd" d="M15 3.99973C15 4.52267 14.8662 5.01436 14.631 5.44243C17.7568 6.53052 20 9.50316 20 12.9997C20 13.6942 19.9115 14.368 19.7452 15.0104C19.8292 15.0033 19.9142 14.9997 20 14.9997C20.623 14.9997 21.2016 15.1896 21.6811 15.5146C21.8893 14.7111 22 13.8684 22 12.9997C22 8.50304 19.032 4.69955 14.9481 3.44141C14.9822 3.62231 15 3.80894 15 3.99973ZM18.5007 20.5988C17.911 20.2578 17.4481 19.722 17.2001 19.0793C15.8017 20.2766 13.9853 20.9997 12 20.9997C10.0147 20.9997 8.19832 20.2766 6.79988 19.0793C6.55192 19.722 6.08904 20.2578 5.49935 20.5988C7.24746 22.0956 9.51815 22.9997 12 22.9997C14.4819 22.9997 16.7525 22.0956 18.5007 20.5988ZM4 12.9997C4 9.50316 6.24322 6.53052 9.36903 5.44243C9.1338 5.01436 9 4.52267 9 3.99973C9 3.80894 9.01781 3.62231 9.05186 3.44141C4.96799 4.69955 2 8.50304 2 12.9997C2 13.8684 2.11075 14.7111 2.31889 15.5146C2.79844 15.1896 3.37704 14.9997 4 14.9997C4.08582 14.9997 4.1708 15.0033 4.25479 15.0104C4.08848 14.368 4 13.6942 4 12.9997Z" fill="#0ED3DF"/>
<circle cx="12" cy="4" r="2" fill="#0ED3DF"/>
<circle cx="4" cy="18" r="2" fill="#0ED3DF"/>
<circle cx="20" cy="18" r="2" fill="#0ED3DF"/>
</svg>
