<svg width="129" height="20" viewBox="0 0 129 20" fill="none" xmlns="http://www.w3.org/2000/svg">
<g clip-path="url(#clip0_2964_12707)">
<path d="M24.7171 15.3865C24.419 15.3865 24.2083 15.3245 24.0849 15.2007C23.9718 15.0768 23.9153 14.8806 23.9153 14.6122V5.64526C23.9153 5.37682 23.9769 5.18065 24.1003 5.05676C24.2237 4.92254 24.4292 4.85542 24.7171 4.85542H28.4948C29.9339 4.85542 30.9927 5.16001 31.6712 5.76915C32.3497 6.37831 32.6889 7.28687 32.6889 8.49485C32.6889 9.6925 32.3497 10.5959 31.6712 11.205C31.003 11.8039 29.9442 12.1033 28.4948 12.1033H27.03V14.6122C27.03 14.8806 26.9683 15.0768 26.845 15.2007C26.7216 15.3245 26.5108 15.3865 26.2127 15.3865H24.7171ZM28.2481 9.85769C28.6696 9.85769 28.9934 9.74413 29.2196 9.51698C29.4559 9.28985 29.5742 8.94913 29.5742 8.49485C29.5742 8.03024 29.4559 7.68437 29.2196 7.45722C28.9934 7.23009 28.6696 7.11651 28.2481 7.11651H27.03V9.85769H28.2481Z" fill="white"/>
<path d="M36.3303 15.6188C35.3641 15.6188 34.588 15.309 34.002 14.6896C33.4263 14.0598 33.1385 13.1771 33.1385 12.0413C33.1385 11.1741 33.3339 10.4152 33.7244 9.76476C34.1254 9.11432 34.6856 8.61358 35.4052 8.26254C36.1351 7.90117 36.9728 7.72049 37.9185 7.72049C38.6998 7.72049 39.3885 7.80825 39.9847 7.98377C40.5912 8.14896 41.1463 8.39159 41.65 8.71166V14.9064C41.65 15.1026 41.6141 15.2317 41.542 15.2936C41.4701 15.3556 41.3262 15.3865 41.1103 15.3865H39.5375C39.4245 15.3865 39.3371 15.3711 39.2755 15.34C39.2137 15.2988 39.1624 15.2368 39.1213 15.1542L38.9207 14.6896C38.6227 15.0096 38.2629 15.242 37.8415 15.3865C37.4303 15.5414 36.9266 15.6188 36.3303 15.6188ZM37.4868 13.5126C37.8877 13.5126 38.2012 13.4145 38.4273 13.2184C38.6535 13.0222 38.7665 12.7434 38.7665 12.382V9.9661C38.5713 9.87317 38.3246 9.82671 38.0265 9.82671C37.4816 9.82671 37.0447 10.0177 36.7158 10.3997C36.3971 10.7817 36.2378 11.3186 36.2378 12.0103C36.2378 13.0119 36.6541 13.5126 37.4868 13.5126Z" fill="white"/>
<path d="M43.7959 15.3865C43.4977 15.3865 43.2869 15.3245 43.1637 15.2007C43.0403 15.0768 42.9786 14.8806 42.9786 14.6122V8.43289C42.9786 8.24705 43.0095 8.12315 43.0711 8.0612C43.143 7.98893 43.2869 7.9528 43.5029 7.9528H45.0911C45.2144 7.9528 45.3069 7.97344 45.3686 8.01474C45.4405 8.04572 45.4816 8.10767 45.4919 8.20059L45.569 8.66519C45.8569 8.37611 46.2321 8.14896 46.6946 7.98377C47.1675 7.80825 47.6917 7.72049 48.2674 7.72049C49.1 7.72049 49.7734 7.95796 50.2873 8.43289C50.8013 8.89749 51.0583 9.58924 51.0583 10.5081V14.6122C51.0583 14.8806 50.9967 15.0768 50.8733 15.2007C50.7602 15.3245 50.5546 15.3865 50.2565 15.3865H48.7608C48.4627 15.3865 48.2469 15.3245 48.1132 15.2007C47.9898 15.0768 47.9282 14.8806 47.9282 14.6122V10.7094C47.9282 10.3997 47.8614 10.1778 47.7278 10.0435C47.5941 9.9093 47.3834 9.8422 47.0956 9.8422C46.7872 9.8422 46.5404 9.92479 46.3554 10.0899C46.1807 10.2552 46.0933 10.4823 46.0933 10.7715V14.6122C46.0933 14.8806 46.0316 15.0768 45.9083 15.2007C45.7952 15.3245 45.5896 15.3865 45.2915 15.3865H43.7959Z" fill="white"/>
<path d="M56.5086 15.6188C55.0695 15.6188 53.9593 15.2832 53.178 14.6122C52.3968 13.9411 52.0061 12.9654 52.0061 11.6851C52.0061 10.9005 52.186 10.2087 52.5457 9.6099C52.9056 9.01107 53.4247 8.54646 54.1031 8.21608C54.7919 7.88569 55.604 7.72049 56.5394 7.72049C57.2487 7.72049 57.8449 7.7876 58.328 7.92183C58.8215 8.05604 59.2583 8.26253 59.6387 8.5413C59.7517 8.61357 59.8083 8.70649 59.8083 8.82007C59.8083 8.90266 59.7672 9.01107 59.6849 9.14528L59.0527 10.2448C58.9808 10.3894 58.8934 10.4617 58.7906 10.4617C58.7289 10.4617 58.6312 10.4204 58.4976 10.3378C58.2201 10.1623 57.958 10.0332 57.7112 9.95061C57.4748 9.86801 57.1767 9.82671 56.817 9.82671C56.3029 9.82671 55.8867 9.99191 55.568 10.3223C55.2596 10.6527 55.1054 11.1069 55.1054 11.6851C55.1054 12.2737 55.2647 12.7279 55.5834 13.0479C55.9021 13.3577 56.339 13.5126 56.894 13.5126C57.2229 13.5126 57.5211 13.4661 57.7884 13.3732C58.0557 13.2803 58.328 13.1513 58.6056 12.986C58.7495 12.9034 58.8523 12.8621 58.914 12.8621C59.0065 12.8621 59.0887 12.9344 59.1607 13.079L59.8545 14.2715C59.9059 14.3747 59.9317 14.4573 59.9317 14.5192C59.9317 14.6122 59.8699 14.6999 59.7466 14.7825C59.3149 15.0613 58.842 15.2677 58.328 15.402C57.8243 15.5465 57.2178 15.6188 56.5086 15.6188Z" fill="white"/>
<path d="M63.8411 15.6188C62.8748 15.6188 62.0987 15.309 61.5128 14.6896C60.9372 14.0598 60.6493 13.1771 60.6493 12.0413C60.6493 11.1741 60.8446 10.4152 61.2353 9.76476C61.6361 9.11432 62.1964 8.61358 62.9159 8.26254C63.6458 7.90117 64.4836 7.72049 65.4293 7.72049C66.2105 7.72049 66.8993 7.80825 67.4955 7.98377C68.1019 8.14896 68.6571 8.39159 69.1608 8.71166V14.9064C69.1608 15.1026 69.1248 15.2317 69.0529 15.2936C68.9809 15.3556 68.837 15.3865 68.6211 15.3865H67.0484C66.9353 15.3865 66.8478 15.3711 66.7862 15.34C66.7246 15.2988 66.6731 15.2368 66.632 15.1542L66.4316 14.6896C66.1335 15.0096 65.7737 15.242 65.3522 15.3865C64.941 15.5414 64.4373 15.6188 63.8411 15.6188ZM64.9976 13.5126C65.3985 13.5126 65.712 13.4145 65.9382 13.2184C66.1643 13.0222 66.2774 12.7434 66.2774 12.382V9.9661C66.0821 9.87317 65.8354 9.82671 65.5372 9.82671C64.9925 9.82671 64.5556 10.0177 64.2266 10.3997C63.908 10.7817 63.7486 11.3186 63.7486 12.0103C63.7486 13.0119 64.1649 13.5126 64.9976 13.5126Z" fill="white"/>
<path d="M78.8466 14.798C78.9186 14.8806 78.9546 14.9736 78.9546 15.0768C78.9546 15.1697 78.9238 15.2471 78.862 15.3091C78.8004 15.3607 78.7181 15.3865 78.6154 15.3865H76.2253C76.0815 15.3865 75.9735 15.3762 75.9015 15.3556C75.8399 15.3245 75.7731 15.2677 75.7011 15.1852L73.6041 12.3201V14.6122C73.6041 14.8806 73.5424 15.0768 73.4191 15.2007C73.2957 15.3245 73.0849 15.3865 72.7868 15.3865H71.2912C70.9931 15.3865 70.7824 15.3245 70.659 15.2007C70.5459 15.0768 70.4894 14.8806 70.4894 14.6122V5.64526C70.4894 5.37682 70.551 5.18065 70.6744 5.05676C70.7978 4.92254 71.0034 4.85542 71.2912 4.85542H72.7868C73.0849 4.85542 73.2957 4.92254 73.4191 5.05676C73.5424 5.18065 73.6041 5.37682 73.6041 5.64526V10.8334L75.6395 8.16962C75.7011 8.08702 75.768 8.03024 75.8399 7.99926C75.9118 7.9683 76.0198 7.95281 76.1637 7.95281H78.5537C78.6565 7.95281 78.7335 7.98377 78.785 8.04572C78.8466 8.09735 78.8775 8.16962 78.8775 8.26255C78.8775 8.3658 78.8415 8.45871 78.7696 8.54131L76.1329 11.5768L78.8466 14.798Z" fill="white"/>
<path d="M83.8533 15.6188C82.9898 15.6188 82.2189 15.4743 81.5404 15.1852C80.8723 14.8961 80.3429 14.4624 79.9522 13.8843C79.5617 13.3061 79.3663 12.5989 79.3663 11.7626C79.3663 10.4514 79.7364 9.44987 80.4765 8.75812C81.2166 8.06637 82.2806 7.72049 83.6683 7.72049C85.0252 7.72049 86.0532 8.0612 86.7522 8.74263C87.4615 9.41373 87.8161 10.3481 87.8161 11.5457C87.8161 12.062 87.59 12.3201 87.1377 12.3201H82.296C82.296 12.764 82.4604 13.1048 82.7894 13.3422C83.1286 13.5797 83.6375 13.6984 84.3159 13.6984C84.7374 13.6984 85.0869 13.6623 85.3645 13.59C85.6522 13.5074 85.9401 13.3887 86.2279 13.2339C86.3513 13.1822 86.4335 13.1564 86.4746 13.1564C86.5671 13.1564 86.6442 13.2184 86.7059 13.3422L87.2302 14.3334C87.2816 14.4367 87.3073 14.5141 87.3073 14.5657C87.3073 14.6586 87.2456 14.7464 87.1222 14.8289C86.7008 15.1077 86.2228 15.309 85.6883 15.433C85.1537 15.5569 84.542 15.6188 83.8533 15.6188ZM85.0407 10.7869C85.0407 10.3946 84.9276 10.0899 84.7014 9.87317C84.4753 9.65636 84.136 9.54795 83.6837 9.54795C83.2314 9.54795 82.8871 9.66151 82.6506 9.88866C82.4142 10.1055 82.296 10.4049 82.296 10.7869H85.0407Z" fill="white"/>
<path d="M93.1011 15.6188C92.2376 15.6188 91.4204 15.531 90.6495 15.3556C89.8785 15.1696 89.2566 14.9116 88.7837 14.5812C88.609 14.4676 88.5216 14.3488 88.5216 14.225C88.5216 14.1424 88.5524 14.0547 88.6141 13.9617L89.3696 12.7538C89.4519 12.6298 89.5341 12.5679 89.6163 12.5679C89.6677 12.5679 89.7551 12.604 89.8785 12.6763C90.2588 12.8932 90.6905 13.0686 91.1737 13.2028C91.6568 13.3371 92.1348 13.4042 92.6077 13.4042C93.0908 13.4042 93.4454 13.332 93.6716 13.1873C93.908 13.0428 94.0262 12.8105 94.0262 12.4904C94.0262 12.1807 93.8977 11.9381 93.6408 11.7626C93.394 11.587 92.9263 11.3651 92.2376 11.0967C91.1994 10.7043 90.3873 10.2655 89.8013 9.78024C89.2257 9.28467 88.9379 8.61357 88.9379 7.76695C88.9379 6.74482 89.3028 5.96531 90.0327 5.42842C90.7625 4.89155 91.7339 4.62311 92.9469 4.62311C93.7898 4.62311 94.5094 4.70055 95.1056 4.85541C95.7121 4.99995 96.226 5.2271 96.6475 5.53684C96.8223 5.67106 96.9097 5.79495 96.9097 5.90853C96.9097 5.9808 96.8788 6.06339 96.8171 6.15631L96.0616 7.36429C95.9691 7.48818 95.8868 7.55013 95.8149 7.55013C95.7635 7.55013 95.6761 7.51399 95.5528 7.44172C94.9565 7.04939 94.2473 6.85322 93.4249 6.85322C92.9829 6.85322 92.6436 6.92549 92.4072 7.07004C92.1708 7.21459 92.0526 7.45205 92.0526 7.78244C92.0526 8.00958 92.1143 8.19542 92.2376 8.33996C92.361 8.4845 92.5255 8.61357 92.731 8.72714C92.9469 8.83038 93.2758 8.96461 93.7178 9.12979L94.0108 9.2382C94.7715 9.53762 95.3678 9.82671 95.7995 10.1055C96.2415 10.3739 96.5755 10.7094 96.8017 11.1122C97.0278 11.5044 97.1409 12 97.1409 12.5989C97.1409 13.5178 96.7966 14.2508 96.1079 14.798C95.4294 15.3452 94.4272 15.6188 93.1011 15.6188Z" fill="white"/>
<path d="M100.417 15.3865C100.263 15.3865 100.145 15.3607 100.062 15.309C99.9802 15.2575 99.9185 15.1542 99.8774 14.9993L97.8883 8.309C97.8678 8.24706 97.8575 8.20059 97.8575 8.16962C97.8575 8.02508 97.9602 7.9528 98.1659 7.9528H100.201C100.335 7.9528 100.432 7.97861 100.494 8.03023C100.556 8.07153 100.597 8.1438 100.617 8.24705L101.45 11.7626L102.498 8.92847C102.55 8.80458 102.602 8.72198 102.653 8.68068C102.715 8.62906 102.818 8.60325 102.962 8.60325H103.932C104.076 8.60325 104.175 8.62906 104.226 8.68068C104.288 8.72198 104.344 8.80458 104.396 8.92847L105.428 11.7626L106.277 8.24705C106.307 8.1438 106.348 8.07153 106.4 8.03023C106.451 7.97861 106.544 7.9528 106.677 7.9528H108.728C108.934 7.9528 109.037 8.02508 109.037 8.16962C109.037 8.20059 109.027 8.24706 109.006 8.309L107.001 14.9993C106.96 15.1542 106.898 15.2575 106.816 15.309C106.744 15.3607 106.631 15.3865 106.477 15.3865H104.966C104.822 15.3865 104.714 15.3607 104.642 15.309C104.57 15.2471 104.509 15.1439 104.457 14.9993L103.439 12.1962L102.421 14.9993C102.38 15.1439 102.318 15.2471 102.236 15.309C102.164 15.3607 102.057 15.3865 101.913 15.3865H100.417Z" fill="white"/>
<path d="M112.945 15.6188C111.978 15.6188 111.203 15.309 110.617 14.6896C110.041 14.0598 109.753 13.1771 109.753 12.0413C109.753 11.1741 109.948 10.4152 110.339 9.76476C110.74 9.11432 111.3 8.61358 112.02 8.26254C112.75 7.90117 113.588 7.72049 114.533 7.72049C115.315 7.72049 116.003 7.80825 116.599 7.98377C117.206 8.14896 117.761 8.39159 118.264 8.71166V14.9064C118.264 15.1026 118.228 15.2317 118.156 15.2936C118.084 15.3556 117.941 15.3865 117.725 15.3865H116.152C116.039 15.3865 115.952 15.3711 115.89 15.34C115.828 15.2988 115.777 15.2368 115.736 15.1542L115.536 14.6896C115.238 15.0096 114.877 15.242 114.456 15.3865C114.045 15.5414 113.541 15.6188 112.945 15.6188ZM114.102 13.5126C114.502 13.5126 114.816 13.4145 115.042 13.2184C115.269 13.0222 115.382 12.7434 115.382 12.382V9.9661C115.186 9.87317 114.939 9.82671 114.641 9.82671C114.096 9.82671 113.66 10.0177 113.33 10.3997C113.012 10.7817 112.852 11.3186 112.852 12.0103C112.852 13.0119 113.269 13.5126 114.102 13.5126Z" fill="white"/>
<path d="M120.395 18.5149C120.097 18.5149 119.887 18.453 119.762 18.329C119.649 18.2051 119.593 18.0089 119.593 17.7405V8.86652C120.056 8.53614 120.637 8.26253 121.335 8.04572C122.035 7.8289 122.764 7.72049 123.525 7.72049C126.63 7.72049 128.182 9.04204 128.182 11.6851C128.182 12.8828 127.853 13.8378 127.195 14.5502C126.537 15.2626 125.607 15.6188 124.404 15.6188C124.065 15.6188 123.736 15.5775 123.417 15.4949C123.109 15.4124 122.851 15.2988 122.646 15.1542V17.7405C122.646 18.0089 122.584 18.2051 122.461 18.329C122.338 18.453 122.127 18.5149 121.829 18.5149H120.395ZM123.741 13.528C124.183 13.528 124.512 13.3629 124.728 13.0325C124.954 12.6918 125.067 12.2375 125.067 11.6696C125.067 10.9986 124.934 10.5287 124.667 10.2603C124.409 9.98158 124.008 9.8422 123.464 9.8422C123.114 9.8422 122.836 9.88866 122.631 9.98159V12.444C122.631 12.7951 122.728 13.0635 122.923 13.2493C123.12 13.4352 123.392 13.528 123.741 13.528Z" fill="white"/>
<path fill-rule="evenodd" clip-rule="evenodd" d="M9.76187 19.9605C6.84072 19.9583 4.48769 19.2543 2.8436 17.9897C1.17979 16.7101 0.29715 14.894 0.29715 12.839C0.29715 10.859 1.17786 9.43127 2.17437 8.46618C2.95533 7.70987 3.81713 7.22549 4.41722 6.94686C4.28151 6.52858 4.11221 5.98099 3.96073 5.4154C3.75806 4.65856 3.55922 3.77059 3.55922 3.11989C3.55922 2.3497 3.72641 1.57621 4.17719 0.975182C4.65347 0.340177 5.37047 0 6.23305 0C6.90719 0 7.47952 0.251159 7.9276 0.684433C8.3559 1.09858 8.64096 1.64858 8.83778 2.22193C9.18364 3.2294 9.31829 4.49512 9.35606 5.75824H10.1823C10.2201 4.49512 10.3547 3.2294 10.7006 2.22193C10.8974 1.64858 11.1824 1.09858 11.6108 0.684433C12.0589 0.251159 12.6311 0 13.3053 0C14.1679 0 14.8849 0.340177 15.3612 0.975182C15.812 1.57621 15.9792 2.3497 15.9792 3.11989C15.9792 3.77059 15.7803 4.65856 15.5776 5.4154C15.4261 5.98099 15.2568 6.52858 15.1211 6.94686C15.7212 7.22549 16.5831 7.70987 17.364 8.46618C18.3605 9.43127 19.2412 10.859 19.2412 12.839C19.2412 14.894 18.3586 16.7101 16.6947 17.9897C15.0507 19.2543 12.6976 19.9583 9.77649 19.9605H9.76187Z" fill="#633001"/>
<path d="M6.23302 0.732498C4.96964 0.732498 4.38808 1.68882 4.38808 3.01138C4.38808 4.06263 5.0638 6.16799 5.34105 6.98757C5.40341 7.17191 5.30543 7.37388 5.12672 7.44537C4.11416 7.85046 1.12601 9.33367 1.12601 12.7306C1.12601 16.3087 4.16266 19.0067 9.76247 19.0111C9.7647 19.0111 9.76692 19.011 9.76915 19.011C9.77139 19.011 9.77361 19.0111 9.77584 19.0111C15.3756 19.0067 18.4123 16.3087 18.4123 12.7306C18.4123 9.33367 15.4241 7.85046 14.4116 7.44537C14.2329 7.37388 14.1349 7.17191 14.1973 6.98757C14.4745 6.16799 15.1503 4.06263 15.1503 3.01138C15.1503 1.68882 14.5687 0.732498 13.3053 0.732498C11.4867 0.732498 11.0333 3.34628 11.001 6.15151C10.9989 6.33879 10.8496 6.49074 10.6651 6.49074H8.87323C8.68864 6.49074 8.53943 6.33879 8.53728 6.15151C8.50494 3.34628 8.05162 0.732498 6.23302 0.732498Z" fill="#D1884F"/>
<path d="M9.77584 17.8648C5.66137 17.8648 1.13312 15.6301 1.12603 12.7374C1.12602 12.7418 1.12601 12.7463 1.12601 12.7508C1.12601 16.332 4.16749 19.0314 9.77584 19.0314C15.3842 19.0314 18.4257 16.332 18.4257 12.7508C18.4257 12.7463 18.4257 12.7418 18.4257 12.7374C18.4186 15.6301 13.8903 17.8648 9.77584 17.8648Z" fill="#FEDC90"/>
<path d="M7.48975 11.8488C7.48975 12.8255 7.03485 13.3342 6.4737 13.3342C5.91254 13.3342 5.45764 12.8255 5.45764 11.8488C5.45764 10.8722 5.91254 10.3635 6.4737 10.3635C7.03485 10.3635 7.48975 10.8722 7.48975 11.8488Z" fill="#633001"/>
<path d="M14.0941 11.8488C14.0941 12.8255 13.6392 13.3342 13.0781 13.3342C12.5169 13.3342 12.062 12.8255 12.062 11.8488C12.062 10.8722 12.5169 10.3635 13.0781 10.3635C13.6392 10.3635 14.0941 10.8722 14.0941 11.8488Z" fill="#633001"/>
</g>
<defs>
<clipPath id="clip0_2964_12707">
<rect width="128.182" height="20" fill="white"/>
</clipPath>
</defs>
</svg>
