<svg width="121" height="82" viewBox="0 0 121 82" fill="none" xmlns="http://www.w3.org/2000/svg">
<path fill-rule="evenodd" clip-rule="evenodd" d="M29.8465 0C24.8575 0 20.8131 4.0444 20.8131 9.03342V13.9953C22.6108 12.814 24.9376 12.7024 26.8354 13.6603V9.03342V6.02228H29.8465H93.0805H96.0917V9.03342V40.6504H65.9802C63.4857 40.6504 61.4635 42.6726 61.4635 45.1671V75.2785H29.8465H26.8354V72.2674V66H20.8131V72.2674C20.8131 77.2564 24.8575 81.3008 29.8465 81.3008H65.916C67.1139 81.3008 68.2628 80.8249 69.1098 79.9779L100.791 48.2967C101.638 47.4497 102.114 46.3008 102.114 45.1029V9.03342C102.114 4.0444 98.0695 0 93.0805 0H29.8465ZM67.4858 46.6727V72.784L93.5971 46.6727H67.4858ZM24.114 24.1986L5.6632 57H42.5647L24.114 24.1986ZM27.6648 20.3126C26.1073 17.5437 22.1206 17.5437 20.5631 20.3127L0.529142 55.9286C-0.998493 58.6444 0.964045 62 4.08001 62H44.1479C47.2639 62 49.2264 58.6444 47.6988 55.9286L27.6648 20.3126ZM22.0662 48.1722L21.6646 36H26.4833L26.0817 48.1722H22.0662ZM26.6464 52.263C26.6464 53.7061 25.6927 54.5469 24.074 54.5469C22.4552 54.5469 21.514 53.7061 21.514 52.263C21.514 50.8074 22.4552 49.9666 24.074 49.9666C25.6927 49.9666 26.6464 50.8074 26.6464 52.263Z" fill="#0ED3DF"/>
</svg>
