<svg width="79" height="79" viewBox="0 0 79 79" fill="none" xmlns="http://www.w3.org/2000/svg">
    <path opacity="0.1" fill-rule="evenodd" clip-rule="evenodd"
        d="M39.5 75C59.1061 75 75 59.1061 75 39.5C75 19.8939 59.1061 4 39.5 4C19.8939 4 4 19.8939 4 39.5C4 59.1061 19.8939 75 39.5 75ZM39.5 79C61.3152 79 79 61.3152 79 39.5C79 17.6848 61.3152 0 39.5 0C17.6848 0 0 17.6848 0 39.5C0 61.3152 17.6848 79 39.5 79Z"
        fill="#1E2A34" />
    <path fill-rule="evenodd" clip-rule="evenodd"
        d="M77.0476 38C78.1259 38 79 38.8954 79 40C79 61.589 61.4684 79 39.9524 79C38.8741 79 38 78.1046 38 77C38 75.8954 38.8741 75 39.9524 75C59.4107 75 75.0952 59.28 75.0952 40C75.0952 38.8954 75.9693 38 77.0476 38Z"
        fill="#098890" />
</svg>