<svg width="40" height="40" viewBox="0 0 40 40" fill="none" xmlns="http://www.w3.org/2000/svg">
<path d="M40 20C40 8.9543 31.0457 3.91405e-07 20 8.74228e-07C8.9543 1.35705e-06 3.91405e-07 8.95431 8.74228e-07 20C1.35705e-06 31.0457 8.95431 40 20 40C31.0457 40 40 31.0457 40 20Z" fill="#1E2A34"/>
<path d="M25.3986 21.2532L21.8147 24.7532C21.3136 25.2426 21.3136 26.036 21.8147 26.5254L21.9248 26.633C22.426 27.1223 23.2385 27.1224 23.7396 26.633L29.6242 20.8861C30.1253 20.3967 30.1253 19.6033 29.6242 19.1139L23.7396 13.367C23.2384 12.8777 22.426 12.8777 21.9248 13.367L21.8147 13.4746C21.3136 13.964 21.3136 14.7574 21.8147 15.2468L25.3986 18.7468L11.2832 18.7468C10.5745 18.7468 10 19.3079 10 20C10 20.6921 10.5745 21.2532 11.2832 21.2532L25.3986 21.2532Z" fill="#0ED3DF"/>
</svg>
