<svg width="15" height="14" viewBox="0 0 15 14" fill="none" xmlns="http://www.w3.org/2000/svg">
<path fill-rule="evenodd" clip-rule="evenodd" d="M8.36613 0.499998C7.98123 -0.166669 7.01897 -0.166667 6.63407 0.499999L0.138884 11.75C-0.246016 12.4167 0.235111 13.25 1.00491 13.25H13.9953C14.7651 13.25 15.2462 12.4167 14.8613 11.75L8.36613 0.499998ZM8.38584 8.69043H6.81846L6.66221 3.9541H8.53721L8.38584 8.69043ZM8.33701 10.9365C8.16449 11.0928 7.92035 11.1709 7.60459 11.1709C7.28558 11.1709 7.03819 11.0928 6.8624 10.9365C6.68988 10.7803 6.60362 10.5622 6.60362 10.2822C6.60362 9.99902 6.68988 9.77929 6.8624 9.62304C7.03819 9.46679 7.28558 9.38867 7.60459 9.38867C7.92035 9.38867 8.16449 9.46679 8.33701 9.62304C8.5128 9.77929 8.60069 9.99902 8.60069 10.2822C8.60069 10.5622 8.5128 10.7803 8.33701 10.9365Z" fill="#FFD644"/>
</svg>
