<svg width="113" height="38" viewBox="0 0 113 38" fill="none" xmlns="http://www.w3.org/2000/svg">
<path d="M63.1435 32.3981C66.5942 32.8774 68.736 32.2384 70.3622 30.6011C71.3934 29.5628 72.1867 28.3648 72.8609 27.0869C75.6373 21.9354 82.3801 9.51586 82.3801 9.51586H77.5412L72.504 19.6991L70.9174 9.51586H65.7612V9.75546C65.7612 9.75546 67.5064 19.0601 68.379 23.8522C68.498 24.571 68.6566 26.408 67.3874 27.5661C66.6735 28.245 65.6423 28.7641 63.8574 28.4846L63.1435 32.3981ZM59.2962 9.51586L54.6159 20.2182L54.4969 20.1783L53.8623 9.7954H48.7458L43.7879 20.2182L43.6689 20.1384L43.4706 9.51586H38.592L39.544 26.5678H44.8191L49.9357 15.4661H50.0547L50.8479 26.5678H56.1628L63.8574 9.51586H59.2962ZM87.4569 26.5678H82.3404C83.4906 20.8172 84.5615 15.2664 85.7118 9.51586H89.6781V12.6707C90.1937 11.3928 90.9473 10.1548 92.1768 9.63567C93.3667 9.11652 95.2309 9.15646 97.1347 9.71553C96.3811 11.1931 95.8258 12.471 94.9929 14.0684C94.279 13.9086 93.6047 13.7489 92.9304 13.669C91.4232 13.5093 90.3523 14.1083 89.8367 15.5459C89.4798 16.5443 89.2418 17.6225 89.0435 18.6608C88.4882 21.2964 88.0122 23.9321 87.4569 26.5678ZM103.838 13.5891C104.552 12.7106 105.9 12.1915 106.852 12.5109C108.042 12.8703 108.439 14.2281 107.606 15.1466C107.328 15.4661 106.932 15.7057 106.535 15.8654C105.305 16.3446 104.036 16.3047 102.688 16.0651C102.886 15.1066 103.243 14.308 103.838 13.5891ZM110.382 22.3347H110.224C108.28 23.0935 106.099 23.2932 104.591 22.8539C102.926 22.3747 101.974 20.937 102.291 19.2997C107.209 19.6991 109.311 18.7806 110.462 18.1017C113.516 16.2647 114.269 11.3528 110.303 9.9152C106.813 8.63731 101.934 9.23632 99.6335 12.0317C97.5314 14.5875 96.9364 17.3829 97.2537 20.5377C97.4917 22.8938 99.0782 26.2483 104.314 26.8074C107.487 27.1268 109.51 26.2882 109.668 26.2483L110.382 22.3347Z" fill="white"/>
<path d="M19.2365 19.02H30.8578L24.5911 34.4745C23.7185 36.631 21.656 38.0287 19.3555 38.0287H7.73425L14.001 22.5742C14.8736 20.3778 16.9361 19.02 19.2365 19.02Z" fill="#94C5FF"/>
<path d="M30.8578 19.02L23.7978 28.0451C22.7269 29.4828 21.1007 30.4013 19.1969 30.4013H10.7487L13.9614 22.5342C14.8339 20.4177 16.8964 19.02 19.1969 19.02H30.8578Z" fill="#1A32AF"/>
<path d="M15.3496 9.51562H26.9708L20.7041 24.9702C19.8315 27.1266 17.769 28.5243 15.4686 28.5243H3.84729L10.1141 13.0698C10.9866 10.9133 13.0888 9.51562 15.3496 9.51562Z" fill="#0092FF"/>
<path d="M27.0105 9.51562L19.9505 18.5407C18.8796 19.9784 17.2534 20.8969 15.3496 20.8969H6.90137L10.1141 13.0298C10.9867 10.9133 13.0491 9.51562 15.3496 9.51562H27.0105Z" fill="#1A32AF"/>
<path d="M11.5023 0.012207H23.1236L16.8568 15.4667C15.9842 17.6232 13.9217 19.0209 11.6213 19.0209H0L6.26677 3.56635C7.13935 1.4099 9.20183 0.012207 11.5023 0.012207Z" fill="#0055FF"/>
</svg>
